<svg xmlns="http://www.w3.org/2000/svg" width="200" height="200" viewBox="0 0 200 200">
<!-- SVG created with Arrow, by QuiverAI (https://quiver.ai) -->
  <path d="m99.62 196.3c-52.67 0-95.92-42.5-95.92-96.16 0-53.4 43.25-96.48 95.92-96.48 52.84 0 96.42 43.08 96.42 96.48 0 53.66-43.58 96.16-96.42 96.16zm0-190.6c-51.41 0-93.63 42.03-93.63 94.43 0 52.62 42.22 94.11 93.63 94.11 51.77 0 94.12-41.49 94.12-94.11 0-52.4-42.35-94.43-94.12-94.43z" fill="#156124"/>
  <path d="m98.85 163.5c-34.64 0-62.35-28.84-62.35-63.17 0-34.6 27.71-64.23 62.35-64.23 34.96 0 64.12 29.63 64.12 64.23 0 34.33-29.16 63.17-64.12 63.17zm0-125c-33.1 0-60.2 28.1-60.2 61.82 0 33.53 27.1 60.69 60.2 60.69 33.46 0 61.56-27.16 61.56-60.69 0-33.72-28.1-61.82-61.56-61.82z" fill="#156124"/>
  <path d="m108.4 17.46 0.35-6.58-0.54-0.07c-0.28 0.97-0.41 1.54-1.15 1.54-0.9 0-2.77-1.33-5.74-1.33-6.45 0-9.85 5.49-9.85 10.53 0 5.26 3.33 9.73 9.57 9.73 4.62 0 6.7-2.18 7.36-4.19l-0.41-0.35c-1.15 2.49-3.7 3.39-5.84 3.39-4.55 0-6.14-3.18-6.14-8.65 0-4.02 1.73-8.92 6.42-8.92 3.73 0 5.17 3.19 5.97 4.9z" fill="#156124"/>
  <path d="m113.8 23.24c-1.15 6.54 2.92 10.87 8.53 12.09 6.73 1.54 10.53-4.02 11.12-8.52 0.9-6.27-3.1-10.3-8.2-11.69-6.17-1.71-10.52 2.83-11.45 8.12zm4.48 1.33c0.86-3.54 3.19-9.03 7.47-8.06 4 1.02 4.21 4.1 2.2 10.65-1.72 5.93-4.12 7.65-7.03 7.02-3.72-0.97-4.07-4.26-2.64-9.61z" fill="#156124"/>
  <path d="m146 47.12 3.04-5.59-0.49-0.28c-1.93 2.49-3.79 4.67-7.52 2.35-2.69-1.55-3.59-2.52-2.07-5.08l7.18-10.56c1.49-2.25 2.48-1.42 3.63-0.52l0.28-0.42-6.97-4.61-0.28 0.41c0.97 0.9 1.83 1.53 0.55 3.58l-7.76 11.42c-1.21 1.95-2.42 1.12-3.32 0.49l-0.35 0.42 14.08 8.39z" fill="#156124"/>
  <path d="m155.7 60.51 7.55-3.37-0.35-0.49c-3.18 1.33-5.87 2.23-8.2-1.31-1.86-2.73-2.45-3.99 0.03-5.93l9.89-8.09c2.15-1.79 2.71-0.6 3.6 0.8l0.49-0.35-6.1-7.56-0.49 0.35c0.7 1.22 1.26 2.19-0.67 3.82l-11.18 9.35c-1.86 1.61-2.59 0.42-3.32-0.62l-0.49 0.35 9.24 13.05z" fill="#156124"/>
  <path d="m160.4 66.01 5.37 12.58 6.1-1.86-0.21-0.56c-3.72 0.56-5.51 0-6.73-3.11-0.96-2.49-1.17-3.46 0.98-4.43l6.45-2.93 1.28 3.11c0.97 2.42-0.53 3.5-2.19 4.53l0.21 0.49 8.03-3.54-0.21-0.56c-2.14 0.63-3.5 0.84-4.72-1.82l-1.34-2.86 5.85-2.8c1.15-0.55 1.5-0.07 1.78 0.56l1.08 2.6c0.96 2.56 0.1 3.95-1.98 6.34l0.28 0.56 2.9-2.23-6.38-14.23-0.42 0.21c0.42 1.4 0.91 2.66-0.82 3.45l-12.95 6.5c-1.93 1.04-2.49 0.21-2.91-0.35l0.55 0.35z" fill="#156124"/>
  <path d="m188.8 97.66 0.07-0.63c-0.67-0.28-1.5-0.7-1.15-2.1 0.21-0.97 0.77-3.29 0-6.3-1.43-5.49-5.23-7.98-10.34-7.29-6.02 0.9-9.68 4.79-8.82 12.07 0.49 3.76 2.15 6.32 2.8 7.02l5.49-1.22 0.42 1.5 0.56-0.07-1.34-8.09-0.63 0.14c0.21 2.42-0.75 3.32-2.68 3.74-2.83 0.63-4.48-0.7-4.41-4.3 0.14-4.09 4.2-5.8 8.51-6.08 5.18-0.42 9.46 1.7 9.88 5.79 0.42 3.37-1.91 5.19-4.35 6.58l0.14 0.63 5.85-1.39z" fill="#156124"/>
  <path d="m166.8 119.4 5.92 1.98 0.14-0.63c-3.04-1.54-4.35-3.09-3.65-6.09 0.66-2.66 1.01-3.77 3.49-3.22l7.04 1.54-0.76 3.12c-0.6 2.56-2.46 2.56-4.54 2.49l-0.14 0.56 8.74 1.95 0.14-0.63c-2.15-0.97-3.43-1.74-2.84-4.37l0.76-3.26 5.61 1.26c1.43 0.35 1.36 0.98 1.15 1.78l-0.73 3c-0.73 2.32-2.1 3.02-5.21 3.5l-0.14 0.63 4.07-0.83 2.55-15.52-0.56-0.14c-0.28 1.4-0.63 2.8-2.63 2.38l-13.3-2.79c-2.26-0.49-2.19-1.57-2.19-2.4h-0.56l-2.36 15.69z" fill="#156124"/>
  <path d="m13.7 119.9c0.42 2.11 0.07 3.08 0.07 3.81l0.56 0.14c0.14-1.4 0.28-2.62 2.21-2.97l13.37-2.18c2.4-0.42 2.75 0.55 3.24 1.95l0.49-0.14-2.07-9.7-0.49 0.14c-0.28 1.95-0.14 2.99-2.9 3.37l-5.61 0.97-0.42-2.39c-0.59-2.9 1.06-3.39 2.99-4.09l-0.14-0.63-8.11 1.68 0.07 0.63c2.22-0.07 3.81 0.14 4.47 2.7l0.49 2.32-6.59 1.22c-0.9 0.21-1.18-0.28-1.39-1.08l-0.42-2.15c-0.59-2.9 0.63-4.05 3.53-5.88l-0.14-0.56-5.18 1.29 1.97 11.55z" fill="#156124"/>
  <path d="m11.45 92.91-0.42 9.14 0.56 0.07c0.14-1.47 0.42-2.59 2.15-2.38l10.24 0.7c6.03 0.49 6.76-4.12 6.76-6.61 0.14-4.82-1.94-7.24-6.29-7.52l-9.31-0.8c-1.79-0.14-2.07-1.25-2-2.55h-0.56l-0.35 6.12h0.56c0.07-1.54 0.74-2.34 2.23-2.2l9.72 0.63c3.11 0.21 4.7 1.82 4.49 5.43-0.21 3.19-1.87 3.82-5.27 3.61l-10.1-0.77c-1.73-0.14-2.01-0.93-2.01-2.88l-0.4 0.01z" fill="#156124"/>
  <path d="m31.78 83.91 4.28-10.05c2.55-6.12-0.63-10.52-5.74-12.13-5.51-1.79-9.51 0.63-11.76 5.88l-4.69 9 0.49 0.28c0.66-1.33 1.15-2.23 3.3-1.26l12.87 5.7c2.08 0.9 1.8 2.12 1.52 3.02l-0.27-0.44zm-13.02-14.86c-0.9-1.12-0.14-2.23 1.01-2.86 2.55-1.26 5.52-0.46 8.35 0.76 4.83 2.08 6.91 4.5 5.55 8.1-0.73 1.89-1.63 2.31-3.21 1.61l-11.7-7.61z" fill="#156124"/>
  <path d="m39.33 64.28c0.9-1.54 1.93-3.15 3.42-4.27l-0.42-0.35c-0.56 0.7-1.42 1.26-1.91 0.7-0.49-0.42-1.08-1.53-1.5-2.43l-0.96-2.08 4.79-5.14 2.69 0.9c0.59 0.21 1.39 0.42 1.74 0.84 0.73 0.7-0.07 1.81-0.56 2.51l0.42 0.35 5.75-7.25-0.42-0.35c-1.21 1.26-1.95 1.05-4.46 0.35l-17-4.03 8.6 16.54c0.9 1.82 0.24 2.72-0.49 3.35l0.31 0.36zm-5.17-15.66 7.62 2.15-3.87 4.26-3.75-6.41z" fill="#156124"/>
  <path d="m42.05 33.61 0.35 0.35c1.03-0.8 1.82-1.15 2.97-0.35l7.83 11.34c1.15 1.68 0.94 2.48-0.37 3.74l0.28 0.35 4.62-3.19-0.28-0.42c-1.66 0.9-2.52 0.83-3.8-1.05l-6.52-9.64 19.78 4.61 0.28-0.28-9.88-14.06c-0.73-1.11-0.59-2.19 0.56-2.82l-0.28-0.49-4.62 3.26 0.28 0.42c1.73-0.97 2.69-0.83 3.77 0.78l4.48 7.31-14.72-3.44-4.73 3.58z" fill="#156124"/>
  <path d="m48.79 173.7-0.56 1.12c4.2 0.8 7.5 4.16 11.98 5.95l1.73-2.83c-4-0.8-5.93-2.78-9.52-4.66 7.04-1.82 16.93-2.52 17.14-9.38 0-4.96-5.18-7.45-8.29-6.82-2.22 0.49-2.98 1.89-2.84 3 1.03 0.21 0.89-0.76 2.62-1.04 2.76-0.49 5.8 1.33 5.87 4.51-0.35 6.37-9.3 6.51-12.89 7-3.04 0.28-4.38 0.91-5.24 3.15z" fill="#156124"/>
  <path d="m85.21 189.1c7.3-0.63 9.45-10.5 9.31-14.39-0.35-5.99-4.35-7.97-8.07-7.9-7.24 0.21-8.89 9.72-8.82 13.61 0.21 6.19 3.5 8.95 7.58 8.68zm0.13-2.49c-3.93 0.21-5.08-2.82-4.94-6.71 0.14-3.63 1.93-10.76 6.83-10.69 3.9 0 4.98 2.63 4.91 6.13-0.07 3.6-1.8 10.99-6.8 11.27z" fill="#156124"/>
  <path d="m113.7 189.1c6.38-0.71 7.81-6.46 7.32-11.41-0.96-7.68-4.58-11.64-10.19-10.91-6.09 0.8-6.96 6.99-6.19 12.38 0.86 6.06 3.97 10.56 9.06 9.94zm0.07-2.49c-4.28 0.49-6.07-5.16-6.42-9.12-0.49-4.33 0.59-8.29 4.8-8.63 4.28-0.42 6 4.97 6.42 8.93 0.49 4.15-0.59 8.33-4.8 8.82z" fill="#156124"/>
  <path d="m138.4 155c-2.97 2.73-4.19 3.29-8.19 5.2l3.18 9.21 1.1 0.21c1.86-2.32 3.59-3.93 6.14-3.72 3.18 0.35 4.61 3.15 4.4 5.5-0.56 4.33-4.12 6.99-7.58 6.99l0.66 2.63c5.11-0.28 9.46-5.33 9.53-10.14-0.21-4.09-3.25-6.99-6.72-6.78-2.55 0.21-3.89 1.54-5.82 3.33l-1.86-5.49c2.97-1.82 4.69-2.62 6.49-3.95 0.9-0.56-0.07-2.98-1.33-2.99z" fill="#156124"/>
  <path d="m111 64.63c-0.73 1.11-0.14 4.3 1.08 4.3 2.33 0 5.02-1.47 6.88-1.33 1.22 0.14 1.22 1.82-0.86 2.24-4.83 1.04-8.26 3.6-8.78 8.21-0.66 5.56 0.66 8.22 6.17 8.08 5.36-0.14 10.61-1.68 12.69-2.38 1.36-0.49 2.16 1.36 4.49 1.5 3.11 0.14 5.44-4.54 5.72-6.56 0.28-3.43-2.61-8.4-6.41-8.54-3.29-0.14-3.74-1.11-3.74-2.44 0-0.97 0.86-1.25 2.66-0.97 2.47 0.42 3.06 1.47 5.39 1.12 2.97-0.42 3.77-1.82 3.42-4-0.39-1.98-6.41-1.68-8.49-1.33-5.03 0.8-4.68-0.28-5.03-4.31-0.21-2.08-1.43-3.41-3.05-3.41-2.33 0-0.6 5.42-2.02 7.24-1.8 2.36-9.04 1.46-10.12 2.58zm5.95 11.33c2.55-0.28 3.04 2.91 3.53 4.76 0.73 2.83-2.31 2.03-4.17 1.4-2.33-0.83-2.92-5.66 0.64-6.16zm8.25-1.98c1.66-0.28 2.08 1.54 2.36 3.79s0.35 3.86-1.38 3.86c-1.43 0-2.4-4.5-2.54-5.53-0.21-1.19 0.21-1.89 1.56-2.12zm6.74 0.63c2.83 0.56 3.18 3.46 2.55 5-0.83 1.75-3.73 1.96-4.59 0.63-1.15-1.82-1.81-6.4 2.04-5.63z" fill="#156124"/>
  <path d="m119.6 89.07c-3.59 0.56-9.68 1.82-10.64 5.18-1.15 4.15-1.91 11.36 2.57 12.06 3.49 0.56 5.89-0.56 6.79 1.42 0.73 1.72 0.14 6.91 2.36 9.57 1.43 1.82 3.76 9.14 12.57 15.93 4 3.19 9.68 5.68 12.79 6.24l1.86-2.05c-0.59-1.82-2.99-2.38-5.25-3.01-6.17-1.82-10.93-6.72-12.59-9.07-1.34-2.18-4.38-4-4.38-6.56 0-2.66 2.76-6.03 3.04-10.64 0.14-3 4.18-2.58 5.21-3 2.83-1.26 5.52-2.13 5.59-4.79 0-2.83 0.73-7.72-2.62-10.04-2.08-1.37-6.77-2.17-9.6-2.24-2-0.14-3.08 1.97-1.59 3.58 1.49 1.82 0.34 4.48 0.55 6.46 0.35 3.12-1.3 9.01-1.3 10.62 0 1.4-1.73 2.86-2.32 0.54-0.83-3.26 0.07-8.38-0.59-12.66-0.28-1.95-1.84-1.67-1.42-3.49 1.07-2.81 1.49-4.52-1.03-4.05zm-2.76 4.83c1.66-0.63 1.73 0.83 1.59 2.23-0.35 2.15 0.21 3.9-2.26 4.11-3.04 0.28-3.32-1.12-2.66-3.37 0.59-1.96 2.15-2.41 3.33-2.97zm12.88-0.14c1.34-0.56 5.34-0.42 5.93 1.3 0.66 1.85 0.17 3.39-1.55 3.6-2.9 0.42-4.76-0.21-4.97-1.75-0.27-1.5-0.93-2.52 0.59-3.15z" fill="#156124"/>
  <path d="m49.01 88.52 1.28-3.26c1.07-0.56 2.87-0.14 3.9-0.14 1.93 0 4.62-0.83 6.95-0.69 2.9 0.14 4.12-0.49 4.12-1.82 0-1.26-1.15-2.3-2.74-2.16-4.28 0.28-6.61-2.21-6.05-6.54 0.49-3.76 0.84-9.15 3.06-9.95 2.01-0.73 3.23 0.95 3.09 2.67-0.28 2.73-1.77 8.22-0.41 8.71 1.35 0.49 3.15-0.21 3.15-1.43 0-2.32 0.35-8.93 1.08-13.21 1.36-0.35 3.91-1.05 4.19 1.37 0.28 1.85-0.62 5.28 0.04 8.15 0.49 2.18 1.57 2.39 2.6 2.18 1.49-0.35 1.77-2.27 1.49-4.76-0.35-2.9 0.99-9.51 4.21-11.43 0.96-0.56 2.39 0.07 2.39 2.02 0.28 4.75-3.01 9.94-3.87 15.26-0.35 2.25 0.24 3.22-1.12 4.27-1.15 0.9-2.11 0.97-3.14-0.64-1.28-2.08-3.08-0.36-3.22 1.11-0.28 2.42-0.28 4.44 2.41 4.65 4.14 0.28 5.79-0.62 10.97 0.08 2.76 0.35 3.36 2.5 2.02 4.35-1.43 2.15-5.36 1.59-10.47 1.59-4 0-7.29 0.8-10.4 0.8-3.53 0-8.42-1.04-11.98 0.22-1.72 0.63-3.55-0.63-3.55-1.4z" fill="#156124"/>
  <path d="m54.19 93.9c-2.33 1.61-3.48 3.76-3.83 9.81-0.35 3.96 1.37 5.43 4.8 5.85 2.76 0.28 3.79-0.52 4.07 1.4 0.42 2.08-0.51 4.23 0.45 9.19 0.83 4.61 3.09 11.47 5.24 13.89 2.15 0.49 4.01 4.57 7.74 6.39 3.56 1.61 6.25 2.94 8.08 5.94 1.36 0.97 2.92-3.64 1.43-5.72-1.22-1.61-4.05-1.82-5.01-3.64-0.93-1.65-2.22-0.75-3.88-2.36-3.04-2.93-5.51-3.73-7.24-11.95-0.96-4.68-1.03-4.75 2.01-6.15 2-0.9 3.32-4.39 3.6-6.54 0.42-2.25 4.08-2.11 6.56-3.23 3.04-1.33 4.4-2.94 4.05-7.97-0.35-3.89-2.9-7.49-6.01-7.7-2.62-0.14-4.63-0.87-5.88-0.38-1.56 0.63-1.14 3.26-1.63 4.38-0.66 1.54-0.73 2.62-0.07 3.95 0.56 1.19-0.66 7.01-1.52 9.91-0.73 1.92-2.09 0.87-1.88-1.62s1.18-7.03-0.04-8.29c-1.36-1.4-1.43-1.61-1.36-3.93 0.07-1.92-2.69-3.67-9.68-1.23zm1.52 6.2c0.83-0.97 2.32-1.77 3.4-2.19 1.25-0.49 1.53 0.84 0.9 2.52-0.76 2.18-0.76 3.08-2.98 3.08-1.8 0-2.01-1.5-1.32-3.41zm18.99-3.37c2.15-0.42 3.41 0.28 3.34 2.43-0.07 1.95-0.21 3-2.43 3.14-2.26 0.14-2.99-1.19-2.85-2.8 0.21-1.69 0.56-2.49 1.94-2.77z" fill="#156124"/>
  <path d="m90.32 74.61c0.96-3.26 4.79-4.38 8.39-5.49 2.9-0.97 4.26-2.09 2.97-4.82-1.43-3.12-2.92-6.18-1.49-7.37 0.83-0.63 4.05 0.14 4.71 1.75 1.43 3.43 2.02 7.12 2.23 9.07 0.35 2.42-2.51 4.64-5.2 4.85-4.55 0.42-6.88 2.67-8.96 4.82-2.72 2.18-3.98 0.99-2.65-2.81z" fill="#156124"/>
  <path d="m89.17 92.15c2.08-2.59 2.08-3.08 3.11-6.14 0.66-2.08 6.97-8.2 8.98-9.7 1.36-0.97 5.91-0.17 6.4 2.15 0.59 2.66-0.49 5.15 0 6.69 0.73 2.08-1.2 2.88-2.03 9.31-0.96 6.72-4 11.02-7.59 17.07-3.29 5.42-5.83 12.18-8.66 14.91-1.03 0.8-3.04-0.53-1.89-3.72 0.96-2.93 6.44-10 7.66-14.65 1.03-3.96 3.58-7.89 4.41-10.38 1.25-3.82 3.8-12.68 2.97-15.03-2.69 1.26-8.71 7.95-10.51 11.45-1.49 3.19-3.96 1.27-3.68-0.48 0.18-1 0.55-1.25 0.83-1.48z" fill="#156124"/>
</svg>