<svg xmlns="http://www.w3.org/2000/svg" width="200" height="200" fill="none" viewBox="0 0 200 200">
<!-- SVG created with Arrow, by QuiverAI (https://quiver.ai) -->
  <path d="m189.9 176.8-2.25-2.4-5.84-0.34 0.37-2.79 1.42-2.99-0.33-2.55-2.56-0.62-4.65 0.97-4.35-4.25-4.45-1.39-2.95 1.41-3.11-1.81-3.5-0.58-1.8 3.5-4.72-0.46-12.89-2.1-11.23-0.7-6.88-0.33-20.56-0.42-7.12 0.14-13.79 0.54-12.41-0.29-18.24 0.66-5.19 0.72-4.51-0.92-3.89 0.92-3.24-0.59-6.3 1.37-1.22 4.53-6.31 0.56-4.42 4.19-0.93 2.4 2.22 1.88-0.48 2.14-3.06 2.6-0.74 4.16 2.18 4.75 4.76-0.31 3.42-1.88 3.06 3.1 3.33 0.22 3.06-1.89 4.28 3.52 4.93 0.47 3.86-1.89 4.4 2.25 6.4 0.22 3.33 1.57 5.6 0.39 5.29-1.88 2.19 1.38 5.82 1.77 4.33-0.75 3.86 0.22 5.12-1.62 4.42 3.2 4.02-1.16 3.18 1.62 4.61-0.36 3.96-2.81 5.04 0.08 5.16 1.08 5.5 1.32 4.3-2.35 4.2 0.49 4.61-2.41 4.63 0.89 5.03-1.13 3.8 0.83 6.95-3.84 3.7 3.75 6.19 1.67 2.94-3.5 4.99 1.71 2.3-2.35 2.21-2.82 4.61 1.07 4.28-0.19 1.61-3.5-2.78-2.79 1.23-5.3z" fill="#FEFFFE" stroke="#231F20" stroke-miterlimit="10" stroke-width=".3"/>
  <path d="m13.33 177.2 2.01-2.02 2.63-0.42 4.15 1.04 5.22-1.04 3.5 0.82 5.48-0.6 4 0.82 4.6-1.74 4.2 1.74 4.61-1.74 4.1 1.74 4.61-0.87 5.29 1.12 8.35-1.29 3.61 0.94 5.73-1.43 6.3 1.14 5.09-0.7 4.95 0.86 6.15-1.3 6.3 1.43 4.7-1.1 7.21 1.62 6.86-1.62 6.23 1.81 5.5-1.62 5.82 1.97 5.7-0.82 4.48 0.56 5.61-1.63 6.95 2.19 6.64-1.81 7.75 0.67 3.63 3.5-2.56 3.79-3.75-0.96-3.93 3.67-10.17-1.27-4.17-1.73-4.38 1.73-5.82-0.42-6.48 1.69-4.61-3.62-5.64 1.4-6.47-2.66-5.5 1.67-6.48-1.34-5.29 1.29-5.83-1.55-7.74 1.55-6.39-1.24-5.37 2.94-6.09-1.27-5.29 1.56-5.38-3.32-4.94 1.67-4.89 1.29-5.99-1.29-7.52-0.92-6.95-0.88-4.61-1.12-7.22 2.97-5.91-2.93-5.21-0.21-2.52 2.79-4.94-2.19 0.08-3.31z" fill="#A99165" stroke="#231F20" stroke-miterlimit="10" stroke-width=".3"/>
  <path d="m10.63 186.2 2.45-2.44h3.98l2.38 2.38-2.32 2.32-4 0.83-2.49-3.09z" fill="#3A53A4" stroke="#231F20" stroke-miterlimit="10" stroke-width=".3"/>
  <path d="m185 185.3 2.27-1.5h2.63l1.3 2.07-1.42 2.44-2.9-0.32-1.88-2.69z" fill="#3A53A4" stroke="#231F20" stroke-miterlimit="10" stroke-width=".3"/>
  <path d="m172.3 187.6 2.83-1.21 2.95 1.68 1.09 2.39-1.42 1.53-3.24-1.29-2.21-3.1z" fill="#3A53A4" stroke="#231F20" stroke-miterlimit="10" stroke-width=".3"/>
  <path d="m16.38 169 2.53-0.93 1.88-0.34 0.92 1.25v2.7l-2.55 1.81-3.05-0.59-1.69-1.99 1.96-1.91z" fill="#B11D2B" stroke="#231F20" stroke-miterlimit="10" stroke-width=".3"/>
  <path d="m24.46 162.6 1.25-1.62 2.55 0.34 0.92 1.88 2.22-1.17 2.55 0.89 0.63 2.25-1.78 3.5-3.89 1.25-4.18-2.7-0.27-4.62z" fill="#B11D2B" stroke="#231F20" stroke-miterlimit="10" stroke-width=".3"/>
  <path d="m46.17 173 0.66-5.7 3.89-3.5 1.99 1.62 5.12-1.62 1.57-1.71 2.08 0.67 0.5 2.66 2.4 1.4 1.57 5.18-0.79 2.57-2.3-1.06-1.99-2.14-2.69 1.24-1.97 1.29-2.48-3.21-4.25 0.3-3.31 2.01z" fill="#3A53A4" stroke="#231F20" stroke-miterlimit="10" stroke-width=".3"/>
  <path d="m152.1 164.3 0.98-1.25 2.41-0.59 2.53 1.37 2.07-0.32 0.98 2.54-1.25 3.26-4.28 4.02-1.46 2.35-1.98-4.75v-6.63z" fill="#B11D2B" stroke="#231F20" stroke-miterlimit="10" stroke-width=".3"/>
  <path d="m169 164.4 1.42-1.53 2.27 0.33 1.17 0.75 1.57-0.42 0.66 1.81-0.66 4.21-1.8 1.16-3.24-1.29-1.39-2.54v-2.48z" fill="#B11D2B" stroke="#231F20" stroke-miterlimit="10" stroke-width=".3"/>
  <path d="m62.94 165.7 2.22 1.89 3.89-1.37 4.06 1.72 4.61-0.57 3.89 1.5 4.61-1.64 4.86 1.47 4.94-1.11 3.89 1.48 3.9-1.7 4.6 0.79 5.03-1.14 4.7 1.47 4.05-2.32 5.03 1.62 4.86-0.92 3.96 1.55 4.61-2.37 4.7 1.52 4.53-1.6 2.21 2.45-1.42 1.88-4.61-0.85-4.75 1.57-5.83-1.57-5.29 1.22-5.47-0.74-4.7 0.56-5.91-1.62-4.86 1.29-5.29-0.34-4.94 0.82-5.21-1.3-5.74 0.82-4.61-1.29-5.21 1.29-5.37-1.07-5.37 0.92-3.9-2.22-0.67-2.09z" fill="#8B3A29" stroke="#231F20" stroke-miterlimit="10" stroke-width=".3"/>
  <path d="m126.2 163.8 2.9-0.46 2.95 1.88-0.44 3.35-1.98 2.82-3.8-2.35-0.75-2.44 1.12-2.8z" fill="#B11D2B" stroke="#231F20" stroke-miterlimit="10" stroke-width=".3"/>
  <path d="m102.8 167.4 2.08-0.27 1.42 0.87 1.89-0.74 1.17 1.72-0.58 3.1-3.05 1.23-2.68-0.61-0.74-2.6 0.49-2.7z" fill="#B11D2B" stroke="#231F20" stroke-miterlimit="10" stroke-width=".3"/>
  <path d="m19.52 184 4.09-2.45 4.37 0.29 5.03 3.51-1.8 3.29-4.28 1.13-4.86 0.22-3.16-2.89 0.61-3.1z" fill="#3A53A4" stroke="#231F20" stroke-miterlimit="10" stroke-width=".3"/>
  <path d="m35.12 185.1 2.83-1.32 4.76-0.57 3.46 1.89-0.75 3.79-3.33 0.82-2.3-2.44-0.22 5.25-3.56-0.32-1.67-3.49 0.78-3.61z" fill="#3A53A4" stroke="#231F20" stroke-miterlimit="10" stroke-width=".3"/>
  <path d="m47.33 186.7 3.48-0.32 2.18-1.3 3.5 0.98 2.07 2.24-1.8 2.39-3.94-0.31-4.4-0.46-2.21-1.99 1.12-1.23z" fill="#3A53A4" stroke="#231F20" stroke-miterlimit="10" stroke-width=".3"/>
  <path d="m63.11 190 4.61-0.83 1.09 2.1-3.18 3.79-3.8-0.75-0.61-2.66 1.89-1.65z" fill="#69945A" stroke="#231F20" stroke-miterlimit="10" stroke-width=".3"/>
  <path d="m67.72 182.7 3.16-1.88 1.55 3.5 6.58 6.43 1.31 3.51-2.56 2.39-3.63-1.47-1.8-5.66-7.6 5.52-3.51-0.78 1.3-5.1 5.2-6.46z" fill="#3A53A4" stroke="#231F20" stroke-miterlimit="10" stroke-width=".3"/>
  <path d="m80.24 194.4 4.71-2.25 4.96 0.58-2.9 2.97-6.77-0.17v-1.13z" fill="#69945A" stroke="#231F20" stroke-miterlimit="10" stroke-width=".3"/>
  <path d="m97.04 189.6-3.63 3.79v3.79l6.5-3.79 2.3-2.4-2.56-1.89-2.61 0.5z" fill="#69945A" stroke="#231F20" stroke-miterlimit="10" stroke-width=".3"/>
  <path d="m100.2 193.4 3.97-1.88 3.5 1.32 0.98 2.4-2.21 2.4-5.64-0.32-2.08-2.45 1.48-1.47z" fill="#3A53A4" stroke="#231F20" stroke-miterlimit="10" stroke-width=".3"/>
  <path d="m112.7 184.7 3.46-1.29 2.71 2.32 2.27-1.62 2.83 1.62 4.08 1.04-2.26 4.68-3.36 0.54-3.21-2.89-2.06 3.75-3.63-0.5-2.38-5.1 1.55-2.55z" fill="#3A53A4" stroke="#231F20" stroke-miterlimit="10" stroke-width=".3"/>
  <path d="m132.9 182.7 4.07 0.7 2.94-3.16 3.9 0.58 4.28 3.79-1.18 4.03-3.8 1.24-0.59 3.16-4.07 0.66-6.39-4.46-1.8-4.17 2.64-2.37z" fill="#3A53A4" stroke="#231F20" stroke-miterlimit="10" stroke-width=".3"/>
  <path d="m132.8 192.6 2.63-1.13 1.17 1.88-2.18 1.65-2.18-0.52 0.56-1.88z" fill="#69945A" stroke="#231F20" stroke-miterlimit="10" stroke-width=".3"/>
  <path d="m145.4 190.1 3.46-1 2.55 1.81-1.67 1.47-2.63-0.46-1.71-1.82z" fill="#69945A" stroke="#231F20" stroke-miterlimit="10" stroke-width=".3"/>
  <path d="m151 188.2 2.07-2.27 4.94-2.14 3.55 1.72 2.18-0.45 2.08 4.02 2.27 0.22 0.89 1.75-1.14 2.33-2.83-0.57-2.93-4.75-4.32 3.3-4.52 0.66-2.24-3.82z" fill="#3A53A4" stroke="#231F20" stroke-miterlimit="10" stroke-width=".3"/>
  <path d="m111.1 193.4 5.01-1.21 5.29 2.94 5.03 1.47-0.66-4.09-4.61-2.4-2.76 1.35-3.96 0.83-3.34 1.11z" fill="#69945A" stroke="#231F20" stroke-miterlimit="10" stroke-width=".3"/>
  <path d="m48.36 160 16.55-0.5 33.27 0.13 54.78-0.23v5.71l-6.23 0.97-3.8-1.37-4.63 1.88-5.64-1.48-5.91 1.48-5.5-1.48-6.47 1.56-8.67-0.92-7.4 0.56-26.89-2.1-6.88-0.07-3.72-3.12-12.86 1.08v-2.1z" fill="#595A5C" stroke="#231F20" stroke-miterlimit="10" stroke-width=".3"/>
  <path d="m95.21 2.67 30.77 4.28-0.37 40.46 2.56 0.34-0.98 2.55c-0.74 1.46-1.13 6.89 3.73 7.31l4.2 0.82 0.92 2.18-0.46 4.32-11.5 6.76-0.92 1.62-0.25 6.2 1.17 1.25-2.47 1.06-0.44 2.14 18.58 3.59 2.38 1.99-0.22 5.18 8.7 0.74 0.92 1.63-3.06 5.66 1.56 3.5-2.52 0.92-0.92 0.66-0.25 5.92-1.49 2.06-7.66 0.15 1.03 4.57-4.07 0.67v6.58l-1.34 2.14 0.5 4.68-1.15 12.62 5.03 8.54v3.86l-37.48 2.6-34.08-3v-2.78l-2.38-0.39 0.62-3.04 2.38-7.7-1.98-6-0.15-4.71 0.99-2.25 3.24-1.13v-7.95l-1.54-2.55v-4.43l1.9-1.25 9.88-0.65 1.42-3.79-0.92-3.49-4.76-0.75-0.92-3.26 0.83-3.86 33.17-5.58-5.5-1.48-41.84 7.2-0.44-1.25 2.81-4.02-8-3.95-0.92-2.9 0.44-3.55 10.98-2.6-0.66-6.98 22.7-11.11-0.76-12.72-0.15-45.19 9.14-2.44z" fill="#FEFFFE" stroke="#231F20" stroke-miterlimit="10" stroke-width=".3"/>
  <path d="m86.07 5.22 9.06-2.55 0.08 45.85-9.07 1.53-0.07-44.83z" fill="#F1F2F4" stroke="#231F20" stroke-miterlimit="10" stroke-width=".3"/>
  <path d="m95.13 2.67 30.9 4.12-0.42 40.41-30.48 0.21v-44.74z" fill="#B0BBC4" stroke="#231F20" stroke-miterlimit="10" stroke-width=".3"/>
  <path d="m92.28 48.26 36.05-0.65c-2.27 1.53-3.31 9.02 1.63 10l4.94 0.82c1.31 0.22 1.94 7.25-1.92 8.17l-37.99 0.11-11.45-0.98 5.47-4.02c0.66-0.75 0.17-10.47 1.09-11.66l2.18-1.79z" fill="#E6D8C1" stroke="#231F20" stroke-miterlimit="10" stroke-width=".3"/>
  <path d="m93.95 49.68 33.24-0.82" stroke="#231F20" stroke-miterlimit="10" stroke-width=".3"/>
  <path d="m93.95 51.42 32.58-0.66" stroke="#231F20" stroke-miterlimit="10" stroke-width=".3"/>
  <path d="m93.95 53.31 32.58-0.66" stroke="#231F20" stroke-miterlimit="10" stroke-width=".3"/>
  <path d="m93.51 55.55 41.22 3.26" stroke="#231F20" stroke-miterlimit="10" stroke-width=".3"/>
  <path d="m93.51 59.13 0.99 3.6-2.56 2.89-3.79 0.83h-3.89l2.66-2.14 2.93-3.59 1.57-1.59h2.09z" fill="#B08255" stroke="#231F20" stroke-miterlimit="10" stroke-width=".3"/>
  <path d="m83.46 68.63 39.7 0.49-0.97 9.12-39.71-1.16-0.37-7.37 1.35-1.08z" fill="#786478" stroke="#231F20" stroke-miterlimit="10" stroke-width=".3"/>
  <path d="m83.46 69.55 39.43 0.56" stroke="#231F20" stroke-miterlimit="10" stroke-width=".3"/>
  <path d="m66.15 73.44 13.62-4.68 2.07 0.15-0.59 5.22-2.83 3.66-12.5 1.65 0.23-6z" fill="#945F5C" stroke="#231F20" stroke-miterlimit="10" stroke-width=".3"/>
  <path d="m71.11 72.61 8.58-3.79 2.07 0.16-0.98 5.15-2.63 4.03-7.04 1.35v-6.9z" fill="#B67164" stroke="#231F20" stroke-miterlimit="10" stroke-width=".3"/>
  <path d="m82.11 78.06 56.81 9.85c2.39 0.34 2.76 7.03 0.28 7.69l-58.96-2.99-4.94-2.14-1.24-5.86 2.95-0.51 0.88-5.18 4.22-0.86z" fill="#B3AAAF" stroke="#231F20" stroke-miterlimit="10" stroke-width=".3"/>
  <path d="m53.76 84.23 18.57-3.12 0.75 3.59-1.97 1.96-16.1 3.73-1.57-2.14 0.32-4.02z" fill="#84667A" stroke="#231F20" stroke-miterlimit="10" stroke-width=".3"/>
  <path d="m57.01 83.81 2.18-0.59 0.74 4.69-1.9 0.59-1.02-4.69z" fill="#B67164" stroke="#231F20" stroke-miterlimit="10" stroke-width=".3"/>
  <path d="m61.71 82.83 2.18-0.59 0.59 4.69-1.67 0.59-1.1-4.69z" fill="#B67164" stroke="#231F20" stroke-miterlimit="10" stroke-width=".3"/>
  <path d="m65.61 82.11 1.8-0.5 0.44 4.6-1.25 0.59-0.99-4.69z" fill="#B67164" stroke="#231F20" stroke-miterlimit="10" stroke-width=".3"/>
  <path d="m64.59 90.61 35.72-5.66c2.45 0 2.16 6.66-1.99 7.66l-34.01 4.19c-1.79-0.75-2.18-5.39 0.28-6.19z" fill="#E2DAD0" stroke="#231F20" stroke-miterlimit="10" stroke-width=".3"/>
  <path d="m74.58 99.1 37.35-5.44 37.38 3.1-1.89 3.95 1.89 3.19-36.4-0.94-38.25 4.15c-2.63-0.08-2.55-7.3-0.08-8.01z" fill="#90748F" stroke="#231F20" stroke-miterlimit="10" stroke-width=".3"/>
  <path d="m113.8 95.14 33.88 2.52" stroke="#231F20" stroke-miterlimit="10" stroke-width=".3"/>
  <path d="m114.2 97.13 33.04 2.28" stroke="#231F20" stroke-miterlimit="10" stroke-width=".3"/>
  <path d="m114.7 98.94 32.21 1.88" stroke="#231F20" stroke-miterlimit="10" stroke-width=".3"/>
  <path d="m111.1 93.92c-2.78 1.04-2.5 7.87 0 8.83l4.85 0.86 0.37 6.5-1.55 1.81-7.87 0.49-1.25 0.32-0.25 0.59 0.5 0.92-0.66 2.14-38.27 3.74-0.25-3.79 0.99-1.29 37.48-2.56 0.41-0.56 1.3-0.15 6.66-0.75 2.16-2.07-0.62-5.48-4-9.55z" fill="#FEFFFE" stroke="#231F20" stroke-miterlimit="10" stroke-width=".3"/>
  <path d="m115.8 104.1 29.06 1.19c1.64 0.94 1.74 8.3 0 10.5l-29.77-2.25 0.71-9.44z" fill="#AE7A4A" stroke="#231F20" stroke-miterlimit="10" stroke-width=".3"/>
  <path d="m115.8 106.2 29.62 1.47" stroke="#231F20" stroke-miterlimit="10" stroke-width=".3"/>
  <path d="m115.8 108.5 29.62 1.47" stroke="#231F20" stroke-miterlimit="10" stroke-width=".3"/>
  <path d="m106.9 112.3 30.57 1.81 0.98 6.39-3.73 0.92-28.54-1.81 0.22-5.5 0.5-1.81z" fill="#945F5C" stroke="#231F20" stroke-miterlimit="10" stroke-width=".3"/>
  <path d="m68.35 120.9 35.72-1.62-0.59 9.72-35.13 0.73v-8.83z" fill="#DFD8CC" stroke="#231F20" stroke-miterlimit="10" stroke-width=".3"/>
  <path d="m66.31 132.1 66.67-1.56-0.66 17.19 4.87 7.45v4.46l-37.48 0.49-34.08-2.44c-0.32-2.07-0.22-10.83 1.18-12.15-1.99-2.51-3.79-10.33-0.5-13.44z" fill="#C1B8BF" stroke="#231F20" stroke-miterlimit="10" stroke-width=".3"/>
  <path d="m66.26 132.2 35.82-1.13-0.82 11.79-3.55 4.19 0.22 3.32 2.09 2.63v6.55l-34.31-1.91c-0.4-2.07 0-10.59 1.1-12.08-2.13-2.84-3-10.4-0.55-13.36z" fill="#EBE6DA" stroke="#231F20" stroke-miterlimit="10" stroke-width=".3"/>
  <path d="m103.5 119.8 29.83 0.94-0.17 8.91-29.66-1.3v-8.55z" fill="#A57A89" stroke="#231F20" stroke-miterlimit="10" stroke-width=".3"/>
  <path d="m109.3 9.71 2.6 0.14v5.06l-2.6 0.15v-5.35z" fill="#FEFFFE" stroke="#231F20" stroke-miterlimit="10" stroke-width=".3"/>
  <path d="m101.2 12.61 3.96 2.45-2.26 3.19-2.38-3.62 0.68-2.02z" fill="#FEFFFE" stroke="#231F20" stroke-miterlimit="10" stroke-width=".3"/>
  <path d="m117.5 13.2 1.25 1.47-3.6 4.54-1.17-1.74 3.52-4.27z" fill="#FEFFFE" stroke="#231F20" stroke-miterlimit="10" stroke-width=".3"/>
  <path d="m99.19 18.72 4.25 1.81-0.61 1.22-3.89-2.02 0.25-1.01z" fill="#FEFFFE" stroke="#231F20" stroke-miterlimit="10" stroke-width=".3"/>
  <path d="m97.69 24.79 4.62 0.15v1.99l-4.62 0.08v-2.22z" fill="#FEFFFE" stroke="#231F20" stroke-miterlimit="10" stroke-width=".3"/>
  <path d="m103.8 32.39 3.1 4.62-3.63 3.79-2.18-3.52 2.71-4.89z" fill="#FEFFFE" stroke="#231F20" stroke-miterlimit="10" stroke-width=".3"/>
  <path d="m110.1 36.18 2.63 0.22 0.59 7.22-3.33 0.14 0.11-7.58z" fill="#FEFFFE" stroke="#231F20" stroke-miterlimit="10" stroke-width=".3"/>
  <path d="m115.7 35.73 1.25-0.56 3.34 3.16-0.59 0.92-4-2.99v-0.53z" fill="#FEFFFE" stroke="#231F20" stroke-miterlimit="10" stroke-width=".3"/>
  <path d="m108.2 25.92 12.18-6.78 0.85 0.52-9.44 6.4 8.67 0.93 0.77-0.13v1.88l-1.98 0.22-7.57-2.44c-1.57 2.22-4.42 0.99-3.48-0.6z" fill="#FEFFFE" stroke="#231F20" stroke-miterlimit="10" stroke-width=".3"/>
  <path d="m87.91 10.14 3.73-0.82" stroke="#B3B3B3" stroke-miterlimit="10" stroke-width=".3"/>
  <path d="m87.91 13.63 3.45-0.82" stroke="#B3B3B3" stroke-miterlimit="10" stroke-width=".3"/>
  <path d="m87.51 19.36 3.25-0.42" stroke="#B3B3B3" stroke-miterlimit="10" stroke-width=".3"/>
</svg>