<svg xmlns="http://www.w3.org/2000/svg" width="200" height="200" fill="none" viewBox="0 0 200 200">
<!-- SVG created with Arrow, by QuiverAI (https://quiver.ai) -->
  <path d="m199.6 62.9c-11.47 0.96-21.97-2.09-35.5-9.43-2.86-1.59-4.06-1.91-6.64-1.31-3.47 0.85-9.61 1.59-26.16 1.61-7.01 0.01-7.34 0.18-12.95-2.04l-1.07-0.41-1.03-0.39-2.19 1.76 3.68 1.5c-10.27 2.98-23.26 13.59-32.93 22.56-2.55 2.46-6.35 6.42-8.73 8.74l1.13 1.92 6.72-5.32c-0.65 3.22-1.09 6.6-0.65 8.93 1.45 0.75 2.58-6.61 4.26-10.71 2.39-5.89 19.66-16.5 32.08-20.77 5.63-1.46 14.59-1.41 18.35-0.76 1.68 1.13 3.37 1.46 5.27 0.62 2.56-0.74 11.85-1.19 15.94 0.05 4.04 1.22 13.26 6.14 18.73 7.77-1.46 1.68-4.12 3.14-6.68 4.71l1.13 1.74c4.09-3.66 9.83-4.61 11.84-4.19 4.52 0.99 11.25 3.3 15.46 5.44l-0.06-12.02z" fill="#9A685A" stroke="#000" stroke-miterlimit="10" stroke-width=".25"/>
  <path d="m199.6 65.19c-3.93-0.11-12.73-1.07-16.34-3.16 4.73 0.85 11.69 1.77 16.34 1.13v2.03z" fill="#B2867C"/>
  <path d="m116.2 50.93 0.82-2.9-1.78-1.92-1.32 1.64c-0.85-3.37-1.88-6.79 1.37-11.72-0.71-1.22-1.7-3.43-1.81-5.75-1.44 4.7 0.48 8.96 1.65 13.24-0.99 1.51-1.54 3.2-1.65 4.28-2.08-2.72-6.99-8.84-6.99-10.29l0.38-3.43-1.79-1.13-0.6 3.03 1.28 1.8c1.17 2.15 4.93 8.28 6.11 10.36-4.28-2.89-13.5-6.89-17.59-8.03l-3.08-2.77-1.59 0.7 1.18 2.72 2.61 0.21c4.33 0.74 13.5 4.86 16.54 6.77-5.9-0.33-11.89 1.64-14.51 3.24l-3.24 0.44-0.6 1.64 2.3 1.13 2.2-2.14c1.8-1.74 10.01-3.03 14.53-2.18l0.17 0.49-0.71 1.29 2.85 1.04 3.27-1.76z" fill="#9FBD75" stroke="#456D26" stroke-miterlimit="10" stroke-width=".25"/>
  <path d="m115.6 19.11c-2.34-0.9-3.17 1.29-5.08 2.7-1.59-2.98-2.82-5.6-5.48-5.6-1.14 0-1.79 0.95-2.28 0.41-1.03-0.33-2.94 3.04-2.56 5.07-1.45 0.32-2.79-0.33-4.47-0.11-1.45 0-2.29 1.69-2.13 2.7 0.23 2.31 1.17 4.87 2.57 5.89-1.05 0.12-1.43 0.96-1.05 1.86 3.74 2.72 8.07 2.72 11.92 1.38 1.79 0.75 3.75 0.53 5.55-1.21 2.07-2.46 4.98-8.08 4.98-9.97 0.22-1.51-0.86-2.69-1.97-3.12z" fill="#FEF2F6" stroke="#450000" stroke-miterlimit="10" stroke-width=".2"/>
  <path d="m103.2 25.1 3.09 3.65 1.78-4.03-1.23 4.14 2.08-2.03-1.96 2.26 3.13-1.64-3.36 2.56 0.11 2.02-0.55-1.91-2.56-0.91 2.45 0.44-2.98-3.04 3.26 2.14-3.26-3.65z" fill="#E398A6" stroke="#450000" stroke-miterlimit="10" stroke-width=".1"/>
  <path d="m127.4 26.72c-0.6-1.8-1.94-2.01-2.43-2.12-0.16-0.8-0.87-1.5-2.1-1.28-2.29 0.54-5 1.78-5.75 3.74-1.34-1.13-2.05 1.07-2.05 2.14 0 2.21 1.04 4.35 2.37 5.86l-1.71 1.8 2.03 1.86c2.87 1.13 5.31 2.09 7.97 1.92 1.85-0.11 4.46-1.86 6.25-3.5 0.89-0.79 0.51-1.69 0-2.08 0.5-1.8-0.95-3.14-4.03-3.84 0.7-1.51 0.22-3.15-0.55-4.5z" fill="#FEF2F6" stroke="#450000" stroke-miterlimit="10" stroke-width=".2"/>
  <path d="m117.2 35.25 0.84-0.79 0.84 1.8c2.34 0.33 5.86-1.07 7.82-4-0.84 2.2-3.56 4.82-6.36 5.14l0.05 1.46-2.51-0.55-1.45-1.69 0.77-1.37z" fill="#E398A6" stroke="#450000" stroke-miterlimit="10" stroke-width=".1"/>
  <path d="m85.2 25.59c1.18-0.38 1.61-0.38 2.21 0.22 2.34 2.14 3.78 6.17 3.67 9.34l1.34 3.55-2.72 1.02c-0.99-2.99-2.61-6.8-5.64-7.86-1.24-0.54-2.83-1.34-2.34-2.85-0.11-1.9 2.23-2.8 3.48-1.73v-1.69z" fill="#FEF2F6" stroke="#450000" stroke-miterlimit="10" stroke-width=".2"/>
  <path d="m78.69 35.31c0-1.52 1.23-2.47 2.68-2.36 1.74-0.22 3.09-1.02 4.94-0.33 2.51 1.01 4.01 4.73 4.4 6.19l1.45-0.17-1.24 1.24c-2.21 2.72-5.78 3.85-8.76 3.52-1.96 0.33-3.41 1.23-4.35 2.02-0.38-0.63-0.33-2.14 1.12-3.21-1.34-1.02-1.89-3.1-0.1-4.45-0.5-0.65-0.5-1.55-0.14-2.45z" fill="#FEF2F6" stroke="#450000" stroke-miterlimit="10" stroke-width=".2"/>
  <path d="m79.01 40.81c1.13 1.4 3.04 2.25 4.62 2.03" stroke="#450000" stroke-miterlimit="10" stroke-width=".2"/>
  <path d="m81.03 48.13c0.33-1.29 1.92-1.88 2.76-1.83 2.5-0.17 3.84 0.11 5.42 1.81l3.32 3.21 1.1 1.24-1.44 1.24 1.34 3.37-2.4 2.89-1.68 6.23c-1.13 0.8-2.72 0.16-2.83-0.74l-0.11-2.46c-1.63 0.54-3.88-0.31-4.82-2.56-1.54-0.47-1.27-2.42-0.48-3.22-0.17-2.2 1.52-4.67 4.72-5.25l-0.79-0.75c-2.08-0.49-4.58-1.72-4.11-3.18z" fill="#FEF2F6" stroke="#450000" stroke-miterlimit="10" stroke-width=".2"/>
  <path d="m88.82 52.25 4.38-1.4 0.22 1.84-1.34 1.23 1.54 3.11-1.51-0.38-3.12-3.75-0.17-0.65z" fill="#E398A6" stroke="#450000" stroke-miterlimit="10" stroke-width=".1"/>
  <path d="m92.3 55.47 1.44 2.15c0 2.57-0.43 6.66-2.55 8.97-1.08 0.96-2.1 0.11-2.05-0.48l0.11-3.81" fill="#FEF2F6"/>
  <path d="m92.3 55.47 1.44 2.15c0 2.57-0.43 6.66-2.55 8.97-1.08 0.96-2.1 0.11-2.05-0.48l0.11-3.81" stroke="#450000" stroke-miterlimit="10" stroke-width=".2"/>
  <path d="m41.98 67.1c1.08-0.96 2.87-0.9 4.11 0 1.53 0.96 3.07 3.52 3.81 5.09l2.25 0.59-0.22 2.03-3.08-0.64c-2.76-1.01-4.61-2.03-6.68-4.05-0.98-0.91-1.46-2.04-0.19-3.02z" fill="#FEF2F6" stroke="#450000" stroke-miterlimit="10" stroke-width=".2"/>
  <path d="m60.14 59.31c0.98-0.43 1.14 0.17 1.14 0.87 0.28 2.67-1.17 6.28-3.93 8.54l-2.2 3.31-2.34-0.59-3.8-4.71c-0.85-2.31 0.55-6.6 2.05-6.93 0.65-0.22 1.3 0 1.95 0.54 2.81-1.9 4.49-0.89 5.94 1.78 0.34-0.96 0.28-2.04 1.19-2.81z" fill="#FEF2F6" stroke="#450000" stroke-miterlimit="10" stroke-width=".2"/>
  <path d="m31.18 77.73c0.54-1.58 1.78-1.69 2.26-1.58 1.91-0.54 2.71-0.38 3.75-0.43 0.05-2.08 0.64-5.55 1.99-7 0.54-0.54 1.67-0.49 2.46 0.53 1.45-0.64 3.19-0.53 4.54 0.87 2.01 1.91 2.95 4.9 3.6 6.46l-2.17 6.03-6.9 7.09c-2.86 0.54-7 0.92-9.3-0.65-0.84-0.8-0.62-1.87 0.37-1.98l0.84-0.43c-2.49-2.46-3.43-6.33-2.3-7.45 0.32-0.44 0.37-0.98 0.86-1.46z" fill="#FEF2F6" stroke="#450000" stroke-miterlimit="10" stroke-width=".2"/>
  <path d="m38.74 80.19 3.32 2.03-1.18-3.9 1.96 3.74 1.08-2.03-1.18 2.57 2.51-0.85-2.66 1.97-0.84 1.13-0.23-1.46-3.08-0.44 2.66-0.05-2.36-2.71z" fill="#E398A6" stroke="#450000" stroke-miterlimit="10" stroke-width=".1"/>
  <path d="m31.79 101-4.97-2.84-2.81-2.2-2.66 1.18 0.79 2.08 3.27 1.18 4.8 1.13 1.58-0.53z" fill="#9A685A" stroke="#000" stroke-miterlimit="10" stroke-width=".2"/>
  <path d="m11.81 95.24c0.43-1.34 0.92-3.08 2.1-3.62 1.23-0.38 2.68 0 3.71 0 1.49 0 3.66 0.9 5.06 2.59l0.48 1.69-1.29 1.35-1.45 1.51-3.36 3.37c-2.61-0.11-5.93-1.8-6.42-3.6-0.44-1.17 0.16-2.35 1.17-3.29z" fill="#FEF2F6" stroke="#450000" stroke-miterlimit="10" stroke-width=".2"/>
  <path d="m12.41 94.8c2.18 1.64 4.3 4.11 8.68 3.9l0.93-1.51 1.03-1.07 0.65 0.9-1.45 2.09-1.13 2.72-2.61 0.11" stroke="#450000" stroke-miterlimit="10" stroke-width=".2"/>
  <path d="m5.01 122.8c-0.23-1.79 1.84-4.77 3.75-5.1 3.08-0.43 5.1 0.42 7.17 2l1.79 2.46 3.52 0.96-0.22 2.08-3.93 0.75-2.97 3.47c-2.86 0.96-6.95 1.34-8.4-1.12-1.08-0.64-1.19-2.16-0.24-2.69-0.84-0.54-1.06-1.72-0.47-2.81z" fill="#FEF2F6" stroke="#450000" stroke-miterlimit="10" stroke-width=".2"/>
  <path d="m6.93 123.1c1.49-2.08 4-3.04 7.85-2.93" stroke="#450000" stroke-miterlimit="10" stroke-width=".2"/>
  <path d="m13.96 124 3.13-1.97 1.08 0.8 0.55 1.69-1.4 1.57-3.36-2.09z" fill="#CC6472" stroke="#450000" stroke-miterlimit="10" stroke-width=".1"/>
  <path d="m21.41 123.5 4.91-0.85 7.67-0.9 0.12 1.4-6.85 0.79-5.63 1.64-0.22-2.08z" fill="#9A685A" stroke="#000" stroke-miterlimit="10" stroke-width=".2"/>
  <path d="m33.92 100.1c2.2-0.96 5.57 0.17 6.91 1.86 2.2 2.57 2.36 5.13 2.91 7.97l5.94 3.26-2.29 10.78c-1.73 2.46-5.59 4.92-8.44 4.92-2.8 0-5.14-1.85-5.52-5.16l-7.45-5.54c-1.69-2.57-0.84-7.05 3.54-8.4 1.29-0.69 3.54-0.53 4.62-0.36-2.39-2.09-3.57-6.31-0.22-9.33z" fill="#FEF2F6" stroke="#450000" stroke-miterlimit="10" stroke-width=".2"/>
  <path d="m35.89 113.8 3.31 0.9-1.4-3.7 2.18 3.59 0.22-2.36-0.17 2.62 2.13-1.34-2.25 2.72-0.1 1.46-0.9-1.29-2.98 0.11 2.56-0.8-2.6-1.91z" fill="#E398A6" stroke="#450000" stroke-miterlimit="10" stroke-width=".1"/>
  <path d="m33.74 126.2-11.65 10.15-1.08-1.18-0.93 1.29 2.34 2.72 1.08-2.09 10.42-10.67-0.18-0.22z" fill="#9FBD75" stroke="#456D26" stroke-miterlimit="10" stroke-width=".25"/>
  <path d="m6.14 141.1c0-1.35 1.79-2.97 3.08-3.77-0.49-1.02-1.52-1.61-1.52-2.26 1.03-1.13 4.11-1.29 5.34-1.13 2.35-0.16 4.59 0.8 6.55 2.59l4.03 1.13 0.79 3.6-0.59 5.48-0.9 2.14-2.5 1.29c-1.69 0.65-3.98 1.08-5.02 0.54-0.49 0.64-1.41 0.38-2.2-0.37-1.39-1.29-2.52-3.86-0.56-6.58-2.39 0.11-5-0.48-6.5-2.66z" fill="#FEF2F6" stroke="#450000" stroke-miterlimit="10" stroke-width=".2"/>
  <path d="m11.65 136.1c2.01 0.96 3.09 2.13 3.69 3.09" stroke="#450000" stroke-miterlimit="10" stroke-width=".2"/>
  <path d="m13.72 144.7 2.39 0.38-1.03-1.35 1.74 1.35 0.79-0.8-0.32 1.4 1.68-0.38" stroke="#450000" stroke-miterlimit="10" stroke-width=".1"/>
  <path d="m21.41 135.1 2.51 2.08 0.79 2.62-1.54 3.17-1.76-5.79v-2.08z" fill="#E398A6" stroke="#450000" stroke-miterlimit="10" stroke-width=".1"/>
  <path d="m34.71 128.6-3.53 11.1-3.26 7.53 0.38 2.78 1.63 0.11 2.81-4.29 1.18-8.66 2.12-8.3-1.33-0.27z" fill="#9FBD75" stroke="#456D26" stroke-miterlimit="10" stroke-width=".25"/>
  <path d="m28.03 148.2c0.69-2.2 2.09-3.22 3.12-3.91l1.58-1.63 1.68 1.57 1.24 3.97c0.05 3.61-1.74 7.32-4.77 8.67-1.74-0.22-4.19-2.89-4.03-5.15-0.1-1.64 0.49-2.77 1.18-3.52z" fill="#FEF2F6" stroke="#000" stroke-miterlimit="10" stroke-width=".2"/>
  <path d="m28.35 148.5c0.37 1.8 1.12 4.58 2.36 5.7" stroke="#000" stroke-miterlimit="10" stroke-width=".2"/>
  <path d="m28.35 147.9 2.56-2.88 0.69 2.02 1.45-2.89 1.03 0.96 0.74 2.14-2.3 1.91-1.79 0.85-2.38-2.11z" fill="#CC6472" stroke="#000" stroke-miterlimit="10" stroke-width=".1"/>
  <path d="m50.01 158.4c2.34 2.2 2.94 6.34 1.6 9.66-0.8 1.58-2.3 2.87-3.33 2.43-0.54-0.22-0.87-0.76-1.03-0.76-0.54 0.96-1.08 0.96-1.63 0.37-2.71-2.89-2.02-7.93 2.89-11.97 0.7-0.69 1.02-0.69 1.5 0.27z" fill="#FEF2F6" stroke="#000" stroke-miterlimit="10" stroke-width=".2"/>
  <path d="m29.61 173.6c0.98-0.38 0.55 2.29 0 4.37-1.29 3.92-3.9 5.16-7.47 5.27-1.13 0-1.87-1.02-1.39-1.87-0.84-1.18 0.39-3.74 2.41-5.32 2.01-1.01 4.03-0.63 6.45-2.45z" fill="#FEF2F6" stroke="#000" stroke-miterlimit="10" stroke-width=".2"/>
  <path d="m69.71 149.5c0.54-0.33 0.43 1.25 0.92 2.6 0.69 1.85 4.21 2.65 5.06 5.11 0.22 0.65 0.11 1.45-0.38 1.5 0.79 0.96 0.79 0.42 0.41 0.9-0.9 0.8-2.91 0.69-4.31 0.05-4.19-1.69-4.73-6.63-2.29-10.05 0.23-0.38 0.34-0.33 0.59-0.11z" fill="#FEF2F6" stroke="#000" stroke-miterlimit="10" stroke-width=".2"/>
  <path d="m147 121.2c0.64-0.11 0.64 2.67 0.53 4.52-0.16 4.23-1.9 6.54-6.03 7.5-1.45 0.27-2.24-0.63-1.87-1.76-1.39 0-1.77-0.59-1.39-2.28 1.03-4.08 3.69-5.21 6.5-6.22 1.03-0.43 1.51-1.33 2.26-1.76z" fill="#FEF2F6" stroke="#000" stroke-miterlimit="10" stroke-width=".2"/>
  <path d="m158.7 138.8c0.7-0.27 0.65 0.8 1.78 1.55 1.63 1.24 4.95 1.88 5.38 3.74 0.49 1.74 0.16 2.28-0.63 2.6-3.69 1.24-7.77-1.8-7.39-6.79 0.11-0.7 0.33-1.08 0.86-1.1z" fill="#FEF2F6" stroke="#000" stroke-miterlimit="10" stroke-width=".2"/>
  <path d="m166.2 73.91c1.08-1.8 3.8-2.18 5.03-1.32 1.91 1.23 1.21 4.11 0.08 6.52-0.84 2.03-2.02 0.11-2.02 0.11-0.65-1.29-1.83-2.3-3.37-2.52-0.69-0.6-0.52-1.62 0.28-2.79z" fill="#A8C579" stroke="#456D26" stroke-miterlimit="10" stroke-width=".25"/>
  <path d="m170.3 77.29c-0.11 3.32 2.6 9.94 6.83 13.36l-0.99 1.69c-3.9-3.61-6.88-9.39-7.1-14.19l1.26-0.86z" fill="#9FBD75" stroke="#456D26" stroke-miterlimit="10" stroke-width=".25"/>
  <path d="m192.8 88.67c-0.93-1.4-2.89-1.89-4.86-1.61-2.75-0.11-5.41 1.75-7.09 3.84l-6.1 7.18-2.39 6.62 0.7 2.46 3.32-3.42 1.96 2.31c1.55 1.46 3.57 2.69 5.12 2.21 0.79 0 1.28-1.23 1.28-1.34 1.39 0.43 2.18-0.47 2.67-2.22 0.7-1.51 0.86-3.25 0.86-4.21 2.07 0.43 4.03 0.27 5.57-1.02 0.7-0.54 0.81-1.72-0.09-2.26 1.13-1.29 0.2-4.22-3.32-5.4 0.75-1.18 2.28-2.08 2.37-3.14z" fill="#FEF2F6" stroke="#450000" stroke-miterlimit="10" stroke-width=".2"/>
  <path d="m179.5 94.09 3.8 1.46-0.9-3.16 1.49 3.32 1.79-1.5-1.85 1.91 2.97 0.33-3.47 0.16-0.74 1.52-0.23-1.52-2.86-1.4v-1.12z" fill="#E398A6" stroke="#450000" stroke-miterlimit="10" stroke-width=".1"/>
  <path d="m168.9 76.7c-1.29-0.49-3.25 0.31-4.09 2.52-1.03 2.84-2.67 6.49-1.73 8.75 0.54 1.24 1.78 1.07 2.32-0.06 1.74-2.66 3.54-6.8 3.5-11.21z" fill="#FEF2F6" stroke="#450000" stroke-miterlimit="10" stroke-width=".2"/>
  <path d="m165.5 67.73c-1.34-1.75-2.84-2.65-4.69-2.43-3.08 0.43-4.47 3.95-5.07 5.75-1.79-3.32-3.53-5.93-8.09-5.55-0.84 0.11-1.33 0.96-1.44 0.69-1.23-0.43-2.26 0.87-2.42 2.1-0.79 2.42 0.05 5.63 2.25 7.43-3.08 0.33-6.82 2.74-6.82 6.11 0 2.88 3.08 4.85 5.1 4.74 2.66 0 5.68-1.46 7.37-3.02l1.18 2.72 4.08 1.64c2.51 0.32 5.17-1.76 6.51-4.48 1.29-2.72 2.19-6.42-0.32-7.6l-1.69-0.65c-1.39-0.96-3.69-2.76-4.34-4.33 1.29-1.79 4.11-5.09 6.88-3.34 0.75 0.33 1.23 0.87 1.51 0.22z" fill="#FEF2F6" stroke="#450000" stroke-miterlimit="10" stroke-width=".2"/>
  <path d="m150.7 77.61 4.38-0.32-1.96-3.7 2.56 3.37 1.07-1.35-0.94 1.91 2.66-0.33-2.92 1.34-0.43 1.18-1.23-1.12-2.86 0.22 2.76-0.85-3.09-0.35z" fill="#E398A6" stroke="#450000" stroke-miterlimit="10" stroke-width=".1"/>
  <path d="m165.7 94.75-1.45 1.07-0.49 3.27-2.34 0.96-6.3 0.38-3.99 3.52-1.5 4.6 0.49 1.29 2.97-2.98 2.07 4.75 2.45 2.14 2.02-0.54 4.44-2.88 3.07 3.15 2.02 0.22 1.64-1.07 1.44-3.65-1.29-3.85-4.91-5.03-0.34-5.35z" fill="#FEF2F6" stroke="#450000" stroke-miterlimit="10" stroke-width=".2"/>
  <path d="m161.4 102.7 2.81 0.9-0.93-3.16 1.79 3.04 1.54-0.85-1.29 1.29 2.5 0.59-2.92 0.06-0.84 1.51-0.43-1.34-2.23-2.04z" fill="#E398A6" stroke="#450000" stroke-miterlimit="10" stroke-width=".1"/>
  <path d="m165.5 96.83c-0.43-5.68 0.69-12.38 3.2-18.19l0.59-1.63 0.7 0.28c-2.3 5.82-3.2 11.67-2.77 18.53l-1.72 1.01z" fill="#9FBD75" stroke="#456D26" stroke-miterlimit="10" stroke-width=".25"/>
  <path d="m133 98.86c0.74-2.31 3.5-4.77 5.7-5.25l5.51 0.54 2.45-2.14 2.29 1.85-1.74 3.42 2.81 3.92-0.27 7.59-2.07 1.91-3.03-2.2-2.61 2.83-2.29-1.4-0.84-3.61-0.16-1.13c-2.02 1.02-5.59 1.87-6.67 0.42-1.69-0.7-1.74-2.5-1.42-3.3l2.34-3.45z" fill="#FEF2F6" stroke="#450000" stroke-miterlimit="10" stroke-width=".2"/>
  <path d="m142.7 99.46 2.86 1.35-0.38-3.37 1.34 3.48 1.24-1.13-1.13 1.64 2.02 0.27-2.51 0.65-0.38 1.35-0.94-1.35-2.12-2.89z" fill="#E398A6" stroke="#450000" stroke-miterlimit="10" stroke-width=".1"/>
  <path d="m124.6 75.83c-0.8-1.07-0.8-2.08 0.33-2.19 0.85-0.06 1.69 0.22 2.92-0.32 2.3-0.43 5.16 1.59 6.85 4.42l3.13 4.43 3.26 0.75-0.89 2.02-2.4 0.8-1.08 4.97-1.29-0.38 0.65-4.48-4.18 4.08-2.3 6.78-1.08 0.69c-0.74 0.33-0.85-0.63 0.05-2.09-0.94-0.16-1.37-0.86-0.83-1.82l1.23-3.32c-2.29-0.43-4.36-1.61-5.1-4.02-0.75-0.75-0.53-1.71 0.87-2.25l1.03-1.18c-1.22-1.07-2.35-2.93-2.19-4.39-0.05-0.96 0.7-1.28 1.02-1.32v-1.18z" fill="#FEF2F6" stroke="#450000" stroke-miterlimit="10" stroke-width=".2"/>
  <path d="m134.5 78.71 2.45 2.46 2.13 0.84-0.38 2.31-1.8-0.38-1.79-1.88-0.61-3.35z" fill="#CC6472" stroke="#450000" stroke-miterlimit="10" stroke-width=".1"/>
  <path d="m47.46 84.04 7.45 4.47 1.24 3.55-1.14 0.22-2.07-3.56-5.98-3.09 0.5-1.59z" fill="#9FBD75" stroke="#456D26" stroke-miterlimit="10" stroke-width=".25"/>
  <path d="m51.91 74.76 1.08-1.92 1.97 0.27 0.22 1.65h-3.27z" fill="#CC6472" stroke="#450000" stroke-miterlimit="10" stroke-width=".1"/>
  <path d="m51.73 93.31c1.96-2.08 5.33-1.64 7.02-0.52 2.66 1.64 3.45 4.36 3.45 7.24l3.85 1.07 2.76 2.51 3.11 3.42 0.22 5.91-1.44 4.08-3.58 0.7-5.84-1.91c-0.43 2.94-3.35 6.26-7.03 5.61-2.29-0.43-5.21-4.23-5.04-7.64l-6.09-2.67c-2.4-2.46-2.4-8.4 3.19-10.5l2.76-0.32c-0.22-2.21 0.21-4.93 2.66-6.98z" fill="#FEF2F6" stroke="#450000" stroke-miterlimit="10" stroke-width=".2"/>
  <path d="m54.22 106.1 4.08-0.05-1.24-2.94 1.86 2.67 0.16-2.67 0.16 2.62 2.35-2.02-1.91 2.51 0.9 1.02-1.5-0.44-1.34 2.09 0.49-2.25-4.01-0.54z" fill="#E398A6" stroke="#450000" stroke-miterlimit="10" stroke-width=".1"/>
  <path d="m62.41 67.67c1.34-0.65 2.37 0 2.97 0.7 2.45 1.45 3.34 4.17 3.51 7.01 2.24-2.47 5.16-3.37 8.02-2.41 1.18 0.27 1.67 1.34 1.29 2.04 1.08 0.11 1.14 1.24 0.55 2.98-0.94 2.46-2.39 4.67-4.78 5.91l2.66 2.31 1.54 2.72-1.49 1.8-4.6 1.69-3.94-0.22-4.18 1.69-6.35-3.16-2.45-3.46 0.9-1.46c-3.13-1.07-5.94-5.21-4.91-8.36 0.69-1.97 3.14-2.4 5.11-1.81-0.17-2.94 1.8-6.7 4.36-8.39l1.79 0.42z" fill="#FEF2F6" stroke="#450000" stroke-miterlimit="10" stroke-width=".2"/>
  <path d="m61.11 81.33 3.95 1.18-1.08-4.19 1.91 3.91 0.54-4.52-0.22 4.46 1.74-3.42-1.03 3.87 2.12-1.57-2.29 2.56-0.11 1.3-1.39-1.13-2.76-0.75 2.34-0.22-3.72-1.48z" fill="#E398A6" stroke="#450000" stroke-miterlimit="10" stroke-width=".1"/>
  <path d="m71.36 105.7 6.35-0.27 1.08 0.6-0.54 2.21-3.26-0.65-3.63-1.89z" fill="#CC6472" stroke="#000" stroke-miterlimit="10" stroke-width=".1"/>
  <path d="m77.19 105.1c1.59-2.78 4.51-7.22 7.02-7.91 1.23-0.43 2.52-0.27 3.41 0.53 1.13-1.07 2.26-0.27 2.64 1.18 0.49 1.3-1.42 4.9-3.16 6.36 2.61 0 4.8 1.01 5.12 2.92 0.49 0.96 0.27 1.44-0.58 1.98 0.49 0.97-0.21 1.93-1.55 2.89-1.74 1.23-3.71 1.07-5.45 0.27l1.55 4.37-1.13 3.04-2.02 0.33-3.99-4.29-2.24-5.59 0.38-6.08z" fill="#FEF2F6" stroke="#450000" stroke-miterlimit="10" stroke-width=".2"/>
  <path d="m78.91 106.6 4.38 1.29-0.93-2.46 1.68 2.2 1.64-0.75-1.55 1.12 2.02 0.8-2.5-0.33-1.24 0.8-0.22-1.4-3.28-1.27z" fill="#E398A6" stroke="#450000" stroke-miterlimit="10" stroke-width=".1"/>
  <path d="m52.45 123.9 1.24-3.16 1.02 0.54-1.18 3.86 0.59 2.2-2.01 2.09-1.64-1.12 0.38-2.52 1.6-1.89z" fill="#9A685A" stroke="#000" stroke-miterlimit="10" stroke-width=".2"/>
  <path d="m37.19 135.1c1.84-2.93 4.13-5.34 9.52-5.07 2.71 0.33 4 0.22 5.34 0.87 2.07 0.9 5.09 2.54 7.16 4.95 1.74 1.3 2.34 3.92 1.74 6.96-0.43 1.74-1.93 1.52-2.66 0-1.54 0.85-2.62 0.96-5.28 0.53-1.59 2.62-4.5 3.97-6.52 2.57-0.54 0.75-1.61 0.16-1.99-0.74l-0.7-3.42-2.76-1.13c-2.12 1.02-4.57-0.16-5-2.02-0.59-1.12 0.11-2.52 1.15-3.5z" fill="#FEF2F6" stroke="#450000" stroke-miterlimit="10" stroke-width=".2"/>
  <path d="m45.08 136 4.13 0.22-1.59-2.52 2.19 2.3 0.44-1.97-0.65 2.46 1.85-1.18-1.74 2.14 0.6 0.96-1.4-0.8-3.83-1.61z" fill="#E398A6" stroke="#450000" stroke-miterlimit="10" stroke-width=".1"/>
  <path d="m66.79 126.5 2.3-2.47 3.52-0.8c2.51-1.18 4.53-0.27 5.56 1.02l5.14 3.71 0.32 1.12-4.9 3.06 1.4 4.02-1.54 2.93-2.34 0.43-5.54-3.36-3.07 6.78-2.02-1.74-1.54-3.92 0.38-3.53 2.33-7.25z" fill="#FEF2F6" stroke="#450000" stroke-miterlimit="10" stroke-width=".2"/>
  <path d="m67.48 128.9 3.63 0.28-1.44-1.91 2.07 1.52 0.11-1.52-0.17 1.91 1.54-1.18-1.69 1.85 0.43 1.86-1.24-1.63-3.24-1.18z" fill="#E398A6" stroke="#450000" stroke-miterlimit="10" stroke-width=".1"/>
  <path d="m62.65 116.1 4.69 6.56-1.13 2.52-1.29-1.97-1.13-5.04-1.14-2.07z" fill="#9A685A" stroke="#000" stroke-miterlimit="10" stroke-width=".2"/>
</svg>