<svg xmlns="http://www.w3.org/2000/svg" width="200" height="200" fill="none" viewBox="0 0 200 200">
<!-- SVG created with Arrow, by QuiverAI (https://quiver.ai) -->
  <path d="m77.26 3.06 3.58-0.65c3.23 3.05 8.3 7.72 17.02 10.96 3.85-3.12 8.86-4.28 12.23-4.43 8.16-0.34 16.52 1.56 27.86 6.93 1 0.49 0.62 1.04-1.64 1.66-8.23 2.44-18.93 2.04-29.1-0.41-2.27-0.57-3.33-0.61-4.4-0.75 5.98 3.74 11.6 8.1 19.17 14.19 12.93-2.07 25.15 8.56 33.72 21.84 1.22 1.97 0.52 1.56-1.61 1.12-10.37-2.36-19.25-7.31-25.96-15.54 1.64 4.59 1.85 13.11-2.05 18.06l-4.01 2.07-4.25-2.19c-0.71-3.21-0.04-14.45 3.36-24.7-7.2-7.02-13.02-11.71-19.03-14.86 5.94 5.7 11.04 14.53 14.44 27.27 0.44 1.62-0.38 2.61-1.9 1.49-3.97-2.93-11.67-9.8-15.91-23.64-5.9-5.3-10.76-9.32-12.08-10.51 1.62 5.7-1.58 9.19-9.6 16.3l-11.65 11.12c-0.66 2.27-0.78 4.67-0.19 7.24 4.83 1.51 7.49 4.22 8.09 6.79 0.34 1.39-0.74 1.29-1.74 0.8-2.69-1.32-4.33-3.1-5.39-5.17 0.07 1.24 0.31 2.34 0.8 3.22 3.5 3.56 6.8 6.89 7.84 8.96 0.41 0.8-0.25 0.99-1.05 0.5-3.13-1.95-5.57-5-6.95-7.93-0.06 2.44 0.89 3.47 2.12 5.32 1.81 2.87 3.36 6.94 3.83 11.29 0.1 0.86-0.42 0.81-0.8 0.06-2.11-4.28-3.49-7.36-4.27-12.22-0.7 1.68-1.26 4.56-2.59 7.32-0.38 0.82-0.97 0.33-1.09-0.63-0.61-4.22 0.62-9.03 2.52-11.6l-0.55-3.16c-2.07 3.16-3.22 7.09-6.02 9.16-0.84 0.62-1.3 0.51-1.12-0.98 0.55-4.64 2.09-8.35 5.69-11.41l0.44-6.71c-10.94 10.78-17.73 22.54-17.45 38.19 1.04 16.88 12.62 31.55 32 36.85 6.96 1.58 14.66 1.58 20.83 4.91 3.07-4.75 6.71-8.96 10.24-12.94 0.49-6.54 1.45-11.54 4.38-17.12 0.06-1.91 0.06-3.87 0-5.89l-1.04-1.03 2.07-1.18 0.66 2.19-0.66 3.98c0.9 1.29 4.36 2.69 6.94 1.82 0.73-0.27 1.61-0.81 2.37-1.31l1.46 2.19-2.71 2.93c0.31 2.07 0.9 4.2 2.71 5.99l2.13-0.59 1.32-1.08 0.82-1.39 1.32-5.92 1.56-1.39c2.28 4.49 3.74 7.66 5.87 10.47 3.23 4.3 5.3 7.69 6.46 8.28 1.33 0.71 0.73-6.95-1.08-13.04 4.67 2.72 8.79 5.93 11.13 6.25 1.16 0.17 0.84-1.5-0.64-3.77-3.47-5.17-7.79-8.32-13.7-9.13-2.69-3.06-4.76-6.76-6.83-11.4 4.54 5.55 10.33 8.6 17.11 8.78 1.62 0.06 1.62-0.97 0.33-2.76-4.89-6.86-11.68-10.62-19.31-12.89-3.17-2.13-7.02-5.18-9.15-10.78l-2.34-1.33-2.34 1.79-0.96 5.01-2.51 0.81-3.79-18.73c1.94 1.08 4.21 1.83 6.42 1.83l-0.31-1.19c-2.27-0.11-4.92-1.29-6.62-2.78-0.96-2.44-1.86-5.6-2.83-6.93l0.96 6.76c-0.59 3.39-2.72 7.31-8.69 10.81l-1.68-0.71-1.4-0.18c-2.93-0.29-5.34-0.33-6.86 0.99-2.27 2.07-3.43 5.71-2.1 9.21l1.18 3.39 1.81 1.19-0.89 2.62-5.7-4.3c-1.1-0.71-1.69-0.11-1.8 1.4-0.66 4.69 0.63 8.8 3.63 12.01l-5.61 4.49 0.44 0.81 0.66 0.76 3.36-0.18 2.52 1.45 1.32 2.01 0.6 1.45-1.4-0.81h-4.73c-3.37 0.71-5.18 3.02-5.64 6.23l0.5 0.97 1.15 0.6 4.12 0.59 4.79-1.9 1.62-1.63-1.22 3.65 0.44 2.31 0.96 0.49 2.34-2.31 5.21-3.33-0.66-5.76-2.2-3.86-2.65-3.05-1.1-1.85 2.01-1.96 1.87-2.07-1.68-6.09-0.73-3.05 1.46-5.87 5.42-5.49 1.81-0.71 4.37 0.59 0.73 2.01-0.31 3 1.61 1.57 1.52 3.16 0.66 3.6 0.25 4.06 2.13 2.23 0.66 2.99-0.89 1.52-0.97 0.96c-5.07 6.98-12.21 8.1-17.69 6.71l0.73 1.39c4.95 0.9 11.74 0.41 18.7-2.86l0.9 0.49-2.71 7.17-7.76 6.09 0.24 1.45 1.62 1.27 2.27-1.27 2.76-3.45-1.03 6.21 0.31 3.22-6.24 8.52 3.47 5.01 0.49 1.79-1.39 0.76-3.4-1.51-2.34-1.33-0.34-1.33-2.34-1.03-1.32-0.71c-5.98-2.87-9.95-2.22-16.92-3.5-11.96-2.34-20-7.45-27.38-16.69-2.55 2.87-0.28 5.14 1.05 6.04 2.58 1.79 4.92 4.78 5.51 9.53 0.19 1.27-0.53 1.65-1.93 0.57-2.93-2.13-4.63-4.94-5.7-8.09-0.89 4.95 1.51 6.58 1.01 12.91-0.31 3.11-1.38 6.1-2.34 7.43-0.59 0.77-2.54-5.38-1.7-9.79 0.84-4.4 2.3-8.17 2.36-11.66l-0.96-2.93c-2.87 4.8-5.27 8.51-7.12 10.18-0.96 0.9-0.83-0.38-0.58-2.07 1.22-5.54 4.52-9.62 8.6-10.46-3.4-7.73-4.46-13.76-4.15-22.88 0.59-13.96 7.01-25.84 17.62-36.74l15.5-15.14c4.89-4.45 7.23-8 5.9-14.39l-8.52-6.93v-0.63zm36.85 44.94-0.66-1.96-1.14-1.33 2.59 8.4 1.39 1.63-0.24-4.51-1.94-2.23zm-5.05 1.08-5.6 5.54 3.6 0.24 2-5.78z" fill="url(#paint0_linear_278_1424)"/>
  <path d="m128.6 164.4c-1.87-2.31-2.15-0.12-1.81 3.27 0.19 2.07 1.87 2.97 3.09 4.76 3.3 4.45 9.1 1.74 11.58-3.26 6.17-11.82-3.27-23.88-14.67-33.24l0.25-0.71c11.88 9.89 21.92 22.99 14.89 34.81-3.01 5.12-8.56 6.34-11.39 2.64-0.5-1.33 0.51-4.83-1.94-8.27z" fill="#BFC479"/>
  <path d="m145.8 166.3c2.71 0.86 4.23 0 6.5-1.02 1.16-0.53-0.06-1.23-1.58-1.42-2.58-0.24-3.54 1.13-4.92 2.44z" fill="#BFC479"/>
  <path d="m146.2 167.4c3.09 0.96 4.9 2.81 7.31 4.33 1.22 0.81 0.56 1.2-0.9 0.71-3.3-1.14-4.88-2.72-6.41-5.04z" fill="#BFC479"/>
  <path d="m146.3 167.4c-0.9 0.43-1.02 2.6 0.06 4.91 1.22 2.72 3.17 1.7 2.58-0.7-0.5-2.07-1.17-3.4-2.64-4.21z" fill="#BFC479"/>
  <path d="m145.1 166.2-1.22-0.24v0.65l1.22 0.19v-0.6z" fill="#BFC479"/>
  <path d="m100.1 142.7c-3.1 6.15-5.29 11.34-9.35 16.94l-4.92 9.3-6.79 7.44-1.13 0.71 0.59 0.31 6.73-6.81c-0.49 3.16 0.47 6.37 2.38 9.24l0.73-0.59c-2.16-3.43-2.71-6.36-1.29-10.43l5.88-9.88c2.8-3.98 4.19-8.67 6.88-14.15 3.91 4.13 7.63 11.67 6.9 18.79l0.9-0.18c0.96-7.67-3.16-15.4-7.51-20.69z" fill="#A9B573"/>
  <path d="m80.21 186.5 2.93-1.22 1.81-0.59 2.49-0.24 2.06 1.33-1.45 1.16-3.61-0.24-3.4-1.15-1.13 0.53-0.67 3.86 2.41 5.87-0.6 1.79-1.91-0.49-0.59-2.57 1.07-5.37 0.59-2.67z" fill="#A992CF"/>
  <path d="m78.81 187.9-4.77 6.02-1.39 3.27 1.16 0.9 1.52-1.15 1.13-3.79 2.35-4.62v-0.63z" fill="#A992CF"/>
  <path d="m78.56 184.8-2.41 3.98-2.83 2.5-0.8-1.08 1-1.96 3.3-1.9 1.74-1.54z" fill="#A992CF"/>
  <path d="m81.53 174.2-3.52 3.45-3.85 0.65-3.85 4.12-0.96 1.96 1.13 0.71 2.41-0.71 4.06-5.01 4.58-5.17z" fill="#A992CF"/>
  <path d="m81.59 171.1-3.37-0.76-4.06 0.3-1.68 1.45-0.13 1.57 1.4 0.9 3.46-1.07 4.38-2.39z" fill="#A992CF"/>
  <path d="m81.53 188.3 4.12 1.69 3.6 0.39 1.68 1.45-1.32 1.52-2.2-0.91-4.18-2.78-1.7-1.36z" fill="#A992CF"/>
  <path d="m114 132.2c5.78-0.06 12.93-4.24 13.19 2.24 0.31 5.54-0.07 7.25-1.23 8.77-1.1 1.52-3.93-0.87-6.62-4.03-2.38-2.81-5.55-3.71-5.55-3.71l0.21-3.27z" fill="url(#paint1_linear_278_1424)"/>
  <path d="m114.6 119c3.79 4.08 12.21 6.85 12.6 13.06 0.24 4.08-2.2 7.89-3.78 7.76-2.69-0.18-6.29-4.87-8.35-9.11-1.65-3.64-2.72-7.88-1.26-10.59 0.28-0.59 0.34-1.61 0.79-1.12z" fill="url(#paint2_linear_278_1424)"/>
  <path d="m101.1 139.7c-1.71-2.61-0.06-8.64 3.73-11.35 4-2.82 9.88-1.03 12.37 1.24 3.23 2.93 2.85 8.3 0 9.48-2.49 1.02-5.1-1.18-8.2 0.15-2.51 1.08-5.94 2.98-7.9 0.48z" fill="url(#paint3_linear_278_1424)"/>
  <path d="m100.2 154.2c-1.22-1.08-0.5-1.83 1.7-1.89 3.47-0.11 4.79-1.3 6.79-1 2.62 0.44 4.82 1.52 8.05 0.19 3.13-1.27 4.16 0.58 3.82 3.29-0.32 2.21-2.45 4.22-4.46 4.28-2.13 0.06-6.02-1.33-8.22-2.04-1.94-0.7-6.22-1.29-7.68-2.83z" fill="url(#paint4_linear_278_1424)"/>
  <path d="m107.4 167.8c1.75 4.18 2.35 7.56 1.62 9.63-0.66 1.85-3.96 0.28-5.9-1.17-2.07-1.51-4.34-2.78-4.72-4.51-0.44-1.96 0.95-4.67 2.7-5.05 1.68-0.38 5.45-0.97 6.3 1.1z" fill="url(#paint5_linear_278_1424)"/>
  <path d="m100.1 171.2c-2.99-1.02-3.38-5.04-0.45-10.7 1.39-2.93 2.12-3.89 5.48-3.89 3.6 0 4.19 2.46 2.77 7.57-1.27 4.76-3.85 8.26-7.8 7.02z" fill="url(#paint6_linear_278_1424)"/>
  <path d="m95.46 172.4c3.6-0.71 8.49-0.12 10.07 2.75 1.33 2.63-2.39 6.55-7 6.55-4.35 0-5.48-1.46-5.54-3.77-0.13-2.39 0.25-5 2.47-5.53z" fill="url(#paint7_linear_278_1424)"/>
  <path d="m92.36 178.9c0.9-1.79 1.96-2.23 3.48-1.52 1.68 0.8 2.12 2.32 1.27 4.71-0.66 1.9-2.73 2.98-3.85 2.92-1.62-0.12-2.21-3.69-0.9-6.11z" fill="url(#paint8_linear_278_1424)"/>
  <path d="m110.3 138.2c-2.14 3.7-2.01 6.57-0.33 8.88 1.52 2.23 3.2 3.13 4.78 1.96 2.13-1.58 1.48-4.27-0.37-7.85-1.14-2.4-2.2-4.47-4.08-2.99z" fill="url(#paint9_linear_278_1424)"/>
  <path d="m72.21 145.1c1.46-1.58 3.14-0.35 4.84 2.27 1.52 2.56 3.96 4.79 6.58 5.28l3.99 0.59 1.33 1.96-1.39 3.16-3.37 0.44-3.56-1.63-4.57-1.13-4.95 1.33-1.07-0.86 0.29-1.39 3.66-2.99c-2.93-2.93-3.37-5.16-1.78-7.03z" fill="url(#paint10_linear_278_1424)"/>
  <path d="m74.76 166c-0.73-1.79 0.17-6.54 2.65-8.94 2.41-2.33 6.41 0.17 6.72 1.81 0.34 1.64-2.72 6.21-4.99 7.48-1.58 0.9-3.89 1.14-4.38-0.35z" fill="url(#paint11_linear_278_1424)"/>
  <path d="m80.15 147.7c-2.01-2.07-2.2-5.88-0.39-8.11 2.33-2.87 4.85-1.36 5.95 0 1.38 1.85 1.73 3.56 0.21 6.13-1.07 1.89-4.27 3.28-5.77 1.98z" fill="url(#paint12_linear_278_1424)"/>
  <path d="m83.02 132.1c3.3-3.8 8.38-3.8 12.23-1.4 3.66 2.31 3.66 7.65 1.59 9.99-1.91 2.31-3.85 4.21-8.58 3.5-4.35-0.65-8.05-7.94-5.24-12.09z" fill="url(#paint13_linear_278_1424)"/>
  <path d="m82.77 127.2c1.26-2.07 4.29-5.1 6.52-6.43 2.38-1.37 6.37-2.82 9.57-0.69 3.46 2.32 2.5 6.71-0.33 8.67-2.49 1.69-5.1 1.75-8.5 0.52-2.9-1.08-5.9-0.28-6.92-0.58-0.97-0.28-0.9-0.72-0.34-1.49z" fill="url(#paint14_linear_278_1424)"/>
  <path d="m91.46 116.7c1.62-2.27 3.62-4.4 5.21-4.07 1.75 0.38 3.07 3.43 1.91 6.59-1.13 3.27-2.48 5.5-5.41 5.56-3.36 0.06-4.98-3.63-1.71-8.08z" fill="url(#paint15_linear_278_1424)"/>
  <path d="m91.08 101.2c3.1-4.57 7.66-4.57 11.19-1.85 4.79 3.6 8.58 7.73 7.45 12.13-1.16 4.7-4.66 5.82-7.63 5.33-3.23-0.53-4.63-2.99-7.01-3.17-4.06-0.34-7.95-5.94-4-12.44z" fill="url(#paint16_linear_278_1424)"/>
  <path d="m108.3 98.34c2.58-3.21 5.07-4.6 9.35-4.6 5.11 0 7.6 3.35 7.91 6.16 0.38 3.44-2.24 6.26-5.17 7.65-2.69 1.23-5.18 2.08-8.11 1.17-3.3-1.07-6.99-6.28-3.98-10.38z" fill="url(#paint17_linear_278_1424)"/>
  <path d="m124.8 91.93c2.87-2.87 4.55-4.1 8.28-4.49 3.3-0.38 4.3 1.26 3.33 3.11-1.39 2.76-4.49 5.57-5.28 7.47-1.52 3.6-7.06 4.3-7.65 0-0.5-3.39-0.23-4.4 1.32-6.09z" fill="url(#paint18_linear_278_1424)"/>
  <path d="m125.4 101.8c3.4-0.59 6.7 0.63 8.98 3.39 2.34 2.87 2.84 5.52 1.1 6.85-1.81 1.4-6.5 0.17-8.37-2.65-1.81-2.77-3.13-7.28-1.71-7.59z" fill="url(#paint19_linear_278_1424)"/>
  <path d="m132.9 97.09c3.09-0.75 5.96-0.63 7.09 0.64 1.81 2.13 2.6 4.08 1.54 5.31-1.58 1.9-5.37 1.41-7.64-0.72-2.2-2.07-2.93-4.63-0.99-5.23z" fill="url(#paint20_linear_278_1424)"/>
  <path d="m117.8 108.1c1.62-1.08 4.55 1.42 5.94 3.82 1.16 2.07-0.9 4.69-2.48 4.75-1.75 0.06-4.02-3.33-4.61-5.64-0.5-2.01 0.08-2.34 1.15-2.93z" fill="url(#paint21_linear_278_1424)"/>
  <path d="m117.9 81.09c0.49-2.93 2.5-2.93 3.72-1.25 1.81 2.62 4.58 6.23 4.96 7.96 0.49 2.13-2.09 3.81-4.22 3.22-2.79-0.85-5.14-5.24-4.46-9.93z" fill="url(#paint22_linear_278_1424)"/>
  <path d="m113.2 66.12c3.4-2.5 8.64-2.99 11.74-0.86 3.85 2.62 5.57 7.26 3.99 9.88-1.81 3.16-5.01 3.69-8.21 4.92-3.4 1.33-5.88 2.61-9.28 0.3-4.41-2.93-4.41-7.25 1.76-14.24z" fill="url(#paint23_linear_278_1424)"/>
  <path d="m123.4 47.84c2.73-1.08 7.51-2.1 11.73 0.29 3.6 2.01 4.82 5.22 4.23 6.49-1.06 2.31-3.58 3.54-6.26 3.54-3.73 0-5.73-1.17-8.46-4.66-2.44-3.21-3.41-4.66-1.24-5.66z" fill="url(#paint24_linear_278_1424)"/>
  <path d="m123.8 54.21c2.82-2.21 5.1-0.46 6.56 0.93 3.2 3.02 5.75 0.52 7.43 0.28 2-0.28 2.13 3.53 0.26 6.19-1.94 2.93-4.07 4.32-4.97 6-1.39 2.62-6.8-0.59-8.81-2.6-2.69-2.66-3.82-7.96-0.47-10.8z" fill="url(#paint25_linear_278_1424)"/>
  <path d="m97.12 55.54c1.46 0.18 2.79 1.04 1.82 2.22-1.46 1.85-5.68 3.3-7.42 6.9-0.97 2.17-2.36 2.51-3.01 0.06-0.9-3.5 0.32-6.66 3.15-8.73 1.9-1.37 3.3-0.72 5.46-0.45z" fill="url(#paint26_linear_278_1424)"/>
  <path d="m95.79 59.56c2.38-2.51 4.13-3.1 7.43-3.1 3.59 0 4.49 1.46 4.49 4.39 0 3.98 3.13 4.94 1.38 9.16-1.87 4.95-3.77 5.7-7.47 5.05-2.9-0.54-7.39-1.03-8.18-3.9-0.84-3.22-0.52-8.46 2.35-11.6z" fill="url(#paint27_linear_278_1424)"/>
  <path d="m97.12 74.15c1.22-1.27 3.23-1.04 4.23 0.14 1.39 1.68 1.51 4.67-0.24 7.16-1.26 1.96-4.19 2.3-4.57 1.28-0.89-2.35-0.82-6.82 0.58-8.58z" fill="url(#paint28_linear_278_1424)"/>
  <path d="m85.01 68.06c0.73-1.02 2.05 0.37 3.21 1.5 1.62 1.63 3.89 2.65 5.41 4.88 1.91 2.87 0.52 6.19-2.41 6.47-4.16 0.43-8.11-4.96-7.46-10.07 0.19-1.79 0.5-2.03 1.25-2.78z" fill="url(#paint29_linear_278_1424)"/>
  <path d="m82.21 83.63c1.74-1.02 3.81-1.36 5.4-2.12 1.52-0.76 2.24-1.04 2.24 0.14 0 1.17-2.58 3.24-5.51 3.18-2.38-0.06-3.84-0.18-2.13-1.2z" fill="url(#paint30_linear_278_1424)"/>
  <path d="m80.82 95.16c2.07-1.02 5.43-1.67 7.24-2.85 1.75-1.12 2.61-2.2 3.11-0.87 0.59 1.58-2.34 4.79-5.71 5.23-2.87 0.38-6.45-0.42-4.64-1.51z" fill="url(#paint31_linear_278_1424)"/>
  <defs>
    <linearGradient id="paint0_linear_278_1424" x1="42.19" x2="156.6" y1="2.411" y2="198" gradientUnits="userSpaceOnUse">
      <stop stop-color="#B3B867" offset="0"/>
      <stop stop-color="#D6D59F" offset=".3802"/>
      <stop stop-color="#BFC479" offset=".6406"/>
      <stop stop-color="#99A462" offset="1"/>
    </linearGradient>
    <linearGradient id="paint1_linear_278_1424" x1="120.6" x2="120.6" y1="128.9" y2="143.8" gradientUnits="userSpaceOnUse">
      <stop stop-color="#CCB8EA" offset="0"/>
      <stop stop-color="#7675B6" offset="1"/>
    </linearGradient>
    <linearGradient id="paint2_linear_278_1424" x1="120" x2="120" y1="118.6" y2="139.8" gradientUnits="userSpaceOnUse">
      <stop stop-color="#CCB8EA" offset="0"/>
      <stop stop-color="#7675B6" offset="1"/>
    </linearGradient>
    <linearGradient id="paint3_linear_278_1424" x1="108.7" x2="108.7" y1="126.9" y2="140.7" gradientUnits="userSpaceOnUse">
      <stop stop-color="#CCB8EA" offset="0"/>
      <stop stop-color="#FEFFFE" offset="1"/>
    </linearGradient>
    <linearGradient id="paint4_linear_278_1424" x1="109.9" x2="109.9" y1="151.1" y2="159.1" gradientUnits="userSpaceOnUse">
      <stop stop-color="#CCB8EA" offset="0"/>
      <stop stop-color="#FEFFFE" offset="1"/>
    </linearGradient>
    <linearGradient id="paint5_linear_278_1424" x1="103.4" x2="103.4" y1="166.2" y2="178.1" gradientUnits="userSpaceOnUse">
      <stop stop-color="#7675B6" offset="0"/>
      <stop stop-color="#A992CF" offset="1"/>
    </linearGradient>
    <linearGradient id="paint6_linear_278_1424" x1="103.4" x2="103.4" y1="156.6" y2="171.6" gradientUnits="userSpaceOnUse">
      <stop stop-color="#A992CF" offset="0"/>
      <stop stop-color="#7675B6" offset="1"/>
    </linearGradient>
    <linearGradient id="paint7_linear_278_1424" x1="99.11" x2="99.11" y1="171.9" y2="181.7" gradientUnits="userSpaceOnUse">
      <stop stop-color="#CCB8EA" offset="0"/>
      <stop stop-color="#FEFFFE" offset="1"/>
    </linearGradient>
    <linearGradient id="paint8_linear_278_1424" x1="94.59" x2="94.59" y1="176.9" y2="185.1" gradientUnits="userSpaceOnUse">
      <stop stop-color="#A992CF" offset="0"/>
      <stop stop-color="#7675B6" offset="1"/>
    </linearGradient>
    <linearGradient id="paint9_linear_278_1424" x1="112.9" x2="112.9" y1="137.6" y2="149.7" gradientUnits="userSpaceOnUse">
      <stop stop-color="#A992CF" offset="0"/>
      <stop stop-color="#7675B6" offset="1"/>
    </linearGradient>
    <linearGradient id="paint10_linear_278_1424" x1="79.5" x2="79.5" y1="144.1" y2="158.8" gradientUnits="userSpaceOnUse">
      <stop stop-color="#CCB8EA" offset="0"/>
      <stop stop-color="#7675B6" offset="1"/>
    </linearGradient>
    <linearGradient id="paint11_linear_278_1424" x1="79.34" x2="79.34" y1="155.8" y2="167.2" gradientUnits="userSpaceOnUse">
      <stop stop-color="#A992CF" offset="0"/>
      <stop stop-color="#7675B6" offset="1"/>
    </linearGradient>
    <linearGradient id="paint12_linear_278_1424" x1="82.65" x2="82.65" y1="137.7" y2="148.3" gradientUnits="userSpaceOnUse">
      <stop stop-color="#A992CF" offset="0"/>
      <stop stop-color="#7675B6" offset="1"/>
    </linearGradient>
    <linearGradient id="paint13_linear_278_1424" x1="89.51" x2="89.51" y1="128.9" y2="144.5" gradientUnits="userSpaceOnUse">
      <stop stop-color="#CCB8EA" offset="0"/>
      <stop stop-color="#FEFFFE" offset="1"/>
    </linearGradient>
    <linearGradient id="paint14_linear_278_1424" x1="91" x2="91" y1="118.5" y2="129.6" gradientUnits="userSpaceOnUse">
      <stop stop-color="#A992CF" offset="0"/>
      <stop stop-color="#7675B6" offset="1"/>
    </linearGradient>
    <linearGradient id="paint15_linear_278_1424" x1="94.3" x2="94.3" y1="112.6" y2="124.8" gradientUnits="userSpaceOnUse">
      <stop stop-color="#A992CF" offset="0"/>
      <stop stop-color="#7675B6" offset="1"/>
    </linearGradient>
    <linearGradient id="paint16_linear_278_1424" x1="100.6" x2="100.6" y1="96.4" y2="117" gradientUnits="userSpaceOnUse">
      <stop stop-color="#CCB8EA" offset="0"/>
      <stop stop-color="#FEFFFE" offset="1"/>
    </linearGradient>
    <linearGradient id="paint17_linear_278_1424" x1="116.4" x2="116.4" y1="93.74" y2="109.1" gradientUnits="userSpaceOnUse">
      <stop stop-color="#CCB8EA" offset="0"/>
      <stop stop-color="#FEFFFE" offset="1"/>
    </linearGradient>
    <linearGradient id="paint18_linear_278_1424" x1="130" x2="130" y1="87.34" y2="100.7" gradientUnits="userSpaceOnUse">
      <stop stop-color="#CCB8EA" offset="0"/>
      <stop stop-color="#7675B6" offset="1"/>
    </linearGradient>
    <linearGradient id="paint19_linear_278_1424" x1="129.8" x2="129.8" y1="101.6" y2="112.7" gradientUnits="userSpaceOnUse">
      <stop stop-color="#7675B6" offset="0"/>
      <stop stop-color="#A992CF" offset="1"/>
    </linearGradient>
    <linearGradient id="paint20_linear_278_1424" x1="136.7" x2="136.7" y1="96.65" y2="104.3" gradientUnits="userSpaceOnUse">
      <stop stop-color="#7675B6" offset="0"/>
      <stop stop-color="#A992CF" offset="1"/>
    </linearGradient>
    <linearGradient id="paint21_linear_278_1424" x1="120.1" x2="120.1" y1="107.7" y2="116.7" gradientUnits="userSpaceOnUse">
      <stop stop-color="#A992CF" offset="0"/>
      <stop stop-color="#7675B6" offset="1"/>
    </linearGradient>
    <linearGradient id="paint22_linear_278_1424" x1="122.1" x2="122.1" y1="78.51" y2="91.21" gradientUnits="userSpaceOnUse">
      <stop stop-color="#A992CF" offset="0"/>
      <stop stop-color="#7675B6" offset="1"/>
    </linearGradient>
    <linearGradient id="paint23_linear_278_1424" x1="117.9" x2="117.9" y1="63.74" y2="81.77" gradientUnits="userSpaceOnUse">
      <stop stop-color="#CCB8EA" offset="0"/>
      <stop stop-color="#FEFFFE" offset="1"/>
    </linearGradient>
    <linearGradient id="paint24_linear_278_1424" x1="130.4" x2="130.4" y1="46.46" y2="58.16" gradientUnits="userSpaceOnUse">
      <stop stop-color="#CCB8EA" offset="0"/>
      <stop stop-color="#7675B6" offset="1"/>
    </linearGradient>
    <linearGradient id="paint25_linear_278_1424" x1="130.8" x2="130.8" y1="53.72" y2="68.62" gradientUnits="userSpaceOnUse">
      <stop stop-color="#A992CF" offset="0"/>
      <stop stop-color="#7675B6" offset="1"/>
    </linearGradient>
    <linearGradient id="paint26_linear_278_1424" x1="93.96" x2="93.96" y1="53.79" y2="66.93" gradientUnits="userSpaceOnUse">
      <stop stop-color="#A992CF" offset="0"/>
      <stop stop-color="#7675B6" offset="1"/>
    </linearGradient>
    <linearGradient id="paint27_linear_278_1424" x1="100.7" x2="100.7" y1="56.46" y2="75.52" gradientUnits="userSpaceOnUse">
      <stop stop-color="#CCB8EA" offset="0"/>
      <stop stop-color="#FEFFFE" offset="1"/>
    </linearGradient>
    <linearGradient id="paint28_linear_278_1424" x1="99.32" x2="99.32" y1="73.35" y2="83.28" gradientUnits="userSpaceOnUse">
      <stop stop-color="#A992CF" offset="0"/>
      <stop stop-color="#7675B6" offset="1"/>
    </linearGradient>
    <linearGradient id="paint29_linear_278_1424" x1="89.07" x2="89.07" y1="67.52" y2="80.97" gradientUnits="userSpaceOnUse">
      <stop stop-color="#CCB8EA" offset="0"/>
      <stop stop-color="#7675B6" offset="1"/>
    </linearGradient>
    <linearGradient id="paint30_linear_278_1424" x1="86.09" x2="86.09" y1="81.01" y2="84.86" gradientUnits="userSpaceOnUse">
      <stop stop-color="#A992CF" offset="0"/>
      <stop stop-color="#7675B6" offset="1"/>
    </linearGradient>
    <linearGradient id="paint31_linear_278_1424" x1="85.78" x2="85.78" y1="90.7" y2="96.86" gradientUnits="userSpaceOnUse">
      <stop stop-color="#A992CF" offset="0"/>
      <stop stop-color="#7675B6" offset="1"/>
    </linearGradient>
  </defs>
</svg>