<svg xmlns="http://www.w3.org/2000/svg" width="250" height="250" fill="none" viewBox="0 0 250 250">
<!-- SVG created with Arrow, by QuiverAI (https://quiver.ai) -->
  <path d="m4.58 46.62v4.99c19.91-10.44 45.43-18.7 66.63-22.59-22.04 3.35-47.27 10.07-66.63 17.6z" fill="#D0D9DD"/>
  <path d="m246.1 31.89c-23.47-5.18-52.96-8.98-86.14-8.98-47.26 0-92.4 6.31-127 16.91-10.66 3.37-20.03 7.62-28.34 11.73 31.6-14.27 78.04-23.77 132.7-23.77 37.67 0 76.92 3.28 108.8 10.19v-6.08z" fill="#D0D9DD"/>
  <path d="m246.1 39.91c-23.93-6.03-52.99-9.94-88.17-9.94-70.93 0-121.2 14.12-144.1 23.67 24.72-11.56 62.27-15.01 126.9-13.89-28.82 1.58-90.91 6.37-122.5 30.71-6.17 4.65-10.58 10.21-13.64 15.8v35.24c12.49 26.21 45.93 45.76 85.14 53.81-39.6-10.11-80.77-31.1-80.01-65.3 0.79-35.91 51.68-60.94 119.4-60.94 39.8 0 79.93 4.37 116.9 15.8v-7.68c-11.77-6.06-21.28-8.7-32.3-11 10.91 2.07 22.74 5.19 32.3 9.62v-15.9z" fill="#D0D9DD"/>
  <path d="m246.1 67.43c-19.91-10.54-49.07-16.25-79.22-16.25-67.21 0-116.5 23.01-116.5 55.93 0 12.77 8.3 22.67 23.82 30.95-15.52-6.36-32.09-16.88-32.09-32 0-26.77 34.05-51.15 58.18-53.94-39.71 8.19-70.61 28.49-70.61 55.03 0 31.13 43.05 69.63 141 73.37 29.26 0.55 56.26-3.3 75.34-8.94v1.21c-22.07 6.7-48.22 11.24-78.37 26.39 32.6-0.97 60.11-4.5 78.37-13v-69.44c-10.77 16.57-37.78 26.36-75.5 26.36-43.56 0-80.58-15.18-80.58-39.33 0-21.49 29.17-35.73 74.9-37.37-35.88 2.17-83.89 13.67-91.95 40.51-4.9-29.46 40.3-46.8 94.49-47.63 33.54-0.52 62.09 6.78 78.64 18.34v-10.19z" fill="#D0D9DD"/>
  <path d="m246.1 94.25c-7.25-13.14-25.43-23.1-48.48-26.99 19.05 4.42 39.09 13.81 45.25 28.33 6.17 14.52-8.07 33.2-43.81 38.83-12.09 2.04-19.63 2.6-27.39 2.6-41.18 0-76.88-13.47-79.53-30.21 3.95 18.17 31.34 32.95 78.88 32.95 35.17 0 66.21-10.64 75.08-23.05v-22.46z" fill="#D0D9DD"/>
  <path d="m246.1 140.8c-16.56 8.84-38.79 15.67-70.91 16.92 26.16 1.64 54.09-5.01 70.91-12.72v-4.2z" fill="#91A1A8"/>
  <path d="m246.1 150.5c-18.68 7.72-42.03 14.58-75.84 14.58-67.29 0-112.5-19.49-112.5-57.19 0-26.91 40.88-50.8 113-50.8 26.16 0 56.27 6.91 75.34 17.94v-1.94c-17.98-10.51-44.99-17.51-79.22-17.51-68.96 0-116.7 24.15-116.7 50.85 0 29.43 43.01 62.19 121.1 62.19 30.36 0 55.73-4.8 74.81-10.69v-7.43z" fill="#91A1A8"/>
  <path d="m246.1 160.7c-20.43 6.91-45.7 12.24-91 12.01 23.05 2.76 62.22 0.43 91-8.31v-3.7z" fill="#91A1A8"/>
  <path d="m4.58 141.6v11.85c25.33 24.15 73.31 45.75 163.3 45.75 32.31 0 59.79-3.52 78.18-7.05v-6c-19.08 3.52-41.58 4.68-67.73 3.85-82.25-2.79-141.4-17.32-173.8-48.4z" fill="#91A1A8"/>
  <path d="m4.58 170v8.26c22.04 12.63 70.83 24.36 132.9 28.39-38.8-2.43-96.4-16.55-132.9-36.65z" fill="#91A1A8"/>
  <path d="m4.58 204.1v8.26c19.91 7.76 39.61 10.95 63.57 13.74-23.05-4.8-43.44-12.46-63.57-22z" fill="#91A1A8"/>
  <path d="m246.1 201.2c-18.49 4.69-35.3 6.95-59.26 8.31 17.98-0.23 41.78-2.42 59.26-5.19v-3.12z" fill="#91A1A8"/>
  <path d="m246.1 210.9c-19.08 4.2-45.87 11.91-108 10.75-50.89-1.64-90.23-11.33-120-24.9 36.7 12.41 78.1 19.48 147.1 20.24 35.87 0.23 61.79 3.16 80.92 0.56v-6.65z" fill="#91A1A8"/>
  <path d="m160.4 152.4c-8.3 4.52-50.35 5.62-65.4-14.95 12.67 8.71 27.98 14.58 70.03 18.24l-4.63-3.29z" fill="#E2E8EB"/>
  <path d="m162.8 72.22c-31.65 1.07-59.81 11.87-59.81 30.55 0 15.95 24.66 30.54 67.13 30.54 32.13 0 65.67-15.62 65.67-30.14 0-15.45-23.35-30.95-72.99-30.95zm5.14 54.89c-30.9 0-57.59-11.1-57.59-23.31 0-12.87 18.54-23.97 52.71-25.84 34.44-1.07 63.61 11.8 63.61 25.47 0 11.69-22.29 23.68-58.73 23.68z" fill="url(#paint0_linear_645_182)"/>
  <path d="m167.1 84.92c-20.07 0.53-34.9 8.19-34.9 16.99 0 9.57 15.52 16.25 35.09 15.72 19.3-0.52 36.41-8.78 36.41-15.95 0-7.73-13.97-17.37-36.6-16.76zm1.57 30.67c-17.37 0-31.61-6.47-31.61-14.47 0-9.3 13.21-15.24 31.55-15.24 17.64 0 31.36 6.2 31.36 14.49 0 7.73-13.95 15.22-31.3 15.22z" fill="url(#paint1_linear_645_182)"/>
  <path d="m202.2 78.22c2.71 1.64-7.83 17.03-37.97 26.04 18.81-4 32.76-13.33 37.97-26.04z" fill="#E2E8EB"/>
  <path d="m149.5 105.6c15.52-2.61 39.65-7.91 51-25.12 3.67-4.49 8.81-11.46 9.14-12.6l0.86 0.47c-1.19 3.25-9.19 14.94-18.7 22.67-11.34 8.8-23.57 13.85-42.3 14.58z" fill="url(#paint2_linear_645_182)"/>
  <path d="m150.3 105.5c16.82-5.31 36.39-15.57 46.47-23.3 4.9-2.57 7.6-5.96 9.94-7.57-8.3 11.79-20.84 24.33-38.05 28.82-7.25 2.29-13.42 2.49-18.36 2.05z" fill="url(#paint3_linear_645_182)"/>
  <path d="m226.3 133.9 9.81-1.54 0.49 0.83-10.04 1.31-0.26-0.6z" fill="url(#paint4_linear_645_182)"/>
  <path d="m177 120c4.57 2.8 11.29 3.6 16.99 5.11 9.24 2.64 19.32 3.74 31.86 9.39-8 2.61-30.57 0.77-48.85-14.5z" fill="url(#paint5_linear_645_182)"/>
  <path d="m178 120.6c10.34 6.61 28.41 12.52 46.47 13.86-12.3 1.07-33.25-4.3-46.47-13.86z" fill="url(#paint6_linear_645_182)"/>
  <path d="m91.54 60.08-6.98 4.45 0.2 0.33 3.8-3.75 2.98-1.03z" fill="url(#paint7_linear_645_182)"/>
  <path d="m90.21 60.58c3.7-3.49 9.13-9.53 23.4-10.47 5.4-0.37 10.3 0.37 13.1 0.63-5.4 1.38-9.6 4.14-15.5 5.65-6.5 1.74-14.9 3.12-21 4.19z" fill="url(#paint8_linear_645_182)"/>
  <path d="m91.01 60.38c5.1-3.56 13.8-6.81 23.07-8.16-8.3 0.53-16.57 3.19-23.07 8.16z" fill="url(#paint9_linear_645_182)"/>
  <path d="m88.16 131.6-9.24-6.94 0.4 1.31c5.7 5.93 12.09 8.66 14.19 9.63l-0.43-1.57-4.92-2.43z" fill="url(#paint10_linear_645_182)"/>
  <path d="m91.61 132.8c16.06 1.07 25.06 3.38 35.14 6.31 12.74 3.82 25.82 8.08 40.09 9.39-10.08 4.02-23.12 4.52-34.73 3.76-17.64-1.54-31.88-6.84-40.5-19.46z" fill="url(#paint11_linear_645_182)"/>
  <path d="m93.11 133.8c14.2 7.89 30.62 12.59 58.55 15.13-18.6-1.07-39.55-3.96-58.55-15.13z" fill="url(#paint12_linear_645_182)"/>
  <defs>
    <linearGradient id="paint0_linear_645_182" x1="103" x2="235.8" y1="102.8" y2="102.8" gradientUnits="userSpaceOnUse">
      <stop stop-color="#DCE2E5" offset="0"/>
      <stop stop-color="#95A4AA" offset="1"/>
    </linearGradient>
    <linearGradient id="paint1_linear_645_182" x1="132.2" x2="203.7" y1="101.3" y2="101.3" gradientUnits="userSpaceOnUse">
      <stop stop-color="#B4BFC6" offset="0"/>
      <stop stop-color="#889AA1" offset="1"/>
    </linearGradient>
    <linearGradient id="paint2_linear_645_182" x1="179.8" x2="179.8" y1="67.9" y2="105.6" gradientUnits="userSpaceOnUse">
      <stop stop-color="#69A578" offset="0"/>
      <stop stop-color="#579578" offset="1"/>
    </linearGradient>
    <linearGradient id="paint3_linear_645_182" x1="178.5" x2="178.5" y1="74.62" y2="105.7" gradientUnits="userSpaceOnUse">
      <stop stop-color="#99C997" offset="0"/>
      <stop stop-color="#5B9375" offset="1"/>
    </linearGradient>
    <linearGradient id="paint4_linear_645_182" x1="231.5" x2="231.5" y1="132.4" y2="134.5" gradientUnits="userSpaceOnUse">
      <stop stop-color="#579578" offset="0"/>
      <stop stop-color="#266E5B" offset="1"/>
    </linearGradient>
    <linearGradient id="paint5_linear_645_182" x1="201.4" x2="201.4" y1="120" y2="136.1" gradientUnits="userSpaceOnUse">
      <stop stop-color="#99C997" offset="0"/>
      <stop stop-color="#5B9375" offset="1"/>
    </linearGradient>
    <linearGradient id="paint6_linear_645_182" x1="201.2" x2="201.2" y1="120.5" y2="134.7" gradientUnits="userSpaceOnUse">
      <stop stop-color="#69A578" offset="0"/>
      <stop stop-color="#488266" offset="1"/>
    </linearGradient>
    <linearGradient id="paint7_linear_645_182" x1="88.05" x2="88.05" y1="60.08" y2="64.86" gradientUnits="userSpaceOnUse">
      <stop stop-color="#579578" offset="0"/>
      <stop stop-color="#266E5B" offset="1"/>
    </linearGradient>
    <linearGradient id="paint8_linear_645_182" x1="108.5" x2="108.5" y1="50.01" y2="60.58" gradientUnits="userSpaceOnUse">
      <stop stop-color="#83B885" offset="0"/>
      <stop stop-color="#589678" offset="1"/>
    </linearGradient>
    <linearGradient id="paint9_linear_645_182" x1="102.5" x2="102.5" y1="52.22" y2="60.38" gradientUnits="userSpaceOnUse">
      <stop stop-color="#69A578" offset="0"/>
      <stop stop-color="#488266" offset="1"/>
    </linearGradient>
    <linearGradient id="paint10_linear_645_182" x1="86.22" x2="86.22" y1="124.7" y2="135.6" gradientUnits="userSpaceOnUse">
      <stop stop-color="#488266" offset="0"/>
      <stop stop-color="#286F5C" offset="1"/>
    </linearGradient>
    <linearGradient id="paint11_linear_645_182" x1="129.2" x2="129.2" y1="132.8" y2="152.9" gradientUnits="userSpaceOnUse">
      <stop stop-color="#69A578" offset="0"/>
      <stop stop-color="#99C997" offset="1"/>
    </linearGradient>
    <linearGradient id="paint12_linear_645_182" x1="122.4" x2="122.4" y1="133.8" y2="149.5" gradientUnits="userSpaceOnUse">
      <stop stop-color="#579578" offset="0"/>
      <stop stop-color="#488266" offset="1"/>
    </linearGradient>
  </defs>
</svg>