<svg xmlns="http://www.w3.org/2000/svg" width="200" height="200" fill="none" viewBox="0 0 200 200">
<!-- SVG created with Arrow, by QuiverAI (https://quiver.ai) -->
  <path d="m48.77 69.13 0.15 8.29-0.24 7.6 1.31 27.86c7.38 14.32 27.11 27.09 62.68 27.91 35.56 0.83 62.44-14.77 69.07-26.38l1.74-37.53c1.63-6.15-0.27-12.67-4.11-18.69l-1.52-4.07c-6.73-13.07-25.73-21.81-60.49-22.8-34.76-0.39-63.95 8.73-63.95 27.62-3.53 2.25-4.64 7.45-4.64 10.19z" fill="#D6B68E"/>
  <path d="m53.48 60.07c-1.37 6.56-2.09 12.61 3.16 17.74 7.45 7.33 20.06 14.3 46.28 16.38 26.23 2.07 44.86 0.27 57.74-6.29 12.87-6.56 18-11.49 18.95-22.84-1.71-10.87-5.5-22.95-32.44-29.65-9.94-2.74-14.39-3.27-29.94-3.81-14.05-0.27-33.99 1.81-44.19 7.19-9.67 4.83-17.58 10.06-19.56 21.28z" fill="#CBA882"/>
  <path d="m50.11 66.11-1.4 2.6 0.1 4.05c1.12 7.19 4.38 13.2 14.68 19.35 10.57 6.55 22.49 10.04 37.09 11.3s38.33 1.66 53.59-3.93c13.92-5.53 26.67-14.34 29.21-22.33l0.33-5.75c-0.1-4.33-1.57-8.39-4.67-13.28l0.78 5.5-1.8 10c-2.6 5.68-9.59 11.93-23.13 17.47-11.71 4.63-32 6.16-50.81 3.82s-31.07-6.74-38.97-12.14c-6.69-4.47-11.79-7.31-12.05-11.5l-0.26-7.11 0.39-6.15c-2.18 1.36-2.93 5.15-3.08 8.1z" fill="#CBA882"/>
  <path d="m48.82 91.17 4.09 3.93 7.9 5.64 10.31 4.19 8.84 4.69 13.17 3.19 16.56 3.35 16.07 0.48 17.2-2.59 13.06-2.93 10.83-3.35 10.31-6.01 4.57-4.35-0.35 5.81-4.57 4.69-10.44 6.62-13.18 3.62-17.12 2.51-18.28-0.61-18.72-2.24-12.48-2.41-11.97-3.68-10.76-4.49-9.2-6.42-5.54-5.1-0.3-4.54z" fill="#D6B68E"/>
  <path d="m50.06 106.7 2.35 6.42 5.37 6.62 6.92 6.29 8.44 4.7 12.12 5.2 9.35 2.9 6.2 0.82 14.12 0.21 12.8-1.03 11.72-2.9 11.59-4.86 11.94-6.62 9.73-7.02 8.01-5-0.23 4.52-7.84 7.77-12.6 8.84-13.35 5.95-13.51 0.76-16.56 0.37-16.2-0.86-14.52-2.14-13.23-4.7-11.52-5.81-8.87-8.62-2.23-5.18v-6.63z" fill="#D6B68E"/>
  <path d="m100.7 53.92c0.39-8.84 8.83-18.71 20.75-18.84l6.79 0.13c10.7 1.75 19.53 9.8 20.06 18.71l-0.53 14.19c-1.04 8-10.64 14.63-20.84 13.95-10.93-0.74-25.79-7.09-26.23-16.97v-11.17z" fill="url(#paint0_linear_1132_8106)"/>
  <path d="m60.58 66.72c0-9.48 5.73-21.81 17.28-22.01 11.25-0.27 17.98 3.65 24.17 9.8l1.8 12.15c-0.68 7.6-11.74 14.22-21.87 14.15-8.25-0.06-18.84-6.55-20.82-11.79l-0.56-2.3z" fill="url(#paint1_linear_1132_8106)"/>
  <path d="m83.48 84.06c0.75-7.99 8.53-14.01 18.73-14.55 12.55-0.6 25.16 3.52 29.61 14.55l0.39 5.88c-9.1 0.88-20.03 0.89-29.74-0.34-8.44-1.09-14.76-2.77-18.99-5.54z" fill="url(#paint2_linear_1132_8106)"/>
  <path d="m125.8 67.07c2.87-8.25 11.7-13.15 22.9-13.75 13.31 0.6 24.37 4.89 26.71 17.61l-0.38 2.28c-6.73 7.46-19.21 14.08-40.92 15.58l-8.7-13.67 0.39-8.05z" fill="url(#paint3_linear_1132_8106)"/>
  <path d="m110 45.11-1.31 1.31c-0.54 0.81 0 1.75 0.75 1.48s1.76-1.75 1.37-2.59c-0.26-0.6-0.81-0.2-0.81-0.2z" fill="#E5D1B3"/>
  <path d="m110 48.31-1.31 0.94c-0.54 0.47-0.13 1.48 0.62 1.21s1.5-1.21 1.36-1.75c-0.13-0.54-0.67-0.4-0.67-0.4z" fill="#E5D1B3"/>
  <path d="m136.1 45.91c-0.13-0.9 1.52-1.3 2.05-0.5 0.53 0.81 0 1.75 0 2.16 0 0.4 0.66 1.14 0 1.75-0.88 0.8-1.48-0.14-1.68-0.61s-1.45 0-1.45-1.21c0-1.08 1.21-0.61 1.08-1.59z" fill="#F4D76E"/>
  <path d="m111.1 53.92c1.18-0.2 1.71 0.94 1.25 1.88s1.12 1.61 0.26 2.41c-0.86 0.81-1.9 0.27-2.36-0.13s-2.07 0.74-1.87-0.94c0.13-1.07 1.28-1.14 1.15-1.88-0.14-0.74-0.2-1.68 0.78-1.94 0.72-0.21 0.79 0.6 0.79 0.6z" fill="#F4D76E"/>
  <path d="m75.07 55.73c0.65-1.01 2.26-1.61 2.92-1.01 0.86 0.74 0.4 2.15-0.07 2.96-0.46 0.8 1.72 0.6 1.46 1.74-0.33 1.35-2.05 1.01-2.84 0.07-0.66-0.74-1.25 0.4-2.14 0.54-0.95 0.13-0.95-1.61 0.46-2.22 0.95-0.47-0.33-1.27 0.21-2.08z" fill="#F4D76E"/>
  <path d="m90.13 60.16c0.46-1.14 2.18-0.74 2.38 0.67s0.95 0.88 0.95 1.95c0 0.91-1.21 0.54-1.68 1.51-0.59 1.34-2.04 2.15-3.32 1.41-1.41-0.81-1.88-0.74-1.75-1.68s1.94-1.24 2.47-1.31c0.53-0.06 0.26-1.07 0-1.81s0.42-1.68 0.95-0.74z" fill="#F4D76E"/>
  <path d="m137.5 65.83c0.62-1.34 1.74-1.07 2.13-0.33 0.59 1.14-0.52 1.61-0.85 2.01s-0.07 1.34-1.41 1.41c-1.05 0.06-1.24-0.81-1.7-0.54-0.89 0.47-0.62-1.07-0.07-1.61 0.66-0.67 1.11-2.21 1.9-0.94z" fill="#F4D76E"/>
  <path d="m132.3 79.74c0.33-1.41 0.99-1.41 1.64-1.01 0.8 0.53 0.2 1.68 0.14 2.15-0.07 0.47 0.85 0.88 0.19 1.75-0.85 1.14-1.84-0.07-2.3 0s-1.51 1.01-1.9 0.07c-0.4-0.94 0.78-2.02 1.18-2.29 0.39-0.27 0.85 0 1.05-0.67z" fill="#F4D76E"/>
  <path d="m92.97 75.74-0.72 0.67c-0.33 0.34 0.06 1.51 0.59 1.25 0.53-0.27 0.86-1.31 0.73-1.72-0.14-0.4-0.6-0.2-0.6-0.2z" fill="#E5D1B3"/>
  <path d="m100.6 75.06c1.11-0.4 2.29 0.61 2.23 1.75-0.07 0.94 1.18 0.61 0.78 1.75-0.45 1.28-1.44 0.6-2.23 0.8-0.65 0.17-1.05 0.78-2.42 0.17-1.25-0.6-0.79-1.91 0.2-2.25 0.98-0.33 0.91-0.2 0.71-1.14-0.19-0.94 0-0.87 0.73-1.08z" fill="#F4D76E"/>
  <path d="m67.71 55.73-0.26 0.94c-0.2 0.54 0.46 0.74 0.98 0.33 0.53-0.4 0.53-1.14 0.27-1.47-0.27-0.34-0.99 0.2-0.99 0.2z" fill="#E5D1B3"/>
  <path d="m67.91 58.42 0.59-0.41 0.86 0.41 0.65 1v0.94l-1.11 0.27-0.99-0.67v-1.54z" fill="#E5D1B3"/>
  <path d="m132.4 64.96 1.18-1.2c0.59-0.54 1.25 0.2 0.79 1-0.46 0.81-1.05 1.41-1.58 1.14-0.66-0.33-0.39-0.94-0.39-0.94z" fill="#E5D1B3"/>
  <path d="m131.2 68.11 0.66-0.2 0.72 0.4-0.26 1.01-1.12 0.2-0.65-0.67 0.65-0.74z" fill="#E5D1B3"/>
  <path d="m0.63 145.9c3.88 6.69 10.03 11.35 19.5 12.9 0.06 1.34 0.66 2.15 2.03 2.28 4.45 0.54 10.05 0.74 18.44 0 2.11-0.2 3-1.07 3.06-2.55 8.7-1.28 14.3-6.14 17.56-14.33l-1.87-14.46-7.32-5.1-5.43-8.84-11.39-4.56-9.13 0.27-8.96 4.56-6.49 7.63-7.39 4.49-3.24 4.26 0.63 13.45z" fill="#CFDFDF"/>
  <path d="m4.72 142.1c0.53 4.93 4.59 8.99 20.59 9.94 14.83 0.47 23.9-1.87 28.13-4.54 3.82-2.34 6.48-6.46 6.75-9.81l-0.13-2.68-1.05-2.41 1.11 4.83-3.06 6.49-6.07 5.1-12.68 2.41-14.38-0.54-12.87-2.38-5.94-4.93-0.4-1.48z" fill="#B8C6B8"/>
  <path d="m6.63 139.7c-0.26-5.89 1.29-12.78 5.58-18.22 4.6-5.47 10.03-10.44 19.16-10.58 8.77-0.13 18.34 5.31 20.81 9.04 3.07 4.42 2.09 13.2 1.76 20.03-0.33 4.62-5.2 7.8-13.8 8.81-6.49 0.67-11.92 0.61-19.5-0.2-5.5-0.54-10.5-4.53-14.01-8.88z" fill="url(#paint4_linear_1132_8106)"/>
  <path d="m13.71 135.4c0.13-4.5 3.52-15.01 14.45-17.42 9.5-1.74 15.69 2.01 18.49 7.25 2.11 4.19 3.39 11.05 1.52 14.46-1.52 3.06-5.81 3.94-10.65 4.07-4.7 0.14-6.81 1.08-12.87-0.13-5.93-1.28-11.07-2.89-10.94-8.23z" fill="url(#paint5_linear_1132_8106)"/>
  <path d="m16.12 102.2c1.11-0.94 1.84-0.54 2.03 0.87 0.2 1.41 0 2.21 0.4 2.28 1.11 0.13 0.78 0.74 0.13 1.41-0.86 0.94-1.84 1.47-2.43 0.94-0.66-0.61 0.2-1.88-0.66-2.02-0.98-0.2-3.38-2.88-1.48-3.55 1.09-0.4 1.35 0.54 2.01 0.07z" fill="#F1DA81"/>
  <path d="m63.89 156.1c-0.2-1.27 0.79-1.07 1.31-0.8 0.66 0.34 0.53 1.21 1.25 1.41 1.52 0.4 0.99 2.01-0.26 2.08-1.11 0.07-0.85 1.07-2.03 1.28-1.41 0.26-1.81-0.88-1.55-1.82 0.2-0.74-1.45-0.67-1.25-1.74 0.26-1.28 1.98-1.41 2.53-0.41z" fill="#F1DA81"/>
  <path d="m67.02 144.8c0.26-1.01 0.72-1.41 1.71-1.08 0.98 0.34 0.59 1.55 0.98 1.75 0.8 0.4 1.65 0.27 1.39 1.61-0.33 1.48-1.78 1.14-2.24 1.27-0.66 0.21-1.12 0.88-2.24 0.21-1.08-0.74-0.43-1.75 0.33-2.28 0.59-0.41-0.13-0.74 0.07-1.48z" fill="#F1DA81"/>
  <path d="m110.1 159c-0.86-1.21-0.86-0.67-0.86-0.07-0.19 1.41 0.53 1.81 0.4 2.69-0.26 1.68 1.25 2.95 2.3 2.08 1.19-1.01 2.43 0.87 3.68 0.07 1.04-0.74 0.12-2.75-1.66-2.75-1.32 0-0.79-0.61-0.33-1.41 0.53-1.01-1.55-1.55-2.28-1.01-0.72 0.54-0.79 0.94-1.25 0.4z" fill="#F1DA81"/>
  <path d="m172.2 159c-1.05 1.75 0.47 4.43 2.51 4.3 1.95-0.14 0.43 0 0 0 1.88-0.27 0.43-2.89 0-3.96-0.59-1.28-2.04-1.14-2.51-0.34z" fill="#F0D027" stroke="#F0D027" stroke-miterlimit="10" stroke-width=".75"/>
  <path d="m152.9 154.6c-1.05-1.01-1.58-1.61-0.59-1.14 1.25 0.6 2.04 2.28 2.89 2.82 1.58 1 2.05 2.28 0.86 2.41-1.71 0.2-1.84-1-2.66 0.07-0.99 1.28-1.65 0.47-1.25-0.6 0.39-1.08 2.07-2.08 0.75-3.56z" fill="#F1DA81" stroke="#F1DA81" stroke-miterlimit="10" stroke-width=".75"/>
  <path d="m143.6 162.5c-0.2-1.41 1.51-1.14 1.84-0.2s1.71-0.27 2.1 0.87c0.4 1.21-0.92 2.15-0.98 3.09-0.13 1.34-1.91 1.41-2.44 0.07-0.52-1.28-1.97 0.2-2.37-0.47-0.95-1.55 0.86-2.75 1.85-3.36z" fill="#E7C520" stroke="#E7C520" stroke-miterlimit="10" stroke-width=".75"/>
  <path d="m153.2 165.2c0.66-0.74 1.64 0.27 1.64 0.67 0 0.41-1.64 0.61-1.97 1.48-0.26 0.74-0.46 1.01-1.05 0.67-0.59-0.33 0.26-0.87 0-1.54-0.33-0.87 0.33-1.41 1.38-1.28z" fill="#E7C520" stroke="#E7C520" stroke-miterlimit="10" stroke-width=".75"/>
  <path d="m134.9 161.8c0.62-8.82 6.12-19.04 13.14-23.02l9.8 10.23c3.89 0.67 4.35 2.48 0.79 1.41-3.57-1.08-10.23-1.82-13.46-2.09s-6.23-3.29-6.88-8.45c-0.53-4.06-3.39-7.78-8.06-8.12-3.23-0.2-3.63 1.98-1.62 4.66 2.47 3.41 3.65 9.97 7.7 11.51" stroke="#597E57" stroke-miterlimit="10" stroke-width=".5"/>
  <path d="m139.9 134c1.18-1.61 2.69-1 2.76 0.34 0.07 1.41-1.91 2.02-2.5 1.28-0.72-0.87-0.85-0.81-0.26-1.62z" fill="#D59529" stroke="#E7C520" stroke-miterlimit="10" stroke-width=".75"/>
  <path d="m135.1 127.3c1.05-1.14 2.63 0 2.5 1.48-0.13 1.47-1.58 1.74-2.37 1-0.92-0.87-0.99-1.54-0.13-2.48z" fill="#E7C520" stroke="#E7C520" stroke-miterlimit="10" stroke-width=".75"/>
  <path d="m142.8 123.8c1.12-1.14 2.64-0.14 2.44 1.34s-1.32 1.88-2.24 1.21c-1.05-0.81-0.98-1.75-0.2-2.55z" fill="#E7C520" stroke="#E7C520" stroke-miterlimit="10" stroke-width=".75"/>
  <path d="m145.3 118.9c1.12-1 1.78 0.13 1.45 1.21-0.4 1.27-1.65 1.07-1.98 0.2-0.26-0.81-0.07-0.94 0.53-1.41z" fill="#E7C520" stroke="#E7C520" stroke-miterlimit="10" stroke-width=".75"/>
  <path d="m151 120.7c0.66-1.54 2.01-1.41 2.47-0.47 0.59 1.21 0.99 0.81 1.51 1.81 0.59 1.14-0.92 2.15-1.91 1.75-0.98-0.41-1.11 1-2.36 0.4-1.25-0.67-0.53-2.21 0.29-3.49z" fill="#E7C520" stroke="#E7C520" stroke-miterlimit="10" stroke-width=".75"/>
  <path d="m157.7 122.2c0.79-1.68 2.04-1.61 2.43-0.61 0.46 1.21 0.66 0.81 1.19 1.48 0.79 1-0.93 2.01-2.04 1.54-1.12-0.47-1.58 0-2.11-0.8-0.59-0.94 0.07-0.74 0.53-1.61z" fill="#E7C520" stroke="#E7C520" stroke-miterlimit="10" stroke-width=".75"/>
  <path d="m161.8 116.7c0.92-1.48 1.91-1.08 2.3-0.21 0.53 1.21 1.12-1.13 2.3-0.4 1.29 0.81 0.63 2.82-0.59 3.62-1.11 0.81-1.11 1.61-2.5 1.01-1.71-0.8-2.57-2.28-1.51-4.02z" fill="#E7C520" stroke="#E7C520" stroke-miterlimit="10" stroke-width=".75"/>
  <path d="m167.1 123.1c1.31-1.81 2.5-1.41 3.02-0.47 0.79 1.41 0 2.75-1.31 3.55-1.12 0.67-1.51 1.48-2.6 0.84-1.51-0.94-0.66-2.18 0.89-3.92z" fill="#E7C520" stroke="#E7C520" stroke-miterlimit="10" stroke-width=".75"/>
  <path d="m158.9 129.6c0.85-1.41 1.84-1.21 2.43-0.4 0.86 1.2-0.13 2.41-1.32 2.94-1.31 0.6-1.71 1.21-2.43 0.27-0.86-1.07 0.53-1.81 1.32-2.81z" fill="#E7C520" stroke="#E7C520" stroke-miterlimit="10" stroke-width=".75"/>
  <path d="m157.3 135.7c0.86-1.41 1.84-1.21 2.43-0.4 0.86 1.21 0.14 2.35-0.98 2.95-1.32 0.8-1.58 0.4-2.3-0.4-0.79-0.94-0.07-1.14 0.85-2.15z" fill="#E7C520" stroke="#E7C520" stroke-miterlimit="10" stroke-width=".75"/>
  <path d="m159.8 139.7c0.85-1 1.71-0.47 1.71 0.47 0 1.01-0.86 1.48-1.65 1.01-0.85-0.54-0.58-0.94-0.06-1.48z" fill="#E7C520" stroke="#E7C520" stroke-miterlimit="10" stroke-width=".75"/>
  <path d="m161.4 143.9c1.25-0.68 1.65 0.53 1.05 1.27-0.72 0.87-1.84 0.54-2.24-0.27-0.46-0.87 0.2-1.54 1.19-1z" fill="#E7C520" stroke="#E7C520" stroke-miterlimit="10" stroke-width=".75"/>
  <path d="m165.6 135.2c0.92-1.14 2.17-0.53 2.11 0.47-0.13 1.34-1.45 1.61-2.17 1.01-0.79-0.67-0.46-0.94 0.06-1.48z" fill="#D59529" stroke="#E7C520" stroke-miterlimit="10" stroke-width=".75"/>
  <path d="m151 128.8c0.79-0.87 1.38-0.33 1.32 0.47-0.13 1.01-1.18 1.14-1.71 0.54s0-0.6 0.39-1.01z" fill="#D59529" stroke="#E7C520" stroke-miterlimit="10" stroke-width=".75"/>
  <path d="m149.9 135.3c0.79-0.87 1.71-0.2 1.38 0.74-0.39 1.07-1.51 0.94-1.84 0.27-0.33-0.74 0.07-0.61 0.46-1.01z" fill="#D59529" stroke="#E7C520" stroke-miterlimit="10" stroke-width=".75"/>
  <path d="m147.6 142.1c1.52-1.68 2.87-0.94 3.07 0.2 0.26 1.41-0.6 1.95-1.94 1.48-1.39-0.54-1.98-0.34-2.11-1.28-0.2-1.14 0.46-0.94 0.98-0.4z" fill="#E7C520" stroke="#E7C520" stroke-miterlimit="10" stroke-width=".75"/>
  <path d="m166.6 141.5c0.85-0.81 1.38-0.34 1.05 0.26-0.39 0.74-1.19 0.54-1.38 0.14-0.2-0.4 0.33-0.4 0.33-0.4z" fill="#E7C520" stroke="#E7C520" stroke-miterlimit="10" stroke-width=".75"/>
  <path d="m137 117.9 18.36-3.25-0.26-7.55 0.79 7.62 6.6-0.61-1.35-14.92 1.48 9.72 4.54-2.61-0.27 3.15 7.19-4.43-2.41-0.87 6.1-4.56 3.82-5" stroke="#CBA882" stroke-miterlimit="10" stroke-width=".5"/>
  <path d="m167.7 129.4 8.97-0.27 4.15-6.94 4.47-3.29-4.34-1.94 4.87-1.78 3.29-2.48c1.52 1.07-0.39 4.39-2.96 6.8l6.95-2.74-1.32 3.01-7.9 4.3-3.59 5 6.99 3.01 2.14-6.54 3.29-0.47-1.72 2.92 6.89-1.51c1.12 1.38-1.85 3.39-6.69 4.93l6.89 3.28-2.28 1.54-4.74-0.73 6.23 4.86-3.66 0.53 2.53 8.19c-1.05 1.01-3.85-4.82-6.12-10.77l-0.93 10.98-1.97-7.22-3.56 9.1 0.3-12.99-2.99 1.67-5.2 10.11-0.98-10.98-4.61-2.41 5.79-5.43-5.66-0.67-2.53-1.07z" fill="#416446" stroke="#416446" stroke-miterlimit="10" stroke-width=".5"/>
  <path d="m182 133 5.8 4.03-3.33-0.34 2.34 5.3" stroke="#416446" stroke-miterlimit="10" stroke-width=".75"/>
  <path d="m186.6 134.1 6.1-1.07" stroke="#416446" stroke-miterlimit="10" stroke-width="1.5"/>
  <path d="m147.3 126.3-1.48 4.83" stroke="#597E57" stroke-miterlimit="10" stroke-width=".75"/>
  <path d="m137.6 137.6 0.52 0.41" stroke="#E7C520" stroke-miterlimit="10" stroke-width="1.5"/>
  <path d="m13.09 124.1 1.65-2.11 1.38-1.88c0.95-0.47 1.48 0.33 0.89 1.88l-1.81 2.91-1.29 0.94-0.82-1.74z" fill="#E2D3B8"/>
  <defs>
    <linearGradient id="paint0_linear_1132_8106" x1="124.5" x2="124.5" y1="35.01" y2="82.14" gradientUnits="userSpaceOnUse">
      <stop stop-color="#75996E" offset="0"/>
      <stop stop-color="#527A52" offset="1"/>
    </linearGradient>
    <linearGradient id="paint1_linear_1132_8106" x1="81.96" x2="81.96" y1="44.67" y2="80.87" gradientUnits="userSpaceOnUse">
      <stop stop-color="#75996E" offset="0"/>
      <stop stop-color="#527A52" offset="1"/>
    </linearGradient>
    <linearGradient id="paint2_linear_1132_8106" x1="107.9" x2="107.9" y1="69.37" y2="90.1" gradientUnits="userSpaceOnUse">
      <stop stop-color="#75996E" offset="0"/>
      <stop stop-color="#436B43" offset="1"/>
    </linearGradient>
    <linearGradient id="paint3_linear_1132_8106" x1="150.6" x2="150.6" y1="53.26" y2="89.11" gradientUnits="userSpaceOnUse">
      <stop stop-color="#75996E" offset="0"/>
      <stop stop-color="#527A52" offset="1"/>
    </linearGradient>
    <linearGradient id="paint4_linear_1132_8106" x1="30.76" x2="30.76" y1="110.9" y2="149.3" gradientUnits="userSpaceOnUse">
      <stop stop-color="#80A063" offset="0"/>
      <stop stop-color="#708957" offset="1"/>
    </linearGradient>
    <linearGradient id="paint5_linear_1132_8106" x1="29.95" x2="29.95" y1="117.4" y2="144.3" gradientUnits="userSpaceOnUse">
      <stop stop-color="#663210" offset="0"/>
      <stop stop-color="#493121" offset="1"/>
    </linearGradient>
  </defs>
</svg>