<svg xmlns="http://www.w3.org/2000/svg" width="178" height="178" viewBox="0 0 178 178">
<!-- SVG created with Arrow, by QuiverAI (https://quiver.ai) -->
  <path d="m100.1 1.95 0.33-0.95 0.7 0.24 0.28 0.9 1.43-0.33 1.42 0.98 0.43 2.34 1.28-0.99 1.28 0.75 2.54 1.71c1.43 0.8 1.48 1.46 1.1 2.93-0.43 1.57 0.71 2.47 1.28 3.27 0.24 0.33-2 2.23-3.28 2.98-1.43 0.89-1.62 1.27-1.62 2.59 0 0.76 0.47 0.57 2.04 0.85 1.09 0.19 2.24 1.27 3.28 1.74 1.81 0.81 3.33 1.9 2.1 3.74-0.48 0.71-1.09 1.89 0.38 1.65 2.24-0.38 3.77-1.65 6.2-1.65 3.23 0 4.6 1.08 7.69 2.31 1.95 0.8 2.09 1.7 1.2 2.4-1.57 1.32-5.09 1.04-8.46 1.42-4.15 0.43-6.54 1.13-8.16 2.89 1.38 2.24 2.37 6.05 3.17 14.29 0.61 6.47 1.22 9.94-0.06 13.02-0.99 2.59-1.56 4.68-4.65 6.48-2 1.14-2.84 1.14-3.5-0.29-1.04-1.99-2.71-3.84-3.42-6.97v-4.83l-1.04-0.56v10.47l-0.99 0.38-0.75-0.99-1.23 0.61c-1.43-0.28-2.37-1.42-2.18-2.75l-0.24-0.89 0.38-0.85-0.38-1.23 0.19-2.59-0.47-6.75 0.14-3.81-0.75-0.66c-3.32 1.95-8.7 9.06-15.3 16.92l-0.75 0.66-5.15 6.33c-3.91 4.24-8.92 8.77-10.77 10.86-4.1 4.63-6.48 7.71-10.63 7.71h-2.24l-0.99-0.43c-3.86-0.43-7.63-3.41-8.82-5.5l-0.43-1.13c-1.85-1.53-2.46-2.9-0.42-2.9 2.34 0.19 5.96-0.05 8.59-0.62 3.86-0.28 5.28-1.08 9.24-3.67 3.67-2.39 7.62-5.61 9.81-7.95l1.09-1.27 11.7-11.12 9.68-10.71 0.84-0.19 0.19-1.32c2.68-2.39 6-5.95 7.52-9.27 0.28-1.28-0.56-2.08-1.22-2.78-1.81-1.8-1.81-3.13-0.91-4.7l1.04-0.43 0.28-1.57c1.04-0.8 2.46-2.23 4.27-3.22l0.84-0.61-0.38-1.42-1.71 0.23 0.19-4.38-4.15 3.13-4.48-1.33v-0.7l7.87-3.32 0.99-0.99-1.28-2.84-1.14 0.28-1.24-2.19-0.99 0.52-3.81-2.34 0.38-2.25 1.52-0.29 0.8 1.18 2.31-0.23zm3.67 3.17-0.75 0.28 0.28 1.18 1.14-0.47-0.67-0.99zm9.44 7.68 2.49 2.14-0.71 0.24-2.19-2.05 0.41-0.33zm-9.11-4.79-0.61 0.61 0.43 0.75 0.79-0.66-0.61-0.7zm-2.04 17.11c-1.38 0.99-1.14 1.98 0 1.79 1.13-0.23 2.27-1.46 2.7-2.69 0.23-0.8-1.15-0.14-2.7 0.9zm5.97 6.37-0.33 1.23 0.99-0.38 0.24-1.23-0.9 0.38zm0 5.42-1.43 1.8v1.23c2.94 0.8 4.13 1.46 4.13 3.55 0 2.34-1.81 2.62-4.99 2.62l-0.47 0.9c1.86 2.93 3.76 4.55 6.44 5.4l0.47-0.57c0-5.73-0.09-12.62-1.76-15.3l-2.39 0.37zm-4.15 5.4-0.38 1.13 0.7-0.38-0.32-0.75zm0.71 11.57-0.9-0.14 0.1 0.8 0.8-0.1v-0.56zm0.8 0.94 1.52 5.29 1.85 2.59 0.94-0.38 0.99-5.29-1.85-0.28-2.78-2.93-0.67 1z" fill="#6D9EA5"/>
  <path d="m131.9 12.13c1.09 0.28 1.23 0.99 0.76 2.89l0.51 3.61 0.52 0.89-0.94 0.48-1.71-1.42-1.43 0.47-0.43 1.37 1.52 1.52-0.52 1.33-1.14 0.42-0.47-2.68c-0.8-3.86 0.14-6.3 3.33-8.88z" fill="#6D9EA5"/>
  <path d="m135.9 24.61 0.94 1.71-0.8 0.99 0.47 2.34-0.8 0.28c-1.81-0.99-3.52-2.22-4.66-3.8l-1.38-0.43-0.28-0.99 1.28-0.66 1.76 0.76 2.04-0.76 1.43 0.56z" fill="#6D9EA5"/>
  <path d="m73.24 22.85c0.84 0 2.13 3.91 3.93 4.86 1.24 0.65 2.52-0.39 4.09-0.67l0.85 0.19 3.95-1.8 0.33 0.75-1.18 1.57 0.33 1.32-0.8 1.04 0.18 1.62-8.81 7.4-0.95-0.28-0.65 0.38c-3.23-0.19-5.57-5.17-5.67-6.92-0.14-2.89 2.25-6.5 4.4-9.46zm2.34 12.09-0.28 0.56 0.66 0.14 0.19-0.56-0.57-0.14z" fill="#6D9EA5"/>
  <path d="m77.95 9.02 1.23-1.42h2.04l3.52 1.42 0.9 1.9 0.66-0.38 5.11 3.32 2.24 2.84-0.33 0.28 0.47-0.28-0.14 0.23-0.28 0.09-0.28 0.15-0.99-0.24-0.99 0.28-5 0.1c-3.67-0.19-5.96-2.09-8.1-7.38l-0.06-0.91z" fill="#6D9EA5"/>
  <path d="m104.7 71.3c2.24 0 2.1 0.99 3.72 0.71 2.04-0.38 2.84-1.27 7.85-1.27h5.38c4.15 0 5.53 0.99 8.31 4.79 0.43 0.7-1.43 2.28-1.81 3.84-0.75 3.08-0.75 7.77-0.75 8.9-0.61 4.1 0.33 15.41-0.76 22.16l-0.43 1.89-0.8 4.59c-0.7 2.58-1.46 4.48-2.11 7.16l-1.09 3.56-3.91 10.81-1.14 2.49-0.47 1.47-1.95 3.91-1.71 3.41-4.2 7.55c-2.48 3.95-6.3 9.92-11.68 15.84l-2.88 3.32-10.94 0.09-1.42-0.47-0.28-0.99-2.68-1.57-0.71 0.14-2.14-2.39c-0.57-1.23 0.23-2.12 1.13-1.93 1.57 0.28 2.71-0.71 5-0.57 2.77 0.14 4.58-1.09 6.01-1.09l0.75-0.56 0.75-0.38c3.96-1.62 8.11-4.5 9.48-8.06l0.75-0.71c2.34-2.04 4.87-7.23 6.15-9.91l2.68-4.83 3.57-7.3 3.37-7.21c1.95-4.53 4.99-14.8 5.27-21.55l-0.19-2.58 0.19-12.55-0.28-0.38 0.23-6.57-0.33-0.65-4.44 1.37-1.28 0.7-0.99-0.37-0.84 1.13-0.57-0.18 0.7-1.33 1.52-0.75-1.28-0.38-2.77 2.25-0.57 3.22 1.14-0.19 2.1 0.43 6.74 1.18-3.22 2.34c-2.24 0.95-3.24 1.28-6.01 1.37l-0.61 1.85-0.28 11.18c-0.19 1.42-1.57 1.8-2.7 1.28l-1.86-0.99-0.19-8.43 0.51-2.98-0.38-1.09 0.28-4.53-0.28-3.46-0.09-9-3.23-5.19 0.75-0.42 1.05 0.42-0.71-1.32c-0.61-0.99 0.29-1.41 1.58-1.22zm13.01 2.91-4.58 1.71-0.43 1.13 0.66 4.15 3.81 0.8 2.78 1.23 1.28-0.8 0.47-6.37c-0.09-1.23-1.99-2.55-3.99-1.85zm-5.58 62.9-0.85 1.71 0.38-0.28 0.47-1.43z" fill="#6D9EA5"/>
  <path d="m89.71 74.76h1.76c5.52 0.38 10.94 5.36 11.42 10.35v3.17l-1.43 3.91v1.57l1.05 0.43c-0.29 3.07-1.18 5.56-2.65 6.74l-1.28-0.66-2.78 0.66 0.43 1.27-2.78 1.13-0.52-0.23c-1.42 2.68-2.85 4.53-7.86 5.47l-0.66 0.14-2.68-0.38-3.13-1.8-0.85-1.47c-3.86-1.48-6.9-4.46-6.9-7.78 0-6.51 4.2-11.8 8.64-16.58l0.19-1.09 0.94-0.19c1.62-1.37 5.53-3.37 7.39-3.8l1.7-0.86zm-4.69 7.26-0.24 0.28 0.33-0.09-0.09-0.19zm5.47-3.12-0.57 0.28c3.32 0.94 5.56 1.84 6.99 3.84l0.99 2.39c-0.19 2.34-2.62 5.41-4.43 6.5l-1.43 0.09-0.75 1.71-0.99-0.52-0.14 0.8-0.9-0.28 0.19-2.59-0.52-4.29 0.75-0.43c0.71 0.38 1.41 0.76 0.94 2.91-0.28 1.18 0.52 1.41 1.56 0.52 1.52-1.42 2.71-3.22 3.65-4.93 0.75-1.76-0.82-4.49-5.34-6zm-9.37 12.69-0.24 0.89 1.53 3.47 1.33-1.42 0.99 0.52 0.66 2.09 1.81-0.9 0.33-2.58-0.85-0.47-0.47 0.7-1.9-0.8-3.19-1.5zm8.38 1.85-0.38 0.61 0.61 0.33 0.28-0.75-0.51-0.19z" fill="#6D9EA5"/>
  <path d="m95.01 108.3 1.04-0.24 0.94 1.18-0.7 1.18-1.28-0.61v-1.51z" fill="#6D9EA5"/>
  <path d="m103.3 110.6 0.66 0.29v0.61l-0.76-0.19 0.1-0.71z" fill="#6D9EA5"/>
  <path d="m103.2 114.6 0.76 0.23v0.85h-0.8l0.04-1.08z" fill="#6D9EA5"/>
  <path d="m105.5 115.8 0.75-0.23 0.38 0.56-0.47 0.57-0.8-0.43 0.14-0.47z" fill="#6D9EA5"/>
  <path d="m95.81 112.7-0.14 0.24v-0.24h0.14z" fill="#6D9EA5"/>
</svg>