<svg xmlns="http://www.w3.org/2000/svg" width="200" height="200" fill="none" viewBox="0 0 200 200">
<!-- SVG created with Arrow, by QuiverAI (https://quiver.ai) -->
  <path d="m99.9 197c32.81 0 57.89-9.87 57.89-21.81v-2.44l-57.89-2.23-58.71 2.23v2.44c0 11.94 25.08 21.81 57.89 21.81h0.82z" fill="url(#paint0_linear_133_9925)"/>
  <path d="m11.22 38.97v88.09c0 30.99 26.73 61.74 86.58 61.74h0.35c57.77 0 89.36-28.41 89.36-61.41v-88.42h-176.3z" fill="url(#paint1_linear_133_9925)"/>
  <path d="m99.43 2.5h-0.44c-48.5 0-87.67 16.66-87.67 36.73 0 18.88 32.61 36.48 86.89 36.48h0.45c50.18 0 88.73-18.05 88.73-36.7 0-18.15-36-36.51-87.96-36.51z" fill="url(#paint2_linear_133_9925)"/>
  <path d="m98.93 4.99c-46.2 0-83.47 15.93-83.47 33.98 0 17.72 29.78 34.1 82.52 34.1h0.39c48.64 0 84.88-16.98 84.88-34.16 0-16.66-33.52-33.92-84.32-33.92z" fill="url(#paint3_linear_133_9925)"/>
  <path d="m22.61 51.79c4.97-12.67 31.26-25.66 75.99-25.66 40.57 0 71.58 12.94 77.81 25.6-11.35 12.32-37.69 21.05-77.75 21.05-34.79 0-62.68-8.84-76.05-20.99z" fill="url(#paint4_linear_133_9925)"/>
  <path d="m32.33 58.58c12.3-7.92 31.6-15.62 62.33-15.62 32.16 0 53.83 5.22 71.72 15.79-14.17 8.96-38.21 14.14-67.67 14.14-28.05 0-48.6-5.07-66.38-14.31z" fill="url(#paint5_linear_133_9925)" opacity=".5"/>
  <path d="m27.52 59.32v72.86c0 22.63 18.6 50.55 58.83 50.55h0.29c47.59 0 64.92-23.77 64.92-51.9v-63.72c-14.45 5.38-33.11 8.42-53.94 8.42-29.51 0-54.87-6.28-70.1-16.21z" fill="url(#paint6_linear_133_9925)" opacity=".7"/>
  <path d="m119.2 63.06c7.98-2.99 16.53-5.23 30.7-5.75-5.14 7.47-12.08 12.8-27.79 13.54l-12.98 1.64c2.95-4.39 5.62-7.6 10.07-9.43z" fill="url(#paint7_linear_133_9925)"/>
  <path d="m129.8 58.98c1.83-8.2 4.67-13.27 10.32-18.08 3.84 7.71 2.88 15.24-2.22 20.41l-8.1-2.33z" fill="url(#paint8_linear_133_9925)"/>
  <path d="m104 45.35c5.65-4.69 13.75-5.21 23.85-8.71-2.84 7.07-7.7 10-16.48 10.41l-7.37-1.7z" fill="url(#paint9_linear_133_9925)"/>
  <path d="m100.4 59.26c-1.77-6.45-0.47-10.06 4.09-14.34 5.21 1.7 12.69 1.87 19.23-0.93-6.94 6.33-17.63 5.64-23.32 15.27z" fill="url(#paint10_linear_133_9925)"/>
  <path d="m85.84 53.15c-5.65-5.98-15.92-8.04-32.09-8.9 6.34 8.5 10.24 16.03 18.84 16.03l11.85-1.08 1.4-6.05z" fill="url(#paint11_linear_133_9925)"/>
  <path d="m94.61 72.15c-1.45-9.03-5.96-17.36-8.51-18.94-3.19 3.7-4.21 4.62-8.72 5.99 8.72 2.75 13.17 6.92 17.23 12.95z" fill="url(#paint12_linear_133_9925)"/>
  <path d="m59.81 57.77c-1.08 3.71-1.48 7.52-1.25 10.96l9.38 1.69 8.16-1.58c-7.26-3.12-11.15-5.61-16.29-11.07z" fill="url(#paint13_linear_133_9925)"/>
  <path d="m97.8 72.72c2.22-4.33 6-5.36 9.84-7.2l-0.4 7.14-9.44 0.06z" fill="url(#paint14_linear_133_9925)"/>
  <defs>
    <linearGradient id="paint0_linear_133_9925" x1="100.1" x2="100.1" y1="170.5" y2="197" gradientUnits="userSpaceOnUse">
      <stop stop-color="#82BDC4" offset="0"/>
      <stop stop-color="#98D0A6" offset="1"/>
    </linearGradient>
    <linearGradient id="paint1_linear_133_9925" x1="99.37" x2="99.37" y1="38.97" y2="188.8" gradientUnits="userSpaceOnUse">
      <stop stop-color="#B3E2F8" offset="0"/>
      <stop stop-color="#B4E3E0" offset=".515"/>
      <stop stop-color="#B5D9B1" offset="1"/>
    </linearGradient>
    <linearGradient id="paint2_linear_133_9925" x1="11.32" x2="187.4" y1="39.1" y2="39.1" gradientUnits="userSpaceOnUse">
      <stop stop-color="#B5DBF1" offset="0"/>
      <stop stop-color="#DEF1FC" offset=".515"/>
      <stop stop-color="#DEF1FC" stop-opacity=".69" offset="1"/>
    </linearGradient>
    <linearGradient id="paint3_linear_133_9925" x1="15.46" x2="183.3" y1="39.03" y2="39.03" gradientUnits="userSpaceOnUse">
      <stop stop-color="#B0DCF7" stop-opacity=".9" offset="0"/>
      <stop stop-color="#C5E9F7" stop-opacity=".8" offset=".515"/>
      <stop stop-color="#E5F4FD" stop-opacity=".75" offset="1"/>
    </linearGradient>
    <linearGradient id="paint4_linear_133_9925" x1="99.51" x2="99.51" y1="26.13" y2="72.78" gradientUnits="userSpaceOnUse">
      <stop stop-color="#97CB99" offset="0"/>
      <stop stop-color="#C5DC93" offset="1"/>
    </linearGradient>
    <linearGradient id="paint5_linear_133_9925" x1="99.35" x2="99.35" y1="42.96" y2="72.89" gradientUnits="userSpaceOnUse">
      <stop stop-color="#99CB95" offset="0"/>
      <stop stop-color="#ACD691" offset="1"/>
    </linearGradient>
    <linearGradient id="paint6_linear_133_9925" x1="89.54" x2="89.54" y1="59.32" y2="182.7" gradientUnits="userSpaceOnUse">
      <stop stop-color="#B4E4FA" offset="0"/>
      <stop stop-color="#C0E7DF" offset=".515"/>
      <stop stop-color="#C0E6CC" offset="1"/>
    </linearGradient>
    <linearGradient id="paint7_linear_133_9925" x1="129.5" x2="129.5" y1="57.2" y2="72.49" gradientUnits="userSpaceOnUse">
      <stop stop-color="#76A854" offset="0"/>
      <stop stop-color="#B0CC76" offset="1"/>
    </linearGradient>
    <linearGradient id="paint8_linear_133_9925" x1="135.8" x2="135.8" y1="40.9" y2="61.31" gradientUnits="userSpaceOnUse">
      <stop stop-color="#6A9E50" offset="0"/>
      <stop stop-color="#B2D397" offset="1"/>
    </linearGradient>
    <linearGradient id="paint9_linear_133_9925" x1="115.9" x2="115.9" y1="36.64" y2="47.05" gradientUnits="userSpaceOnUse">
      <stop stop-color="#7BA351" offset="0"/>
      <stop stop-color="#B2CE8E" offset="1"/>
    </linearGradient>
    <linearGradient id="paint10_linear_133_9925" x1="112.7" x2="112.7" y1="44.23" y2="59.26" gradientUnits="userSpaceOnUse">
      <stop stop-color="#7BA351" offset="0"/>
      <stop stop-color="#B2CE8E" offset="1"/>
    </linearGradient>
    <linearGradient id="paint11_linear_133_9925" x1="69.8" x2="69.8" y1="44.25" y2="60.28" gradientUnits="userSpaceOnUse">
      <stop stop-color="#86AA57" offset="0"/>
      <stop stop-color="#96C775" offset="1"/>
    </linearGradient>
    <linearGradient id="paint12_linear_133_9925" x1="86" x2="86" y1="53.21" y2="72.15" gradientUnits="userSpaceOnUse">
      <stop stop-color="#86AA57" offset="0"/>
      <stop stop-color="#96C775" offset="1"/>
    </linearGradient>
    <linearGradient id="paint13_linear_133_9925" x1="67.35" x2="67.35" y1="57.77" y2="70.42" gradientUnits="userSpaceOnUse">
      <stop stop-color="#86AA57" offset="0"/>
      <stop stop-color="#96C775" offset="1"/>
    </linearGradient>
    <linearGradient id="paint14_linear_133_9925" x1="102.7" x2="102.7" y1="65.52" y2="72.72" gradientUnits="userSpaceOnUse">
      <stop stop-color="#86AA57" offset="0"/>
      <stop stop-color="#96C775" offset="1"/>
    </linearGradient>
  </defs>
</svg>