<svg xmlns="http://www.w3.org/2000/svg" width="250" height="250" fill="none" viewBox="0 0 250 250">
<!-- SVG created with Arrow, by QuiverAI (https://quiver.ai) -->
  <path d="m219.1 31.46h-189.2c-14.74 0-26.72 13.2-26.72 28.45v140.3c0 14.74 12.82 27.34 27.25 27.34h188.4c15.38 0 28.6-13.46 28.6-27.83v-138.7c0-16.35-12.05-29.61-28.39-29.61z" fill="#9AF4C2"/>
  <path d="m247.5 76.28-17.44 19.07 17.44 20.98v-40.05z" fill="#63C6A3"/>
  <path d="m219.1 31.46h-15.52l12.44 12.44 31.42 32.33v-14.94c0-16.52-12.16-29.83-28.34-29.83z" fill="#B9EE71"/>
  <path d="m99.07 13.69h51.99c5.34 0 8.91 3.42 11.03 8.02l5.39 9.7-85.07-0.05 6.37-12.05c2.27-3.57 5.58-5.62 10.29-5.62z" fill="url(#paint0_linear_307_10962)"/>
  <path d="m189.6 23.16h20.29c3.42 0 3.69 3.16 3.69 4.63v3.57h-28.53v-3.15c0-2.78 1.58-5.05 4.55-5.05z" fill="url(#paint1_linear_307_10962)"/>
  <path d="m228.9 71.73v112.6c0 15.19-12.77 27.58-28.25 27.58h-152.6c-15.19 0-28.02-12.93-28.02-27.2v-113c0-15.19 12.35-27.86 27.54-27.86h153.1c14.49 0 28.25 13.04 28.25 27.86z" fill="url(#paint2_linear_307_10962)"/>
  <path d="m201.7 43.87h-58.77l-13.89 12.44 71.77-0.1 27.97 13.04v1.42c0-14.24-12.33-26.8-27.08-26.8z" fill="#78DDA3"/>
  <path d="m3.19 135.2v36.91l16.82-17.11-16.82-19.8z" fill="#B9EE71"/>
  <path d="m20.01 155v30.18c0 14.43 12.35 26.72 27.81 26.72h55.54l-15.79 15.79h-57.07c-14.44 0-27.31-12.55-27.31-27.7v-27.92l16.82-17.07z" fill="#63C6A3"/>
  <path d="m229.7 94.43-14.89 12.88v66.5c0 13.95-10.95 24.97-25.21 24.97h-71.81l-14.04 13.14h97.19c15.29 0 27.92-13.04 27.92-27.47l0.84-90.02z" fill="#B2E562"/>
  <path d="m155.6 31.36-12.77 12.44h58.11c14.6 0 27.87 12.16 27.87 27.82v22.86l-13.69 12.83v-24.45c0-13.85-11.41-26.24-26.1-26.24l-60.21-0.05 26.79-25.21z" fill="url(#paint3_linear_307_10962)"/>
  <path d="m188.9 198.8h-129.8c-13.58 0-25.38-11.75-25.38-24.97v-91c0-13.69 10.96-26.19 24.76-26.19h130.9c14 0 25.16 11.96 25.16 25.67v91.52c0 13.27-11.8 24.97-25.63 24.97z" fill="#fff"/>
  <path d="m206 165c-7.06 8.98-4.9 17.3 0 21.75 7.11-8.16 5.65-15.56 0-21.75z" fill="#63C6A3"/>
  <path d="m183 189.2c6.97 6.57 16.68 5.52 21.34-0.37-7.22-5.89-16.49-4.94-21.34 0.37z" fill="#9AF4C2"/>
  <path d="m44.21 67.85c-7.06 7.51-6.45 16.33-0.26 22.07 6.57-7.51 5.16-15.39 0.26-22.07z" fill="#B2E562"/>
  <path d="m44.76 65.09c6.46 6.14 16.1 6.02 21.95 0.62-4.9-6.68-14.6-6.99-21.95-0.62z" fill="#63C6A3"/>
  <path d="m65.36 30.57c9.86-1.84 14.71-8.86 14.61-16.93-8.99 0.31-14.82 8.38-14.61 16.93z" fill="#78DDA3"/>
  <path d="m52.17 18.95c0.42 7.26 5.47 11.32 10.27 11.26 0.16-6.14-3.62-10.74-10.27-11.26z" fill="#B9EE71"/>
  <path d="m222.9 37.87c-1.42 5.15-0.21 9.39 2.57 10.44 2.38-3.05 1.91-7.24-2.57-10.44z" fill="#63C6A3"/>
  <path d="m234.8 42.61c-5.06 0.83-6.54 3.66-6.7 6.62 3.97-0.1 6.86-2.28 6.7-6.62z" fill="#63C6A3"/>
  <path d="m227.3 51.71c1.85 4.02 5.62 4.91 10.22 3.92-1.47-4.7-5.4-5.69-10.22-3.92z" fill="#63C6A3"/>
  <path d="m179.3 66.83c4.65 1.15 11.51 0.21 13.04-6.71-6.14-1.94-10.74 0.79-13.04 6.71z" fill="#78DDA3"/>
  <path d="m43.43 175.3c-3.83 3.83-2.41 9.03 1.06 12.95 2.72-3.62 3.19-9.51-1.06-12.95z" fill="#63C6A3"/>
  <path d="m43.9 187.9c5.3 1.04 9.84-1.73 11.52-4.89-3.36-0.83-7.91-0.78-11.52 4.89z" fill="#9AF4C2"/>
  <path d="m50.05 177.1c-4.7 1.68-6.93 5.85-5.93 10.64 4.8-1.58 6.86-5.25 5.93-10.64z" fill="#78DDA3"/>
  <path d="m206.8 66.93c-1.04-0.15-2.04 0.32-2.71 0.98 0.52-2-0.47-4.28-3-4.33-2.38-0.05-3.59 1.95-3.33 4.03-1.31-0.47-2.94-0.05-3.83 1.68-1.1 2.33 0.37 3.96 1.57 4.42-1.57 0.73-2.78 3-1.52 4.63 1.58 2.17 3.75 1.5 4.79 0.5-0.27 2.05 0.57 3.15 2.57 3.09 2.73-0.05 3.34-2.33 3.19-4.22 1.73 0.99 3.2 0.1 3.88-1.37 0.99-2.27-0.68-4.21-1.67-4.68 1.73-1.04 2.19-3.81 0.06-4.73z" fill="#9AF4C2"/>
  <path d="m200.3 70.19c-2.32 1.42-1.58 4.94 1.15 4.84 2.78-0.16 2.99-3.52 1.15-4.73-0.83-0.53-1.77-0.47-2.3-0.11z" fill="#63C6A3"/>
  <path d="m206.4 226.2c-0.21-2.43-1.89-3.42-4.32-3.11 0.47-2.96-1.31-6.02-6.16-5.97-3.78 0.32-5.51 3.14-5.2 5.86-2.77-0.52-4.08 1.38-4.13 3.43 0.05 2.27 1.52 3.59 3.69 3.38-0.37 3.57 1.47 5.9 4.99 5.9 3.35 0 4.72-2.92 4.51-5.4 2.77 0.42 5.93-0.89 6.62-4.09z" fill="#A5E174"/>
  <path d="m179 225.7c1.78-0.99 2.25-2.89 0.93-4.67-1.47-1.84-3.25-1.37-4.35-0.8 0.32-2.33-0.78-3.9-3.26-3.85-2.83 0.05-3.66 2.22-3.56 4.11-1.36-1.26-3.53-1.31-4.58 0.58-1.42 2.42-0.31 4.26 1.21 5.15-1.94 0.94-2.1 2.94-1.21 4.46 1.31 2.05 3.49 1.79 4.75 0.74 0 2.28 1.2 3.96 3.63 3.7 2.53-0.21 3.31-2.39 3.1-4.54 1.84 1.68 3.91 0.95 4.8-0.36 1.1-1.84 0.21-3.74-1.46-4.52z" fill="#A5E174"/>
  <path d="m172 224.7c-2.27 1.21-1.75 4.83 1.32 4.62 2.62-0.16 2.99-3.57 1-4.78-0.84-0.47-1.78-0.26-2.32 0.16z" fill="#9AF4C2"/>
  <path d="m206.9 82.92c-2.27 3.82-1.7 7.79 2.13 10.07 2.43-4.7 1.39-7.38-2.13-10.07z" fill="#B2E562"/>
  <path d="m11.68 201.6c2.27 4.65 5.53 6.12 10.68 4.39-1.42-4.85-5.87-5.58-10.68-4.39z" fill="#B9EE71"/>
  <path d="m15.92 215.4c4.14-0.26 6.72-2.36 7.39-7.22-4.7-0.42-7.23 2.69-7.39 7.22z" fill="#B9EE71"/>
  <path d="m25.89 208.6c-1.73 5.1 0.94 9.65 4.46 12.38 2.17-5.89 0-10.13-4.46-12.38z" fill="#B9EE71"/>
  <path d="m54.9 195.6c5.05-0.16 10.69-4.18 10.69-10.21-6.96 0.21-10.64 4.76-10.69 10.21z" fill="#B2E562"/>
  <defs>
    <linearGradient id="paint0_linear_307_10962" x1="82.41" x2="167.5" y1="22.56" y2="22.56" gradientUnits="userSpaceOnUse">
      <stop stop-color="#57C3A7" offset="0"/>
      <stop stop-color="#B2E562" offset="1"/>
    </linearGradient>
    <linearGradient id="paint1_linear_307_10962" x1="185.1" x2="213.6" y1="27.26" y2="27.26" gradientUnits="userSpaceOnUse">
      <stop stop-color="#57C3A7" offset="0"/>
      <stop stop-color="#B2E562" offset="1"/>
    </linearGradient>
    <linearGradient id="paint2_linear_307_10962" x1="20.01" x2="228.9" y1="127.9" y2="127.9" gradientUnits="userSpaceOnUse">
      <stop stop-color="#57C3A7" offset="0"/>
      <stop stop-color="#78DDA3" offset="1"/>
    </linearGradient>
    <linearGradient id="paint3_linear_307_10962" x1="128.8" x2="228.8" y1="69.34" y2="69.34" gradientUnits="userSpaceOnUse">
      <stop stop-color="#78DDA3" offset="0"/>
      <stop stop-color="#D1F0B1" offset="1"/>
    </linearGradient>
  </defs>
</svg>