<svg xmlns="http://www.w3.org/2000/svg" xmlns:xlink="http://www.w3.org/1999/xlink" width="3780" zoomAndPan="magnify" viewBox="0 0 2835 2834.999876" height="3780" preserveAspectRatio="xMidYMid meet" version="1.0"><metadata/><defs><clipPath id="87877f39d3"><path d="M 565 302 L 2371.050781 302 L 2371.050781 2685 L 565 2685 Z M 565 302 " clip-rule="nonzero"/></clipPath><clipPath id="c803c3da2f"><path d="M 463.800781 500 L 1470 500 L 1470 1602 L 463.800781 1602 Z M 463.800781 500 " clip-rule="nonzero"/></clipPath></defs><g clip-path="url(#87877f39d3)"><path fill="#b7b3a3" d="M 2212.925781 2684.324219 L 704.84375 2672.074219 C 627.511719 2671.445312 565.328125 2608.253906 565.957031 2530.925781 L 582.929688 441.378906 C 583.558594 364.050781 646.757812 301.875 724.09375 302.503906 L 2232.175781 314.753906 C 2309.511719 315.382812 2371.691406 378.574219 2371.066406 455.898438 L 2354.089844 2545.449219 C 2353.476562 2622.792969 2290.261719 2684.957031 2212.953125 2684.347656 Z M 2212.925781 2684.324219 " fill-opacity="0.58" fill-rule="nonzero"/></g><path fill="#f2bdc9" d="M 1193.839844 299.386719 L 1964.976562 150.328125 L 2140.441406 1057.878906 L 1369.304688 1206.9375 Z M 1193.839844 299.386719 " fill-opacity="1" fill-rule="nonzero"/><path fill="#fff388" d="M 1111.390625 1325.84375 L 1896.820312 1332.207031 L 1889.332031 2256.582031 L 1103.902344 2250.21875 Z M 1111.390625 1325.84375 " fill-opacity="1" fill-rule="nonzero"/><g clip-path="url(#c803c3da2f)"><path fill="#ccefbd" d="M 712.640625 500.382812 L 1469.089844 711.722656 L 1220.3125 1601.988281 L 463.863281 1390.648438 Z M 712.640625 500.382812 " fill-opacity="1" fill-rule="nonzero"/></g><path fill="#d37402" d="M 1513.179688 1374.800781 C 1499.746094 1376.757812 1490.445312 1389.238281 1492.40625 1402.671875 C 1494.363281 1416.101562 1506.847656 1425.402344 1520.277344 1423.445312 C 1533.710938 1421.484375 1543.011719 1409.003906 1541.054688 1395.574219 C 1539.089844 1382.136719 1526.613281 1372.847656 1513.175781 1374.808594 Z M 1513.179688 1374.800781 " fill-opacity="1" fill-rule="nonzero"/><path fill="#d37402" d="M 1593.28125 302.433594 C 1606.714844 300.476562 1616.015625 287.996094 1614.058594 274.5625 C 1612.097656 261.132812 1599.617188 251.832031 1586.183594 253.789062 C 1572.75 255.75 1563.449219 268.230469 1565.40625 281.660156 C 1567.367188 295.09375 1579.847656 304.390625 1593.285156 302.433594 Z M 1593.28125 302.433594 " fill-opacity="1" fill-rule="nonzero"/><path fill="#d37402" d="M 1039.035156 636.433594 C 1025.601562 638.394531 1016.300781 650.875 1018.257812 664.304688 C 1020.21875 677.738281 1032.699219 687.039062 1046.132812 685.078125 C 1059.566406 683.121094 1068.867188 670.640625 1066.90625 657.207031 C 1064.949219 643.777344 1052.46875 634.480469 1039.03125 636.441406 Z M 1039.035156 636.433594 " fill-opacity="1" fill-rule="nonzero"/><path fill="#d37402" d="M 1848.023438 387.402344 L 1369.078125 483.789062 C 1367.808594 484.046875 1366.988281 485.28125 1367.242188 486.550781 C 1367.46875 487.660156 1368.445312 488.433594 1369.535156 488.433594 C 1369.6875 488.433594 1369.847656 488.421875 1370.003906 488.386719 L 1848.949219 392 C 1850.21875 391.742188 1851.039062 390.507812 1850.785156 389.238281 C 1850.53125 387.96875 1849.300781 387.144531 1847.992188 387.402344 Z M 1848.023438 387.402344 " fill-opacity="1" fill-rule="nonzero"/><path fill="#d37402" d="M 1698.730469 500.164062 L 1384.742188 563.351562 C 1383.472656 563.609375 1382.652344 564.84375 1382.902344 566.113281 C 1383.128906 567.226562 1384.109375 568 1385.199219 568 C 1385.351562 568 1385.507812 567.984375 1385.664062 567.949219 L 1699.65625 504.761719 C 1700.925781 504.503906 1701.746094 503.269531 1701.492188 502 C 1701.1875 500.726562 1699.964844 499.910156 1698.699219 500.164062 Z M 1698.730469 500.164062 " fill-opacity="1" fill-rule="nonzero"/></svg>