<svg xmlns="http://www.w3.org/2000/svg" xmlns:xlink="http://www.w3.org/1999/xlink" width="3780" zoomAndPan="magnify" viewBox="0 0 2835 2834.999876" height="3780" preserveAspectRatio="xMidYMid meet" version="1.0"><metadata/><defs><filter x="0%" y="0%" width="100%" height="100%" id="84c39bf6ed"><feColorMatrix values="0 0 0 0 1 0 0 0 0 1 0 0 0 0 1 0 0 0 1 0" color-interpolation-filters="sRGB"/></filter><clipPath id="38f7ffe750"><path d="M 929.390625 0 L 1539.890625 0 L 1539.890625 161.941406 L 929.390625 161.941406 Z M 929.390625 0 " clip-rule="nonzero"/></clipPath><mask id="2e8ab78254"><g filter="url(#84c39bf6ed)"><rect x="-283.5" width="3402" fill="#000000" y="-283.499988" height="3401.999851" fill-opacity="0.5"/></g></mask><clipPath id="43b0f34e5a"><path d="M 0.390625 0 L 610.890625 0 L 610.890625 161.941406 L 0.390625 161.941406 Z M 0.390625 0 " clip-rule="nonzero"/></clipPath><clipPath id="3a778074ac"><rect x="0" width="611" y="0" height="162"/></clipPath><clipPath id="9db8238277"><path d="M 74.363281 1033.839844 L 684.863281 1033.839844 L 684.863281 1276.839844 L 74.363281 1276.839844 Z M 74.363281 1033.839844 " clip-rule="nonzero"/></clipPath><mask id="944a466141"><g filter="url(#84c39bf6ed)"><rect x="-283.5" width="3402" fill="#000000" y="-283.499988" height="3401.999851" fill-opacity="0.5"/></g></mask><clipPath id="6e1a9fb0ac"><path d="M 0.363281 0.917969 L 610.863281 0.917969 L 610.863281 243.839844 L 0.363281 243.839844 Z M 0.363281 0.917969 " clip-rule="nonzero"/></clipPath><clipPath id="6c7cfea932"><rect x="0" width="611" y="0" height="244"/></clipPath><clipPath id="7860c96ea7"><path d="M 0.640625 0.960938 L 2602.238281 0.960938 L 2602.238281 1785.601562 L 0.640625 1785.601562 Z M 0.640625 0.960938 " clip-rule="nonzero"/></clipPath><mask id="875f97f525"><g filter="url(#84c39bf6ed)"><rect x="-739.7" width="4082.4" fill="#000000" y="-1007.699973" height="4082.399821" fill-opacity="0.9"/></g></mask><clipPath id="a5bd7c59b5"><path d="M 0.835938 1.070312 L 2602.050781 1.070312 L 2602.050781 1785.371094 L 0.835938 1785.371094 Z M 0.835938 1.070312 " clip-rule="nonzero"/></clipPath><clipPath id="edbcc31bd8"><rect x="0" width="2603" y="0" height="1786"/></clipPath><clipPath id="09d1a51a3c"><path d="M 45.132812 53.769531 L 880.234375 53.769531 L 880.234375 1732.238281 L 45.132812 1732.238281 Z M 45.132812 53.769531 " clip-rule="nonzero"/></clipPath><clipPath id="6a398742f3"><path d="M 52 60 L 880.234375 60 L 880.234375 1726 L 52 1726 Z M 52 60 " clip-rule="nonzero"/></clipPath><clipPath id="2a60578d52"><path d="M 880.699219 53.769531 L 1667.84375 53.769531 L 1667.84375 1732.238281 L 880.699219 1732.238281 Z M 880.699219 53.769531 " clip-rule="nonzero"/></clipPath><clipPath id="c51a167168"><path d="M 880.699219 60 L 1667.84375 60 L 1667.84375 1726 L 880.699219 1726 Z M 880.699219 60 " clip-rule="nonzero"/></clipPath><clipPath id="89cda3a0df"><path d="M 1668.148438 53.769531 L 1754.140625 53.769531 L 1754.140625 1732.238281 L 1668.148438 1732.238281 Z M 1668.148438 53.769531 " clip-rule="nonzero"/></clipPath><clipPath id="b9b4cfd3db"><path d="M 1668.148438 60 L 1754.140625 60 L 1754.140625 1726 L 1668.148438 1726 Z M 1668.148438 60 " clip-rule="nonzero"/></clipPath><clipPath id="07709f5543"><path d="M 1749.058594 53.769531 L 2557.699219 53.769531 L 2557.699219 1732.238281 L 1749.058594 1732.238281 Z M 1749.058594 53.769531 " clip-rule="nonzero"/></clipPath><clipPath id="fef59d9a2b"><path d="M 1749.058594 60 L 2552 60 L 2552 1726 L 1749.058594 1726 Z M 1749.058594 60 " clip-rule="nonzero"/></clipPath><clipPath id="85c86fc917"><rect x="0" width="2603" y="0" height="1786"/></clipPath></defs><g clip-path="url(#38f7ffe750)"><g mask="url(#2e8ab78254)"><g transform="matrix(1, 0, 0, 1, 929, 0)"><g clip-path="url(#3a778074ac)"><g clip-path="url(#43b0f34e5a)"><path fill="#fffbf5" d="M 414.152344 -5.683594 L 330.519531 -5.683594 C 329.105469 -9.789062 328.257812 -14.175781 328.257812 -18.703125 C 328.257812 -40.777344 346.371094 -58.890625 368.445312 -58.890625 L 610.703125 -58.890625 C 602.777344 -72.191406 588.203125 -80.964844 571.789062 -80.964844 L 265.429688 -80.964844 C 240.242188 -80.964844 219.722656 -60.445312 219.722656 -35.257812 C 219.722656 -24.082031 223.824219 -13.75 230.617188 -5.683594 C 238.96875 4.21875 251.5625 10.445312 265.429688 10.445312 L 394.339844 10.445312 C 411.320312 10.445312 425.1875 24.3125 425.1875 41.296875 C 425.1875 58.277344 411.320312 72.144531 394.339844 72.144531 L 364.339844 72.144531 C 360.519531 71.011719 356.417969 70.445312 352.171875 70.445312 L 46.09375 70.445312 C 20.90625 70.445312 0.390625 90.964844 0.390625 116.152344 C 0.390625 141.339844 20.90625 161.859375 46.09375 161.859375 L 59.113281 161.859375 C 47.085938 154.78125 38.878906 141.621094 38.878906 126.621094 C 38.878906 104.125 57.273438 85.726562 79.773438 85.726562 L 414.152344 85.726562 C 439.339844 85.726562 459.855469 65.210938 459.855469 40.023438 C 459.855469 14.832031 439.195312 -5.683594 414.152344 -5.683594 Z M 414.152344 -5.683594 " fill-opacity="1" fill-rule="nonzero"/></g></g></g></g></g><g clip-path="url(#9db8238277)"><g mask="url(#944a466141)"><g transform="matrix(1, 0, 0, 1, 74, 1033)"><g clip-path="url(#6c7cfea932)"><g clip-path="url(#6e1a9fb0ac)"><path fill="#fffbf5" d="M 414.125 76.214844 L 330.496094 76.214844 C 329.082031 72.109375 328.230469 67.722656 328.230469 63.195312 C 328.230469 41.121094 346.34375 23.007812 368.417969 23.007812 L 610.675781 23.007812 C 602.753906 9.707031 588.175781 0.933594 571.761719 0.933594 L 265.402344 0.933594 C 240.214844 0.933594 219.695312 21.449219 219.695312 46.636719 C 219.695312 57.816406 223.800781 68.148438 230.59375 76.214844 C 238.941406 86.117188 251.535156 92.34375 265.402344 92.34375 L 394.316406 92.34375 C 411.296875 92.34375 425.164062 106.210938 425.164062 123.191406 C 425.164062 140.171875 411.296875 154.039062 394.316406 154.039062 L 364.316406 154.039062 C 360.496094 152.910156 356.390625 152.34375 352.144531 152.34375 L 46.070312 152.34375 C 20.882812 152.34375 0.363281 172.859375 0.363281 198.050781 C 0.363281 223.238281 20.882812 243.753906 46.070312 243.753906 L 59.089844 243.753906 C 47.0625 236.679688 38.851562 223.519531 38.851562 208.519531 C 38.851562 186.019531 57.25 167.625 79.75 167.625 L 414.125 167.625 C 439.3125 167.625 459.832031 147.105469 459.832031 121.917969 C 459.832031 96.730469 439.171875 76.214844 414.125 76.214844 Z M 414.125 76.214844 " fill-opacity="1" fill-rule="nonzero"/></g></g></g></g></g><g transform="matrix(1, 0, 0, 1, 116, 384)"><g clip-path="url(#85c86fc917)"><g clip-path="url(#7860c96ea7)"><g mask="url(#875f97f525)"><g><g clip-path="url(#edbcc31bd8)"><g clip-path="url(#a5bd7c59b5)"><path fill="#fffbf5" d="M 0.835938 1.070312 L 2602.050781 1.070312 L 2602.050781 1785.371094 L 0.835938 1785.371094 Z M 0.835938 1.070312 " fill-opacity="1" fill-rule="nonzero"/></g></g></g></g></g><path fill="#c7b299" d="M 63.472656 1704.035156 C 63.824219 1708.921875 63.910156 1712.414062 63.910156 1713.546875 C 63.910156 1713.546875 68.539062 1713.636719 73.429688 1713.984375 C 77.363281 1714.507812 78.847656 1711.890625 78.847656 1711.890625 C 78.847656 1711.890625 84.347656 1717.300781 90.289062 1712.238281 C 94.917969 1706.476562 90.550781 1699.234375 83.476562 1700.890625 C 83.476562 1700.890625 83.214844 1697.835938 87.492188 1697.488281 C 91.160156 1697.488281 93.433594 1699.320312 93.433594 1699.320312 C 93.433594 1699.320312 98.585938 1696.613281 102.167969 1701.414062 C 105.746094 1706.214844 101.378906 1710.582031 97.011719 1709.621094 C 93.695312 1707.960938 95.265625 1704.734375 98.585938 1705.082031 C 98.585938 1705.082031 99.285156 1702.375 95.964844 1702.636719 C 92.734375 1702.988281 90.898438 1709.882812 96.925781 1711.976562 C 103.128906 1713.023438 105.136719 1708.398438 105.136719 1708.398438 C 105.136719 1708.398438 109.328125 1712.238281 114.832031 1710.144531 C 114.832031 1710.144531 115.964844 1708.3125 111.773438 1708.050781 C 107.582031 1707.789062 106.007812 1706.476562 105.835938 1704.730469 C 105.746094 1703.074219 104.261719 1694.609375 93.605469 1696.527344 C 93.605469 1696.527344 90.550781 1696.089844 90.636719 1694.519531 C 90.726562 1693.035156 90.726562 1687.539062 90.8125 1686.839844 C 90.8125 1686.839844 84.609375 1686.839844 83.125 1686.925781 C 81.464844 1687.015625 81.117188 1683.957031 81.117188 1683.957031 C 83.125 1673.3125 74.566406 1671.738281 72.90625 1671.652344 C 71.246094 1671.566406 69.851562 1669.90625 69.589844 1665.71875 C 69.328125 1661.527344 67.492188 1662.660156 67.492188 1662.660156 C 65.308594 1668.160156 69.152344 1672.351562 69.152344 1672.351562 C 69.152344 1672.351562 64.609375 1674.269531 65.570312 1680.554688 C 67.667969 1686.578125 74.652344 1684.746094 74.917969 1681.515625 C 75.265625 1678.285156 72.46875 1678.898438 72.46875 1678.898438 C 72.820312 1682.125 69.675781 1683.695312 67.929688 1680.46875 C 66.96875 1676.105469 71.335938 1671.738281 76.140625 1675.316406 C 80.941406 1678.898438 78.234375 1684.046875 78.234375 1684.046875 C 78.234375 1684.046875 80.070312 1686.226562 80.070312 1689.894531 C 79.71875 1694.171875 76.664062 1693.910156 76.664062 1693.910156 C 78.324219 1686.839844 71.160156 1682.476562 65.308594 1687.101562 C 60.242188 1693.035156 65.65625 1698.449219 65.65625 1698.449219 C 65.65625 1698.449219 62.949219 1700.105469 63.472656 1704.035156 Z M 75.964844 1697.050781 C 82.425781 1696.527344 82.6875 1689.457031 82.6875 1689.457031 L 87.492188 1689.894531 L 87.929688 1694.78125 C 87.929688 1694.78125 80.941406 1695.132812 80.332031 1701.503906 C 80.332031 1701.503906 79.980469 1703.773438 73.867188 1703.597656 C 73.691406 1697.402344 75.964844 1697.050781 75.964844 1697.050781 Z M 70.8125 1687.625 C 74.742188 1687.800781 75.179688 1693.558594 73.34375 1693.820312 C 71.421875 1694.085938 71.597656 1692.6875 71.597656 1691.554688 C 71.597656 1690.070312 69.675781 1690.941406 69.675781 1690.941406 C 67.929688 1696.265625 72.644531 1696.878906 72.644531 1696.878906 C 70.023438 1701.066406 71.859375 1705.082031 72.035156 1705.429688 C 72.035156 1705.429688 76.3125 1707.527344 80.59375 1704.820312 C 80.59375 1704.820312 81.117188 1709.621094 86.53125 1707.789062 C 86.53125 1707.789062 87.40625 1705.867188 85.921875 1705.867188 C 84.785156 1705.867188 83.386719 1705.953125 83.648438 1704.121094 C 83.914062 1702.289062 89.675781 1702.636719 89.765625 1706.652344 C 89.9375 1710.582031 84.785156 1714.421875 78.496094 1709.707031 C 78.496094 1709.707031 77.011719 1711.890625 74.566406 1711.714844 C 72.207031 1711.539062 66.96875 1711.015625 66.53125 1711.015625 C 66.53125 1710.582031 65.921875 1705.34375 65.746094 1702.898438 C 65.570312 1700.457031 67.753906 1698.972656 67.753906 1698.972656 C 63.039062 1692.6875 66.792969 1687.539062 70.8125 1687.625 Z M 70.8125 1687.625 " fill-opacity="1" fill-rule="nonzero"/><path fill="#c7b299" d="M 65.746094 98.558594 C 71.597656 103.1875 78.757812 98.820312 77.101562 91.753906 C 77.101562 91.753906 80.15625 91.488281 80.507812 95.765625 C 80.507812 99.433594 78.671875 101.613281 78.671875 101.613281 C 78.671875 101.613281 81.378906 106.765625 76.574219 110.34375 C 71.773438 114.007812 67.40625 109.644531 68.277344 105.28125 C 70.023438 101.964844 73.167969 103.621094 72.820312 106.851562 C 72.820312 106.851562 75.527344 107.550781 75.265625 104.234375 C 74.917969 101.003906 68.015625 99.171875 65.921875 105.195312 C 64.871094 111.476562 69.5 113.398438 69.5 113.398438 C 69.5 113.398438 65.570312 117.585938 67.839844 123.085938 C 67.839844 123.085938 69.675781 124.222656 69.9375 120.03125 C 70.199219 115.84375 71.597656 114.183594 73.257812 114.097656 C 74.917969 114.007812 83.476562 112.4375 81.464844 101.789062 C 81.464844 101.789062 81.902344 98.734375 83.476562 98.820312 C 84.960938 98.910156 91.160156 98.910156 91.160156 98.910156 C 91.160156 98.210938 91.074219 92.710938 90.988281 91.226562 C 90.898438 89.65625 93.957031 89.222656 93.957031 89.222656 C 104.613281 91.140625 106.183594 82.675781 106.183594 81.015625 C 106.269531 79.269531 107.929688 77.875 112.125 77.699219 C 116.316406 77.4375 115.179688 75.605469 115.179688 75.605469 C 109.675781 73.421875 105.484375 77.351562 105.484375 77.351562 C 105.484375 77.351562 103.5625 72.722656 97.273438 73.773438 C 91.160156 75.867188 93.082031 82.847656 96.316406 83.109375 C 99.546875 83.371094 98.933594 80.667969 98.933594 80.667969 C 95.703125 81.105469 94.132812 77.875 97.363281 76.128906 C 101.730469 75.167969 106.097656 79.53125 102.515625 84.332031 C 98.933594 89.046875 93.78125 86.429688 93.78125 86.429688 C 93.78125 86.429688 91.597656 88.347656 87.84375 88.261719 C 83.5625 87.910156 83.824219 84.855469 83.824219 84.855469 C 90.898438 86.515625 95.265625 79.359375 90.636719 73.511719 C 84.699219 68.449219 79.195312 73.859375 79.195312 73.859375 C 79.195312 73.859375 77.625 71.242188 73.78125 71.765625 C 68.890625 72.113281 64.261719 72.199219 64.261719 72.199219 C 64.261719 73.335938 64.171875 76.828125 63.824219 81.714844 C 63.472656 85.640625 66.09375 87.214844 66.09375 87.214844 C 66.09375 87.214844 60.679688 92.625 65.746094 98.558594 Z M 88.453125 91.054688 L 88.015625 95.941406 L 83.214844 96.378906 C 83.214844 96.378906 82.953125 89.308594 76.488281 88.785156 C 76.488281 88.785156 74.21875 88.433594 74.480469 82.324219 C 80.507812 82.152344 80.941406 84.421875 80.941406 84.421875 C 81.464844 90.703125 88.453125 91.054688 88.453125 91.054688 Z M 66.183594 82.9375 C 66.355469 80.492188 66.878906 75.253906 66.96875 74.820312 C 67.40625 74.730469 72.644531 74.207031 75.003906 74.121094 C 77.535156 73.945312 78.933594 76.128906 78.933594 76.128906 C 85.136719 71.414062 90.289062 75.253906 90.199219 79.183594 C 90.027344 83.199219 84.347656 83.546875 84.085938 81.714844 C 83.824219 79.882812 85.222656 79.96875 86.359375 79.96875 C 87.84375 79.96875 86.96875 78.046875 86.96875 78.046875 C 81.640625 76.214844 81.03125 81.015625 81.03125 81.015625 C 76.75 78.3125 72.46875 80.40625 72.46875 80.40625 C 72.296875 80.753906 70.460938 84.855469 73.082031 88.960938 C 73.082031 88.960938 68.277344 89.570312 70.113281 94.894531 C 70.113281 94.894531 72.035156 95.765625 72.035156 94.285156 C 72.035156 93.148438 71.945312 91.753906 73.78125 92.015625 C 75.613281 92.277344 75.265625 98.035156 71.246094 98.210938 C 67.230469 98.386719 63.472656 93.148438 68.191406 86.953125 C 68.277344 86.863281 66.09375 85.378906 66.183594 82.9375 Z M 66.183594 82.9375 " fill-opacity="1" fill-rule="nonzero"/><g clip-path="url(#09d1a51a3c)"><path fill="#c7b299" d="M 45.132812 53.785156 L 45.132812 1732.226562 L 991.027344 1732.226562 L 991.027344 53.785156 Z M 988.410156 1729.609375 L 47.753906 1729.609375 L 47.753906 56.402344 L 988.410156 56.402344 Z M 988.410156 1729.609375 " fill-opacity="1" fill-rule="nonzero"/></g><g clip-path="url(#6a398742f3)"><path fill="#c7b299" d="M 984.042969 60.765625 L 52.121094 60.765625 L 52.121094 1725.242188 L 984.042969 1725.242188 Z M 981.421875 1722.625 L 54.742188 1722.625 L 54.742188 63.386719 L 981.421875 63.386719 Z M 981.421875 1722.625 " fill-opacity="1" fill-rule="nonzero"/></g><g clip-path="url(#2a60578d52)"><path fill="#c7b299" d="M 798.039062 53.785156 L 798.039062 1732.226562 L 1743.933594 1732.226562 L 1743.933594 53.785156 Z M 1741.316406 1729.609375 L 800.660156 1729.609375 L 800.660156 56.402344 L 1741.316406 56.402344 Z M 1741.316406 1729.609375 " fill-opacity="1" fill-rule="nonzero"/></g><g clip-path="url(#c51a167168)"><path fill="#c7b299" d="M 1736.949219 60.765625 L 805.027344 60.765625 L 805.027344 1725.242188 L 1736.949219 1725.242188 Z M 1734.328125 1722.625 L 807.648438 1722.625 L 807.648438 63.386719 L 1734.328125 63.386719 Z M 1734.328125 1722.625 " fill-opacity="1" fill-rule="nonzero"/></g><g clip-path="url(#89cda3a0df)"><path fill="#c7b299" d="M 962.484375 53.785156 L 962.484375 1732.226562 L 1908.382812 1732.226562 L 1908.382812 53.785156 Z M 1905.761719 1729.609375 L 965.105469 1729.609375 L 965.105469 56.402344 L 1905.761719 56.402344 Z M 1905.761719 1729.609375 " fill-opacity="1" fill-rule="nonzero"/></g><g clip-path="url(#b9b4cfd3db)"><path fill="#c7b299" d="M 1901.394531 60.765625 L 969.472656 60.765625 L 969.472656 1725.242188 L 1901.394531 1725.242188 Z M 1898.773438 1722.625 L 972.09375 1722.625 L 972.09375 63.386719 L 1898.773438 63.386719 Z M 1898.773438 1722.625 " fill-opacity="1" fill-rule="nonzero"/></g><path fill="#c7b299" d="M 2497.96875 1707.960938 C 2497.96875 1707.960938 2499.890625 1712.589844 2506.179688 1711.539062 C 2512.292969 1709.445312 2510.371094 1702.464844 2507.140625 1702.203125 C 2503.910156 1701.9375 2504.519531 1704.644531 2504.519531 1704.644531 C 2507.75 1704.207031 2509.324219 1707.4375 2506.09375 1709.183594 C 2501.726562 1710.144531 2497.359375 1705.78125 2500.9375 1700.980469 C 2504.519531 1696.265625 2509.671875 1698.882812 2509.671875 1698.882812 C 2509.671875 1698.882812 2511.855469 1696.964844 2515.613281 1697.050781 C 2519.890625 1697.402344 2519.628906 1700.457031 2519.628906 1700.457031 C 2512.554688 1698.796875 2508.1875 1705.953125 2512.816406 1711.800781 C 2518.757812 1716.863281 2524.257812 1711.453125 2524.257812 1711.453125 C 2524.257812 1711.453125 2525.832031 1714.070312 2529.675781 1713.546875 C 2534.566406 1713.199219 2539.195312 1713.113281 2539.195312 1713.113281 C 2539.195312 1711.976562 2539.28125 1708.484375 2539.628906 1703.597656 C 2540.15625 1699.671875 2537.535156 1698.1875 2537.535156 1698.1875 C 2537.535156 1698.1875 2542.949219 1692.6875 2537.882812 1686.839844 C 2532.03125 1682.214844 2524.871094 1686.578125 2526.53125 1693.648438 C 2526.53125 1693.648438 2523.472656 1693.910156 2523.125 1689.632812 C 2523.125 1685.96875 2524.957031 1683.785156 2524.957031 1683.785156 C 2524.957031 1683.785156 2522.25 1678.636719 2527.054688 1675.054688 C 2531.855469 1671.476562 2536.222656 1675.84375 2535.261719 1680.207031 C 2533.515625 1683.523438 2530.371094 1681.863281 2530.722656 1678.636719 C 2530.722656 1678.636719 2528.015625 1677.9375 2528.277344 1681.253906 C 2528.625 1684.484375 2535.527344 1686.316406 2537.621094 1680.292969 C 2538.667969 1674.007812 2534.039062 1672.089844 2534.039062 1672.089844 C 2534.039062 1672.089844 2537.972656 1667.898438 2535.699219 1662.402344 C 2535.699219 1662.402344 2533.867188 1661.265625 2533.605469 1665.457031 C 2533.34375 1669.644531 2531.945312 1671.304688 2530.285156 1671.390625 C 2528.625 1671.476562 2520.066406 1673.050781 2522.074219 1683.699219 C 2522.074219 1683.699219 2521.636719 1686.753906 2520.066406 1686.664062 C 2518.582031 1686.578125 2512.378906 1686.578125 2512.378906 1686.578125 C 2512.378906 1687.277344 2512.46875 1692.773438 2512.554688 1694.257812 C 2512.640625 1695.828125 2509.585938 1696.265625 2509.585938 1696.265625 C 2498.929688 1694.347656 2497.359375 1702.8125 2497.359375 1704.472656 C 2497.269531 1706.214844 2495.609375 1707.613281 2491.417969 1707.789062 C 2487.226562 1708.050781 2488.363281 1709.882812 2488.363281 1709.882812 C 2493.777344 1711.890625 2497.96875 1707.960938 2497.96875 1707.960938 Z M 2532.121094 1687.1875 C 2536.136719 1687.015625 2539.894531 1692.25 2535.175781 1698.449219 C 2535.175781 1698.449219 2537.359375 1699.933594 2537.183594 1702.375 C 2537.011719 1704.820312 2536.488281 1710.058594 2536.398438 1710.492188 C 2535.960938 1710.582031 2530.722656 1711.105469 2528.363281 1711.191406 C 2525.832031 1711.367188 2524.433594 1709.183594 2524.433594 1709.183594 C 2518.234375 1713.898438 2513.078125 1710.058594 2513.167969 1706.128906 C 2513.339844 1702.113281 2519.019531 1701.765625 2519.28125 1703.597656 C 2519.542969 1705.429688 2518.144531 1705.34375 2517.007812 1705.34375 C 2515.523438 1705.34375 2516.398438 1707.261719 2516.398438 1707.261719 C 2521.726562 1709.097656 2522.335938 1704.296875 2522.335938 1704.296875 C 2526.617188 1707 2530.898438 1704.90625 2530.898438 1704.90625 C 2531.070312 1704.558594 2532.90625 1700.457031 2530.285156 1696.351562 C 2530.285156 1696.351562 2535.089844 1695.742188 2533.253906 1690.417969 C 2533.253906 1690.417969 2531.332031 1689.546875 2531.332031 1691.027344 C 2531.332031 1692.164062 2531.421875 1693.558594 2529.585938 1693.296875 C 2527.753906 1693.125 2528.1875 1687.363281 2532.121094 1687.1875 Z M 2515.4375 1689.371094 L 2520.242188 1688.933594 C 2520.242188 1688.933594 2520.503906 1696.003906 2526.964844 1696.527344 C 2526.964844 1696.527344 2529.238281 1696.878906 2528.976562 1702.988281 C 2522.949219 1703.160156 2522.511719 1700.890625 2522.511719 1700.890625 C 2521.902344 1694.519531 2514.914062 1694.171875 2514.914062 1694.171875 Z M 2515.4375 1689.371094 " fill-opacity="1" fill-rule="nonzero"/><path fill="#c7b299" d="M 2492.292969 77.699219 C 2496.484375 77.960938 2498.058594 79.269531 2498.230469 81.015625 C 2498.320312 82.675781 2499.804688 91.140625 2510.460938 89.222656 C 2510.460938 89.222656 2513.515625 89.65625 2513.429688 91.226562 C 2513.339844 92.710938 2513.339844 98.210938 2513.253906 98.910156 C 2513.253906 98.910156 2519.457031 98.910156 2520.941406 98.820312 C 2522.597656 98.734375 2522.949219 101.789062 2522.949219 101.789062 C 2520.941406 112.4375 2529.5 114.007812 2531.160156 114.097656 C 2532.820312 114.183594 2534.214844 115.84375 2534.476562 120.03125 C 2534.738281 124.222656 2536.574219 123.085938 2536.574219 123.085938 C 2538.757812 117.585938 2534.914062 113.398438 2534.914062 113.398438 C 2534.914062 113.398438 2539.457031 111.476562 2538.496094 105.195312 C 2536.398438 99.171875 2529.410156 101.003906 2529.148438 104.234375 C 2528.800781 107.464844 2531.597656 106.851562 2531.597656 106.851562 C 2531.246094 103.621094 2534.390625 102.050781 2536.136719 105.28125 C 2537.097656 109.644531 2532.730469 114.007812 2527.925781 110.429688 C 2523.125 106.851562 2525.832031 101.703125 2525.832031 101.703125 C 2525.832031 101.703125 2523.996094 99.519531 2523.996094 95.855469 C 2524.347656 91.578125 2527.402344 91.839844 2527.402344 91.839844 C 2525.742188 98.910156 2532.90625 103.273438 2538.757812 98.648438 C 2543.824219 92.710938 2538.410156 87.300781 2538.410156 87.300781 C 2538.410156 87.300781 2541.027344 85.730469 2540.503906 81.890625 C 2540.15625 77 2540.066406 73.511719 2540.066406 72.375 C 2540.066406 72.375 2535.4375 72.289062 2530.546875 71.9375 C 2526.617188 71.414062 2525.132812 74.035156 2525.132812 74.035156 C 2525.132812 74.035156 2519.628906 68.621094 2513.691406 73.683594 C 2509.0625 79.445312 2513.429688 86.691406 2520.503906 85.03125 C 2520.503906 85.03125 2520.765625 88.085938 2516.484375 88.433594 C 2512.816406 88.433594 2510.546875 86.601562 2510.546875 86.601562 C 2510.546875 86.601562 2505.394531 89.308594 2501.8125 84.507812 C 2498.230469 79.707031 2502.597656 75.34375 2506.964844 76.304688 C 2510.285156 77.960938 2508.710938 81.191406 2505.394531 80.839844 C 2505.394531 80.839844 2504.695312 83.546875 2508.015625 83.285156 C 2511.246094 82.9375 2513.078125 76.042969 2507.054688 73.945312 C 2500.851562 72.898438 2498.84375 77.523438 2498.84375 77.523438 C 2498.84375 77.523438 2494.652344 73.683594 2489.148438 75.78125 C 2489.234375 75.605469 2488.101562 77.4375 2492.292969 77.699219 Z M 2517.535156 77.960938 C 2517.535156 77.960938 2516.660156 79.882812 2518.144531 79.882812 C 2519.28125 79.882812 2520.679688 79.792969 2520.414062 81.628906 C 2520.152344 83.460938 2514.390625 83.109375 2514.300781 79.097656 C 2514.128906 75.167969 2519.28125 71.328125 2525.570312 76.042969 C 2525.570312 76.042969 2527.054688 73.859375 2529.5 74.035156 C 2531.855469 74.207031 2537.097656 74.730469 2537.535156 74.730469 C 2537.535156 75.167969 2538.144531 80.40625 2538.320312 82.847656 C 2538.496094 85.292969 2536.3125 86.777344 2536.3125 86.777344 C 2541.027344 92.972656 2537.183594 98.210938 2533.253906 98.035156 C 2529.324219 97.863281 2528.886719 92.101562 2530.722656 91.839844 C 2532.644531 91.578125 2532.46875 92.972656 2532.46875 94.109375 C 2532.46875 95.59375 2534.390625 94.71875 2534.390625 94.71875 C 2536.136719 89.394531 2531.421875 88.785156 2531.421875 88.785156 C 2534.039062 84.59375 2532.207031 80.578125 2532.03125 80.230469 C 2532.03125 80.230469 2527.753906 78.136719 2523.472656 80.839844 C 2523.386719 80.929688 2522.863281 76.128906 2517.535156 77.960938 Z M 2523.558594 84.332031 C 2523.558594 84.332031 2523.910156 82.0625 2530.023438 82.238281 C 2530.285156 88.261719 2528.015625 88.695312 2528.015625 88.695312 C 2521.550781 89.222656 2521.289062 96.289062 2521.289062 96.289062 L 2516.484375 95.855469 L 2516.050781 90.964844 C 2515.960938 91.054688 2523.035156 90.703125 2523.558594 84.332031 Z M 2523.558594 84.332031 " fill-opacity="1" fill-rule="nonzero"/><g clip-path="url(#07709f5543)"><path fill="#c7b299" d="M 1612.511719 53.785156 L 1612.511719 1732.226562 L 2558.410156 1732.226562 L 2558.410156 53.785156 Z M 2555.789062 1729.609375 L 1615.132812 1729.609375 L 1615.132812 56.402344 L 2555.789062 56.402344 Z M 2555.789062 1729.609375 " fill-opacity="1" fill-rule="nonzero"/></g><g clip-path="url(#fef59d9a2b)"><path fill="#c7b299" d="M 2551.421875 60.765625 L 1619.5 60.765625 L 1619.5 1725.242188 L 2551.421875 1725.242188 Z M 2548.800781 1722.625 L 1622.121094 1722.625 L 1622.121094 63.386719 L 2548.800781 63.386719 Z M 2548.800781 1722.625 " fill-opacity="1" fill-rule="nonzero"/></g></g></g></svg>