<svg xmlns="http://www.w3.org/2000/svg" width="256" height="256" fill="none" viewBox="0 0 256 256">
<!-- SVG created with Arrow, by QuiverAI (https://quiver.ai) -->
  <path d="m225.7 32.93h-196.6c-14.65 0-25.83 14.89-25.83 28.21v143.7c0 14.48 13.03 28.58 27.4 28.58h193.7c15.2 0 29-13.91 29-29.29v-142c0-15.6-12.59-29.19-27.67-29.19zm8.72 155.8c0 15.03-12.52 28.15-28.29 28.15h-158.6c-15.53 0-28.37-13.64-28.37-28.97v-113.8c0-15.35 11.98-28.8 27.91-28.8h158.7c16.04 0 28.67 14.2 28.67 29.38v114z" fill="url(#paint0_linear_1832_11978)"/>
  <path d="m253.4 78.71v-16.59c0-15.18-11.92-28.68-26.74-29.17h-18.21l44.95 45.76z" fill="url(#paint1_linear_1832_11978)"/>
  <path d="m253.4 78.71-17.8 18.68 17.8 22.22v-40.9z" fill="url(#paint2_linear_1832_11978)"/>
  <path d="m3.31 138.2v38.24l16.07-17.54-16.07-20.7z" fill="url(#paint3_linear_1832_11978)"/>
  <path d="m164.2 19.32c-2.5-4.46-6.05-5.69-10.99-5.69h-51.87c-4.62 0-7.73 2.33-10.31 7.41l-6.38 10.87h85.97l-6.42-12.59z" fill="url(#paint4_linear_1832_11978)"/>
  <path d="m193.4 23.12c-2.51 0-3.84 2.12-3.84 4.09v4.7h26.45c2.27 0 2.25-1.93 2.25-3.47v-1.23c0-1.82-1.12-4.09-3.43-4.09h-21.43z" fill="url(#paint5_linear_1832_11978)"/>
  <path d="m205.8 45.36h-48.04l-26.04 12.2 0.07-0.09h63.39c13.77 0 24.24 12.69 24.24 28.09v24.46l15.05-13.73v-21.55c0-15.18-12.63-29.38-28.67-29.38z" fill="url(#paint6_linear_1832_11978)"/>
  <path d="m235.6 96.92v91.81c0 15.03-13.2 28.15-29.44 28.15h-100.8l14.91-13.67 73.2-0.01c14.17 0 25.92-12.22 25.92-25.28v-67.9l16.2-13.1z" fill="url(#paint7_linear_1832_11978)"/>
  <path d="m47.59 45.36c-15.53 0-28.37 13.45-28.37 28.8v113.8c0 15.33 12.84 28.97 28.37 28.97h57.42l15.21-13.67-61.3-0.01c-12.8 0-25-11.4-25-25.02v-92.82c0-12.43 10.81-27.89 24.99-27.89h77.11l10.92-12.11h-99.35z" fill="url(#paint8_linear_1832_11978)"/>
  <path d="m207.4 229c-0.69 0 0.6-2.21-0.85-4.31-2.72-3.89-10.44-1.86-10.44 3.38 0 0.66-0.52 0.51-1.16 0.51-2.1 0-3.86 2.03-3.34 4.05 0.73 2.85 3.58 2.45 3.58 3.11 0 3.24 1.66 5.69 4.77 5.69h0.93c3.15 0 4.58-2.55 4.58-4.34 0-0.66 2.8 0.14 4.79-2.45 1.99-2.6 0.59-5.64-2.86-5.64z" fill="url(#paint9_linear_1832_11978)"/>
  <path d="m183.8 231.5c-0.95-0.81-0.96-0.6-0.06-2.28 1.53-3.03-2.03-5.53-4.75-4.25-1.16 0.56-0.01-2.71-3.06-3.26-4.18-0.76-4.39 3.65-4.49 3.9-0.34 0.8-1.35-1.4-3.36 0.09-2.58 1.92-1.16 5.27-0.65 5.72 0.62 0.56-1.28 0.68-0.19 3.69 1 3.03 3.69 2.2 4.05 2.13 0.77-0.16 0.45 3.72 4.09 3.72 3.56 0 3.48-3.37 3.89-3.54 0.72-0.3 1.83 1.53 4.29-0.32 2.23-1.61 1.65-4.51 0.24-5.6zm-7.05 3.64c-2.31 0-3.26-2.08-2.78-3.96 0.74-2.85 3.35-2.43 3.4-2.39 2.75 0.78 2.65 6.35-0.62 6.35z" fill="url(#paint10_linear_1832_11978)"/>
  <path d="m211.4 71.21c-0.68 0 0.3-1.2-0.2-2.8-1.02-3.1-4.8-2.58-5.85-0.45-0.57 1.17-0.32 1.92-1.45 2.15-2.72 0.57-3.8 3.62-2.53 5.41 0.81 1.15 1.33 1.06 0.91 1.79-1.97 3.6 1.3 5.67 3.23 5.11 1.69-0.53 1.59-1.01 2.09 0.35 0.88 2.56 4.18 2.36 5.56-0.04 1.12-2.07-0.09-3.54 0.44-3.98 2.26-1.88 1.45-7.54-2.2-7.54zm-5.4 3.68c-0.3-1.82 1.45-2.8 2.77-2.26 2.16 0.9 1.51 4.18-0.72 4.18-1.37 0-1.85-1.05-2.05-1.92z" fill="url(#paint11_linear_1832_11978)"/>
  <path d="m211.2 193.1c-8.18-5.51-17.16-4.92-23.38 0.84 6.5 6.09 16.08 6.09 23.38-0.84z" fill="url(#paint12_linear_1832_11978)"/>
  <path d="m211 191c6.4-6.06 6.27-14.72 0-21.38-6.05 6.76-6.3 15.62 0 21.38z" fill="url(#paint13_linear_1832_11978)"/>
  <path d="m183.8 68.74c4.39 0.45 11.9-1.03 12.89-8.13-7.24-1.45-11.51 3.32-12.89 8.13z" fill="url(#paint14_linear_1832_11978)"/>
  <path d="m233.6 53.75c3.17 3.42 6.33 4.18 10.1 3.37-1.48-4.8-4.56-5.65-10.1-3.37z" fill="url(#paint15_linear_1832_11978)"/>
  <path d="m234.6 50.43c4.19-0.81 5.97-3.62 6.27-7.32-4.8 0.9-6.7 3.65-6.27 7.32z" fill="url(#paint16_linear_1832_11978)"/>
  <path d="m229.6 38.92c-2.38 4.26-1.45 8.95 2.21 11.15 2.02-4.36 1.09-8.06-2.21-11.15z" fill="url(#paint17_linear_1832_11978)"/>
  <path d="m66.43 30.94c9.79-2.21 14.88-9.12 15.58-17.51-9.25 0.66-14.68 9.22-15.58 17.51z" fill="url(#paint18_linear_1832_11978)"/>
  <path d="m53.18 18.86c0.7 7.55 4.91 11.6 10.45 11.95-0.32-7.24-4.57-11.22-10.45-11.95z" fill="url(#paint19_linear_1832_11978)"/>
  <path d="m45.32 65.79c7.39 6.38 16.39 5.77 22.44 0.97-4.85-6.25-13.92-6.53-22.44-0.97z" fill="url(#paint20_linear_1832_11978)"/>
  <path d="m44.83 68.74c-6.54 6.88-7.6 15.47-0.24 23.49 6.3-7.41 5.99-15.48 0.24-23.49z" fill="url(#paint21_linear_1832_11978)"/>
  <path d="m55.82 187.4c-3.63-0.89-7.62-0.25-10.71 4.83 4.9 1.42 9.05-0.5 10.71-4.83z" fill="url(#paint22_linear_1832_11978)"/>
  <path d="m44.94 179.8c-4.33 4.4-3.56 9.38 0.07 12.33 3.8-4.15 4.27-8.21-0.07-12.33z" fill="url(#paint23_linear_1832_11978)"/>
  <path d="m55.71 200.1c6.5-0.89 10.4-4.59 11.1-10.19-6.8 0-10.37 4.11-11.1 10.19z" fill="url(#paint24_linear_1832_11978)"/>
  <path d="m212.1 86.16c-1.52 3.67-1.67 7.01 1.45 9.45 2.02-3.99 2.2-6.49-1.45-9.45z" fill="url(#paint25_linear_1832_11978)"/>
  <path d="m11.32 206.1c2.02 4.63 5.82 5.88 10.64 4.39-1.31-4.86-4.95-5.16-10.64-4.39z" fill="url(#paint26_linear_1832_11978)"/>
  <path d="m14.82 220.4c4.45-0.32 6.52-2.55 6.87-7.15-4.81 0.35-6.55 2.78-6.87 7.15z" fill="url(#paint27_linear_1832_11978)"/>
  <path d="m25.38 212c-0.97 5.67 1.35 10.65 4.8 14.07 2.58-4.3 0.84-10.89-4.8-14.07z" fill="url(#paint28_linear_1832_11978)"/>
  <defs>
    <linearGradient id="paint0_linear_1832_11978" x1="22.15" x2="240.1" y1="32.93" y2="237" gradientUnits="userSpaceOnUse">
      <stop stop-color="#9BF7D0" offset="0"/>
      <stop stop-color="#91E8BB" offset="1"/>
    </linearGradient>
    <linearGradient id="paint1_linear_1832_11978" x1="221.1" x2="255.3" y1="31.82" y2="77.59" gradientUnits="userSpaceOnUse">
      <stop stop-color="#B0DA56" offset="0"/>
      <stop stop-color="#91E5A8" offset="1"/>
    </linearGradient>
    <linearGradient id="paint2_linear_1832_11978" x1="244.5" x2="253.5" y1="81.78" y2="115.2" gradientUnits="userSpaceOnUse">
      <stop stop-color="#56BC94" offset="0"/>
      <stop stop-color="#54B19D" offset="1"/>
    </linearGradient>
    <linearGradient id="paint3_linear_1832_11978" x1="4.694" x2="17.44" y1="139" y2="160.3" gradientUnits="userSpaceOnUse">
      <stop stop-color="#B9E778" offset="0"/>
      <stop stop-color="#B1E678" offset="1"/>
    </linearGradient>
    <linearGradient id="paint4_linear_1832_11978" x1="95.42" x2="128.8" y1="10.99" y2="45.24" gradientUnits="userSpaceOnUse">
      <stop stop-color="#4BB79D" offset="0"/>
      <stop stop-color="#A1DB61" offset="1"/>
    </linearGradient>
    <linearGradient id="paint5_linear_1832_11978" x1="192.1" x2="200.5" y1="21.2" y2="37.33" gradientUnits="userSpaceOnUse">
      <stop stop-color="#4BB79D" offset="0"/>
      <stop stop-color="#A1DB61" offset="1"/>
    </linearGradient>
    <linearGradient id="paint6_linear_1832_11978" x1="135.2" x2="237.8" y1="45.36" y2="93.89" gradientUnits="userSpaceOnUse">
      <stop stop-color="#77E0A3" offset="0"/>
      <stop stop-color="#DBE6A5" offset="1"/>
    </linearGradient>
    <linearGradient id="paint7_linear_1832_11978" x1="134.5" x2="238.1" y1="107.9" y2="203.7" gradientUnits="userSpaceOnUse">
      <stop stop-color="#99D756" offset="0"/>
      <stop stop-color="#B9E778" offset="1"/>
    </linearGradient>
    <linearGradient id="paint8_linear_1832_11978" x1="10.97" x2="126.2" y1="45.36" y2="212.6" gradientUnits="userSpaceOnUse">
      <stop stop-color="#4BB79D" offset="0"/>
      <stop stop-color="#54BBA3" offset="1"/>
    </linearGradient>
    <linearGradient id="paint9_linear_1832_11978" x1="194.2" x2="207" y1="222.9" y2="242.9" gradientUnits="userSpaceOnUse">
      <stop stop-color="#91E5A8" offset="0"/>
      <stop stop-color="#98D679" offset="1"/>
    </linearGradient>
    <linearGradient id="paint10_linear_1832_11978" x1="169.9" x2="183.8" y1="221.6" y2="241.6" gradientUnits="userSpaceOnUse">
      <stop stop-color="#91E5A8" offset="0"/>
      <stop stop-color="#98D679" offset="1"/>
    </linearGradient>
    <linearGradient id="paint11_linear_1832_11978" x1="201.1" x2="213" y1="65.1" y2="85.35" gradientUnits="userSpaceOnUse">
      <stop stop-color="#91E5A8" offset="0"/>
      <stop stop-color="#98D679" offset="1"/>
    </linearGradient>
    <linearGradient id="paint12_linear_1832_11978" x1="191.5" x2="197" y1="189.3" y2="199" gradientUnits="userSpaceOnUse">
      <stop stop-color="#91E5A8" offset="0"/>
      <stop stop-color="#98D679" offset="1"/>
    </linearGradient>
    <linearGradient id="paint13_linear_1832_11978" x1="205.2" x2="218.5" y1="171.2" y2="179.3" gradientUnits="userSpaceOnUse">
      <stop stop-color="#4BB79D" offset="0"/>
      <stop stop-color="#54BBA3" offset="1"/>
    </linearGradient>
    <linearGradient id="paint14_linear_1832_11978" x1="186.1" x2="192.1" y1="60.34" y2="69.51" gradientUnits="userSpaceOnUse">
      <stop stop-color="#77E0A3" offset="0"/>
      <stop stop-color="#54BBA3" offset="1"/>
    </linearGradient>
    <linearGradient id="paint15_linear_1832_11978" x1="234.8" x2="239.7" y1="52.16" y2="58.26" gradientUnits="userSpaceOnUse">
      <stop stop-color="#4BB79D" offset="0"/>
      <stop stop-color="#54BBA3" offset="1"/>
    </linearGradient>
    <linearGradient id="paint16_linear_1832_11978" x1="235.7" x2="240" y1="42.93" y2="50.02" gradientUnits="userSpaceOnUse">
      <stop stop-color="#4BB79D" offset="0"/>
      <stop stop-color="#54BBA3" offset="1"/>
    </linearGradient>
    <linearGradient id="paint17_linear_1832_11978" x1="228.7" x2="233.2" y1="38.47" y2="47.68" gradientUnits="userSpaceOnUse">
      <stop stop-color="#4BB79D" offset="0"/>
      <stop stop-color="#54BBA3" offset="1"/>
    </linearGradient>
    <linearGradient id="paint18_linear_1832_11978" x1="68.82" x2="78.66" y1="14.11" y2="30.9" gradientUnits="userSpaceOnUse">
      <stop stop-color="#77E0A3" offset="0"/>
      <stop stop-color="#91E5A8" offset="1"/>
    </linearGradient>
    <linearGradient id="paint19_linear_1832_11978" x1="54.56" x2="61.16" y1="18.75" y2="30.82" gradientUnits="userSpaceOnUse">
      <stop stop-color="#91E5A8" offset="0"/>
      <stop stop-color="#98D679" offset="1"/>
    </linearGradient>
    <linearGradient id="paint20_linear_1832_11978" x1="48.28" x2="55.46" y1="61.86" y2="72.92" gradientUnits="userSpaceOnUse">
      <stop stop-color="#4BB79D" offset="0"/>
      <stop stop-color="#54BBA3" offset="1"/>
    </linearGradient>
    <linearGradient id="paint21_linear_1832_11978" x1="39.72" x2="50.81" y1="70.15" y2="85.74" gradientUnits="userSpaceOnUse">
      <stop stop-color="#99D756" offset="0"/>
      <stop stop-color="#B9E778" offset="1"/>
    </linearGradient>
    <linearGradient id="paint22_linear_1832_11978" x1="47.09" x2="52.33" y1="186.6" y2="194.1" gradientUnits="userSpaceOnUse">
      <stop stop-color="#91E5A8" offset="0"/>
      <stop stop-color="#98D679" offset="1"/>
    </linearGradient>
    <linearGradient id="paint23_linear_1832_11978" x1="42.17" x2="49.08" y1="180.3" y2="189.1" gradientUnits="userSpaceOnUse">
      <stop stop-color="#4BB79D" offset="0"/>
      <stop stop-color="#54BBA3" offset="1"/>
    </linearGradient>
    <linearGradient id="paint24_linear_1832_11978" x1="57.66" x2="64.58" y1="189.6" y2="199.7" gradientUnits="userSpaceOnUse">
      <stop stop-color="#99D756" offset="0"/>
      <stop stop-color="#B9E778" offset="1"/>
    </linearGradient>
    <linearGradient id="paint25_linear_1832_11978" x1="210.7" x2="215.2" y1="86.02" y2="91.02" gradientUnits="userSpaceOnUse">
      <stop stop-color="#99D756" offset="0"/>
      <stop stop-color="#B9E778" offset="1"/>
    </linearGradient>
    <linearGradient id="paint26_linear_1832_11978" x1="13.09" x2="17.66" y1="205.4" y2="211.4" gradientUnits="userSpaceOnUse">
      <stop stop-color="#99D756" offset="0"/>
      <stop stop-color="#B9E778" offset="1"/>
    </linearGradient>
    <linearGradient id="paint27_linear_1832_11978" x1="15.91" x2="20.99" y1="212.8" y2="219.5" gradientUnits="userSpaceOnUse">
      <stop stop-color="#99D756" offset="0"/>
      <stop stop-color="#B9E778" offset="1"/>
    </linearGradient>
    <linearGradient id="paint28_linear_1832_11978" x1="24.73" x2="31.29" y1="212.1" y2="223.7" gradientUnits="userSpaceOnUse">
      <stop stop-color="#99D756" offset="0"/>
      <stop stop-color="#B9E778" offset="1"/>
    </linearGradient>
  </defs>
</svg>