<svg xmlns="http://www.w3.org/2000/svg" xmlns:xlink="http://www.w3.org/1999/xlink" width="3780" zoomAndPan="magnify" viewBox="0 0 2835 2834.999876" height="3780" preserveAspectRatio="xMidYMid meet" version="1.0"><metadata/><defs><clipPath id="516a75a469"><path d="M 233 735 L 2699.421875 735 L 2699.421875 2218 L 233 2218 Z M 233 735 " clip-rule="nonzero"/></clipPath><clipPath id="1a6b69e2b1"><path d="M 135.171875 616 L 2616 616 L 2616 2114 L 135.171875 2114 Z M 135.171875 616 " clip-rule="nonzero"/></clipPath></defs><g clip-path="url(#516a75a469)"><path fill="#e0d5b2" d="M 233.082031 735.492188 L 2699.128906 735.492188 L 2699.128906 2217.515625 L 233.082031 2217.515625 Z M 233.082031 735.492188 " fill-opacity="1" fill-rule="nonzero"/></g><path fill="#fff6cf" d="M 142.546875 624 L 2608.589844 624 L 2608.589844 2106.023438 L 142.546875 2106.023438 Z M 142.546875 624 " fill-opacity="1" fill-rule="nonzero"/><path fill="#f9f0cb" d="M 142.546875 2106.023438 C 142.546875 2106.023438 2371.921875 1992.460938 2608.589844 624 L 2608.589844 2106.023438 Z M 142.546875 2106.023438 " fill-opacity="1" fill-rule="nonzero"/><path fill="#00a79d" d="M 310.203125 741.835938 C 310.203125 743.363281 310.128906 744.882812 309.976562 746.402344 C 309.828125 747.921875 309.605469 749.429688 309.304688 750.925781 C 309.007812 752.425781 308.636719 753.902344 308.195312 755.363281 C 307.753906 756.824219 307.238281 758.261719 306.65625 759.671875 C 306.070312 761.082031 305.417969 762.457031 304.699219 763.804688 C 303.980469 765.152344 303.195312 766.457031 302.347656 767.726562 C 301.5 768.996094 300.59375 770.21875 299.625 771.402344 C 298.65625 772.582031 297.632812 773.710938 296.554688 774.789062 C 295.476562 775.867188 294.347656 776.890625 293.167969 777.859375 C 291.988281 778.828125 290.761719 779.738281 289.492188 780.585938 C 288.222656 781.433594 286.917969 782.214844 285.570312 782.9375 C 284.226562 783.65625 282.847656 784.308594 281.4375 784.890625 C 280.027344 785.476562 278.59375 785.988281 277.132812 786.433594 C 275.671875 786.875 274.191406 787.246094 272.695312 787.542969 C 271.199219 787.839844 269.691406 788.066406 268.171875 788.214844 C 266.65625 788.363281 265.132812 788.4375 263.605469 788.4375 C 262.078125 788.4375 260.558594 788.363281 259.039062 788.214844 C 257.519531 788.066406 256.011719 787.839844 254.515625 787.542969 C 253.019531 787.246094 251.539062 786.875 250.078125 786.433594 C 248.621094 785.988281 247.183594 785.476562 245.773438 784.890625 C 244.363281 784.308594 242.988281 783.65625 241.640625 782.9375 C 240.296875 782.214844 238.988281 781.433594 237.71875 780.585938 C 236.449219 779.738281 235.226562 778.828125 234.046875 777.859375 C 232.867188 776.890625 231.738281 775.867188 230.65625 774.789062 C 229.578125 773.710938 228.554688 772.582031 227.585938 771.402344 C 226.617188 770.21875 225.710938 768.996094 224.863281 767.726562 C 224.015625 766.457031 223.230469 765.152344 222.511719 763.804688 C 221.792969 762.457031 221.140625 761.082031 220.558594 759.671875 C 219.972656 758.261719 219.460938 756.824219 219.015625 755.363281 C 218.574219 753.902344 218.203125 752.425781 217.90625 750.925781 C 217.609375 749.429688 217.382812 747.921875 217.234375 746.402344 C 217.085938 744.882812 217.011719 743.363281 217.011719 741.835938 C 217.011719 740.308594 217.085938 738.785156 217.234375 737.269531 C 217.382812 735.75 217.609375 734.242188 217.90625 732.742188 C 218.203125 731.246094 218.574219 729.769531 219.015625 728.308594 C 219.460938 726.847656 219.972656 725.410156 220.558594 724 C 221.140625 722.589844 221.792969 721.214844 222.511719 719.867188 C 223.230469 718.519531 224.015625 717.214844 224.863281 715.945312 C 225.710938 714.675781 226.617188 713.449219 227.585938 712.269531 C 228.554688 711.089844 229.578125 709.960938 230.65625 708.882812 C 231.738281 707.800781 232.867188 706.777344 234.046875 705.808594 C 235.226562 704.84375 236.449219 703.933594 237.71875 703.085938 C 238.988281 702.238281 240.296875 701.453125 241.640625 700.734375 C 242.988281 700.015625 244.363281 699.363281 245.773438 698.78125 C 247.183594 698.195312 248.621094 697.683594 250.078125 697.238281 C 251.539062 696.796875 253.019531 696.425781 254.515625 696.128906 C 256.011719 695.828125 257.519531 695.605469 259.039062 695.457031 C 260.558594 695.308594 262.078125 695.230469 263.605469 695.230469 C 265.132812 695.230469 266.65625 695.308594 268.171875 695.457031 C 269.691406 695.605469 271.199219 695.828125 272.695312 696.128906 C 274.191406 696.425781 275.671875 696.796875 277.132812 697.238281 C 278.59375 697.683594 280.027344 698.195312 281.4375 698.78125 C 282.847656 699.363281 284.226562 700.015625 285.570312 700.734375 C 286.917969 701.453125 288.222656 702.238281 289.492188 703.085938 C 290.761719 703.933594 291.988281 704.84375 293.167969 705.808594 C 294.347656 706.777344 295.476562 707.800781 296.554688 708.882812 C 297.632812 709.960938 298.65625 711.089844 299.625 712.269531 C 300.59375 713.449219 301.5 714.675781 302.347656 715.945312 C 303.195312 717.214844 303.980469 718.519531 304.699219 719.867188 C 305.417969 721.214844 306.070312 722.589844 306.65625 724 C 307.238281 725.410156 307.753906 726.847656 308.195312 728.308594 C 308.636719 729.769531 309.007812 731.246094 309.304688 732.742188 C 309.605469 734.242188 309.828125 735.75 309.976562 737.269531 C 310.128906 738.785156 310.203125 740.308594 310.203125 741.835938 Z M 310.203125 741.835938 " fill-opacity="1" fill-rule="nonzero"/><path fill="#00a79d" d="M 2550.789062 741.835938 C 2550.789062 743.363281 2550.710938 744.882812 2550.5625 746.402344 C 2550.414062 747.921875 2550.191406 749.429688 2549.890625 750.925781 C 2549.59375 752.425781 2549.222656 753.902344 2548.78125 755.363281 C 2548.335938 756.824219 2547.824219 758.261719 2547.238281 759.671875 C 2546.65625 761.082031 2546.003906 762.457031 2545.285156 763.804688 C 2544.566406 765.152344 2543.78125 766.457031 2542.933594 767.726562 C 2542.085938 768.996094 2541.179688 770.21875 2540.210938 771.402344 C 2539.242188 772.582031 2538.21875 773.710938 2537.140625 774.789062 C 2536.0625 775.867188 2534.929688 776.890625 2533.75 777.859375 C 2532.570312 778.828125 2531.347656 779.738281 2530.078125 780.585938 C 2528.808594 781.433594 2527.503906 782.214844 2526.15625 782.9375 C 2524.808594 783.65625 2523.433594 784.308594 2522.023438 784.890625 C 2520.613281 785.476562 2519.175781 785.988281 2517.71875 786.433594 C 2516.257812 786.875 2514.777344 787.246094 2513.28125 787.542969 C 2511.785156 787.839844 2510.277344 788.066406 2508.757812 788.214844 C 2507.238281 788.363281 2505.71875 788.4375 2504.191406 788.4375 C 2502.664062 788.4375 2501.144531 788.363281 2499.625 788.214844 C 2498.105469 788.066406 2496.597656 787.839844 2495.101562 787.542969 C 2493.605469 787.246094 2492.125 786.875 2490.664062 786.433594 C 2489.203125 785.988281 2487.769531 785.476562 2486.359375 784.890625 C 2484.949219 784.308594 2483.570312 783.65625 2482.226562 782.9375 C 2480.878906 782.214844 2479.570312 781.433594 2478.304688 780.585938 C 2477.035156 779.738281 2475.808594 778.828125 2474.628906 777.859375 C 2473.449219 776.890625 2472.320312 775.867188 2471.242188 774.789062 C 2470.164062 773.710938 2469.140625 772.582031 2468.171875 771.402344 C 2467.203125 770.21875 2466.296875 768.996094 2465.449219 767.726562 C 2464.601562 766.457031 2463.816406 765.152344 2463.097656 763.804688 C 2462.378906 762.457031 2461.726562 761.082031 2461.140625 759.671875 C 2460.558594 758.261719 2460.042969 756.824219 2459.601562 755.363281 C 2459.160156 753.902344 2458.789062 752.425781 2458.492188 750.925781 C 2458.191406 749.429688 2457.96875 747.921875 2457.820312 746.402344 C 2457.671875 744.882812 2457.59375 743.363281 2457.59375 741.835938 C 2457.59375 740.308594 2457.671875 738.785156 2457.820312 737.269531 C 2457.96875 735.75 2458.191406 734.242188 2458.492188 732.742188 C 2458.789062 731.246094 2459.160156 729.769531 2459.601562 728.308594 C 2460.046875 726.847656 2460.558594 725.410156 2461.140625 724 C 2461.726562 722.589844 2462.378906 721.214844 2463.097656 719.867188 C 2463.816406 718.519531 2464.601562 717.214844 2465.449219 715.945312 C 2466.296875 714.675781 2467.203125 713.449219 2468.171875 712.269531 C 2469.140625 711.089844 2470.164062 709.960938 2471.242188 708.882812 C 2472.320312 707.800781 2473.453125 706.777344 2474.632812 705.808594 C 2475.8125 704.84375 2477.035156 703.933594 2478.304688 703.085938 C 2479.574219 702.238281 2480.878906 701.453125 2482.226562 700.734375 C 2483.570312 700.015625 2484.949219 699.363281 2486.359375 698.78125 C 2487.769531 698.195312 2489.203125 697.683594 2490.664062 697.238281 C 2492.125 696.796875 2493.605469 696.425781 2495.101562 696.128906 C 2496.597656 695.828125 2498.105469 695.605469 2499.625 695.457031 C 2501.144531 695.308594 2502.664062 695.230469 2504.191406 695.230469 C 2505.71875 695.230469 2507.238281 695.308594 2508.757812 695.457031 C 2510.277344 695.605469 2511.785156 695.828125 2513.28125 696.128906 C 2514.777344 696.425781 2516.257812 696.796875 2517.71875 697.238281 C 2519.175781 697.683594 2520.613281 698.195312 2522.023438 698.78125 C 2523.433594 699.363281 2524.808594 700.015625 2526.15625 700.734375 C 2527.503906 701.453125 2528.808594 702.238281 2530.078125 703.085938 C 2531.347656 703.933594 2532.570312 704.84375 2533.75 705.808594 C 2534.929688 706.777344 2536.0625 707.800781 2537.140625 708.882812 C 2538.21875 709.960938 2539.242188 711.089844 2540.210938 712.269531 C 2541.179688 713.449219 2542.085938 714.675781 2542.933594 715.945312 C 2543.78125 717.214844 2544.566406 718.519531 2545.285156 719.867188 C 2546.003906 721.214844 2546.65625 722.589844 2547.238281 724 C 2547.824219 725.410156 2548.335938 726.847656 2548.78125 728.308594 C 2549.222656 729.769531 2549.59375 731.246094 2549.890625 732.742188 C 2550.191406 734.242188 2550.414062 735.75 2550.5625 737.269531 C 2550.710938 738.785156 2550.789062 740.308594 2550.789062 741.835938 Z M 2550.789062 741.835938 " fill-opacity="1" fill-rule="nonzero"/><g clip-path="url(#1a6b69e2b1)"><path fill="#082a44" d="M 2615.960938 2113.394531 L 142.546875 2113.394531 C 138.417969 2113.394531 135.171875 2110.152344 135.171875 2106.023438 C 135.171875 2101.890625 138.417969 2098.648438 142.546875 2098.648438 L 2601.21875 2098.648438 L 2601.21875 624 C 2601.21875 619.871094 2604.460938 616.625 2608.589844 616.625 C 2612.71875 616.625 2615.960938 619.871094 2615.960938 624 Z M 2615.960938 2113.394531 " fill-opacity="1" fill-rule="nonzero"/></g></svg>