<svg xmlns="http://www.w3.org/2000/svg" width="256" height="256" fill="none" viewBox="0 0 256 256">
<!-- SVG created with Arrow, by QuiverAI (https://quiver.ai) -->
  <path d="m235.4 28.22-35.14 0.73c-5.1 0.16-10.63 0.02-15.99-0.32l-36.34-1.47c-13.54-0.36-55.41 2.2-74.06 2.26-10.45 0.04-24.45-0.88-29.41-1.26l-8.25-4.63-14.51-1.87c-2.02-0.28-3.74 0.45-5.1 1.76l-8.56 7.52c-1.87 1.52-3.15 3.27-4.3 5.56l-1.28 2.82c-1.01 1.65-1.48 3.01-1.35 4.88l1.29 13.96c0.12 2.01 0.88 3.54 2.34 4.76l7.97 6.87c1.58 1.47 3.56 2.32 5.79 2.48l14.32 1.15c2.44 0.38 4.47-0.21 6.21-1.86l1.94-1.52c5.82 0.3 19.33 0.84 30.24 0.75 17.51-0.15 51.54-2.62 74.61-3.09 12.33-0.27 29.39 1.65 50.22 1.79 10.72 0.07 22.01-0.95 41.67-1.57 10.31-0.34 15.64-11.88 15.64-18.79 0-10.52-7.54-21.03-17.95-20.91z" fill="#FEFFFB" stroke="#125F61" stroke-miterlimit="10" stroke-width=".6"/>
  <path d="m44.38 31.64c8.9 0.93 20.65 1.56 31.01 1.45 13.65-0.16 52.4-2.8 70.39-2.8 12.94 0 30.87 2.07 49.37 2.07 10 0 24.12-1.15 39.13-1.56 12-0.34 16.01 9.13 16.01 17.4 0 8.99-5.76 16.5-14.56 16.87-12.94 0.59-22.72 2.02-36.56 1.84-17.06-0.24-34.46-1.88-52.04-1.88-15.67 0-43.19 3.3-73.71 3.3-9.64 0-21.65-0.92-32.5-1.32" stroke="#88A856" stroke-miterlimit="10" stroke-width=".5"/>
  <path d="m21.18 24.71-11.87 9.23-4.45 9.47 0.96 15.32 8.87 9.48 20.22 2.51 9.8-6.98 4.75-11.8v-11.8l-6.35-9.47-12.17-5.96h-9.76z" fill="#158E61" stroke="#158E61" stroke-miterlimit="10" stroke-width=".7"/>
  <path d="m29.99 30.46-13.18 3.48-5.4 5.61-2.78 8.75 5.7 9.47 6.96 5.34 3.62 1.71 10-2.51 6.25-5.96 4.3-8.05-1.1-5.24-6.35-7.7-8.02-4.9z" fill="#FEFFFB" stroke="#FEFFFB" stroke-miterlimit="10" stroke-width=".7"/>
  <path d="m235.4 85.22-35.14 1.35c-5.1 0.3-10.63 0.24-15.99 0.02l-56.99-1.58c-10.95-0.36-27.1 0.78-43.68 1.21-9.87 0.59-20.53 0.41-33.59-0.51l-5.55-0.55-14.21-6.45-9.76-1.19-11.87 9.11-4.75 7.09-1.77 3.99 1.34 16.47c0.12 1.52 1.02 2.93 2.25 3.98l8.68 7.15c1.36 1.2 3.08 1.79 4.94 1.85l14.2 0.75c2.1 0.24 3.9-0.43 5.41-1.84l2.11-2.01c5.7 0.43 13.67 1.02 24.58 1.02 12.89 0 40.47-2.35 55.21-2.05 13.59 0.3 36.67 3.42 67.98 3.72 13.07 0.12 25.95-0.89 46.11-2.14 11.81-0.73 18.06-11.5 18.06-19.55 0-10.51-7.16-20.05-17.57-19.84z" fill="#FEFFFB" stroke="#125F61" stroke-miterlimit="10" stroke-width=".6"/>
  <path d="m44.37 86.81c7.49 0.92 16.15 1.65 25.66 1.53 12.83-0.06 34.88-1.59 50.78-1.59 15.22 0 44.22 2.01 68.1 2.01 11.81 0 22.37-0.91 43.2-1.5 12.01-0.45 16.81 8.72 16.81 17.25 0 8.84-6.46 16.41-14.74 16.94-13.24 1.16-24.07 2.74-42.06 2.74-18.11 0-45.51-2.62-70.35-2.98-12.71-0.18-35.11 1.82-51.58 1.82-9.63 0-18.48-0.48-29.03-1.34" stroke="#88A856" stroke-miterlimit="10" stroke-width=".5"/>
  <path d="m20.5 80.94-11.34 8.97-3.95 8.91v13.45l9.75 10.64 8.87 2.17 10.96 0.96 4.75-1.53 7.18-9.17 2.5-7.7v-12.02l-6.71-9.17-22.01-5.51z" fill="#96CC59" stroke="#96CC59" stroke-miterlimit="10" stroke-width=".7"/>
  <path d="m29.99 86.63-13.87 4.11-6.96 13.04 5.7 9.47 9.75 6.76 9.29-1.91 5.82-4.39 5.4-9.47-1.36-6.29-7.42-7.4-6.35-3.92z" fill="#FEFFFB" stroke="#FEFFFB" stroke-miterlimit="10" stroke-width=".7"/>
  <path d="m236.7 136.2-33.45 1.47c-11.23 0.24-40.17-2.4-63.24-2.52-12.33-0.06-39.89 2.11-62.95 2.29-9.81 0.08-17.91-0.33-33.01-1.36l-22.24-6.42-14.7 11.09-4.74 8.61-0.3 1.1 1.34 15.85c0.18 1.75 1.08 3.35 2.49 4.45l7.85 6.64c1.52 1.35 3.44 2.14 5.53 2.31l13.12 1.05c2.38 0.3 4.62-0.43 6.42-2.01l2.66-2.11c9.57 0.7 21.44 1.56 33.57 1.38 17.93-0.24 51-2.53 72.6-2.65 11.11-0.06 31.15 1.65 52.22 1.59 9.92-0.06 19.06-0.98 37.05-1.83 11.13-0.53 17.26-10.74 17.26-17.95 0-10.51-6.46-21.02-17.48-20.98z" fill="#FEFFFB" stroke="#125F61" stroke-miterlimit="10" stroke-width=".6"/>
  <path d="m43.78 139.3c9.51 0.69 19.01 1.16 29.03 1.1 15.95-0.12 48.78-2.22 70.9-2.04 13.65 0.12 35.45 1.92 56.28 1.98 8.8 0 19.57-1.04 34.27-1.57 12.01-0.47 18.26 8.15 18.26 17.63 0 8.83-7.6 17.1-15.5 17.04-12.28-0.06-24.01 1.09-37.41 0.85-15.79-0.3-34.7-1.49-51.58-1.43-16.95 0.06-48.02 2.54-66.79 2.6-13.71 0.06-24.16-0.93-37.09-1.9" stroke="#88A856" stroke-miterlimit="10" stroke-width=".5"/>
  <path d="m21.85 132.7-12.49 8.97-4.15 9.29 1.28 14.58 9.76 9.81 16.19 2.21 11.39-6.42 5.1-10.97v-12.92l-5.4-8.57-21.68-5.98z" fill="#158E61" stroke="#158E61" stroke-miterlimit="10" stroke-width=".7"/>
  <path d="m30.65 138.4-14.53 4.23-5.1 5.46-1.86 9.04 4.63 8.57 10.56 6.42 11.63-3.06 5.46-5.33 4.02-8.15-1.7-7.17-7.42-7.47-5.69-2.54z" fill="#FEFFFB" stroke="#FEFFFB" stroke-miterlimit="10" stroke-width=".7"/>
  <path d="m235.2 188.1-34.68 1.35c-6.45 0.36-13.41 0.18-20.37-0.18l-55.05-1.53c-12.93-0.3-34.47 1.23-54.05 1.47-9.02 0.12-17.3-0.48-26.33-0.99l-23.53-5.4-11.87 8.97-5.43 7.15-1.87 3.69 1.14 15.2c0.12 1.87 1.14 3.57 2.67 4.71l8.29 6.81c1.4 1.19 3.18 1.78 5.04 2.02l13.8 1.46c2.3 0.36 4.41-0.43 6.09-2.07l1.66-1.53c6.52 0.42 14.11 0.72 22.39 0.6 16.59-0.18 41.09-2.05 60.2-1.99 12.93 0.06 38.83 2.81 67.95 3.11 12.33 0.12 21.95-1.18 44.61-2.37 11.46-0.59 17.97-11.62 17.97-20.15 0-10.4-7.54-20.57-18.63-20.33z" fill="#FEFFFB" stroke="#125F61" stroke-miterlimit="10" stroke-width=".6"/>
  <path d="m43.78 190.2c8.44 0.85 16.88 1.33 24.94 1.21 15.34-0.24 39.09-1.94 53.29-1.94 15.84 0 43.6 1.76 66.8 2.12 11.91 0.18 23.15-1.09 43.66-1.21 12.39-0.12 18.85 8.4 18.85 18.19 0 8.83-7.42 16.82-16.17 17.18-14.03 0.79-27.09 2.7-42.49 2.58-16.95-0.18-45.53-3.06-69.53-3.18-14.82-0.06-37.31 2.23-55.06 2.23-8.96 0-17.1-0.42-26.31-1.15" stroke="#88A856" stroke-miterlimit="10" stroke-width=".5"/>
  <path d="m20.82 185.1-11.51 9.17-3.87 9.59 1.41 12.26 8.29 10.39 8.5 2.01 10.32 1.1 5.76-2.51 7.36-10.04 1.86-6.87v-11.09l-6.13-9.17-12.77-4.84h-9.22z" fill="#96CC59" stroke="#96CC59" stroke-miterlimit="10" stroke-width=".7"/>
  <path d="m29.99 190.2-13.18 3.48-6.79 13.9 5.7 9.47 9.19 6.58 9.88-2.51 7.84-8.33 2.83-6.52-1.7-6.48-7.42-7.09-6.35-2.5z" fill="#FEFFFB" stroke="#FEFFFB" stroke-miterlimit="10" stroke-width=".7"/>
</svg>