<svg xmlns="http://www.w3.org/2000/svg" xmlns:xlink="http://www.w3.org/1999/xlink" width="3780" zoomAndPan="magnify" viewBox="0 0 2835 2834.999876" height="3780" preserveAspectRatio="xMidYMid meet" version="1.0"><metadata/><defs><clipPath id="4ad4d61006"><path d="M 255 2152 L 782 2152 L 782 2656.277344 L 255 2656.277344 Z M 255 2152 " clip-rule="nonzero"/></clipPath></defs><path fill="#ffffff" d="M 2454.078125 278.398438 L 384.292969 278.398438 L 384.292969 2552.234375 L 2454.054688 2552.234375 L 2454.054688 278.398438 Z M 742.519531 454.535156 L 583.730469 454.535156 L 583.730469 613.292969 L 742.519531 613.292969 Z M 994.546875 454.535156 L 835.734375 454.535156 L 835.734375 613.292969 L 994.546875 613.292969 Z M 1246.550781 454.535156 L 1087.761719 454.535156 L 1087.761719 613.292969 L 1246.550781 613.292969 Z M 1498.554688 454.535156 L 1339.769531 454.535156 L 1339.769531 613.292969 L 1498.554688 613.292969 Z M 1750.605469 454.535156 L 1591.796875 454.535156 L 1591.796875 613.292969 L 1750.605469 613.292969 Z M 2002.609375 454.535156 L 1843.824219 454.535156 L 1843.824219 613.292969 L 2002.609375 613.292969 Z M 2254.636719 454.535156 L 2095.828125 454.535156 L 2095.828125 613.292969 L 2254.636719 613.292969 Z M 2254.636719 454.535156 " fill-opacity="1" fill-rule="evenodd"/><path fill="#b9d1ed" d="M 2383.660156 355.746094 L 454.6875 355.746094 L 454.6875 2474.890625 L 2383.660156 2474.890625 Z M 742.519531 454.535156 L 583.730469 454.535156 L 583.730469 613.292969 L 742.519531 613.292969 Z M 994.546875 454.535156 L 835.734375 454.535156 L 835.734375 613.292969 L 994.546875 613.292969 Z M 1246.550781 454.535156 L 1087.761719 454.535156 L 1087.761719 613.292969 L 1246.550781 613.292969 Z M 1498.554688 454.535156 L 1339.769531 454.535156 L 1339.769531 613.292969 L 1498.554688 613.292969 Z M 1750.605469 454.535156 L 1591.796875 454.535156 L 1591.796875 613.292969 L 1750.605469 613.292969 Z M 2002.609375 454.535156 L 1843.824219 454.535156 L 1843.824219 613.292969 L 2002.609375 613.292969 Z M 2254.636719 454.535156 L 2095.828125 454.535156 L 2095.828125 613.292969 L 2254.636719 613.292969 Z M 2254.636719 454.535156 " fill-opacity="1" fill-rule="evenodd"/><path fill="#ffffff" d="M 573.199219 2262.527344 L 2262.316406 2262.527344 C 2264.882812 2262.527344 2266.953125 2260.460938 2266.953125 2257.890625 C 2266.953125 2255.324219 2264.882812 2253.257812 2262.316406 2253.257812 L 573.199219 2253.257812 C 570.632812 2253.257812 568.5625 2255.324219 568.5625 2257.890625 C 568.5625 2260.460938 570.632812 2262.527344 573.199219 2262.527344 Z M 573.199219 2061.550781 L 2262.316406 2061.550781 C 2264.882812 2061.550781 2266.953125 2059.484375 2266.953125 2056.917969 C 2266.953125 2054.351562 2264.882812 2052.28125 2262.316406 2052.28125 L 573.199219 2052.28125 C 570.632812 2052.28125 568.5625 2054.351562 568.5625 2056.917969 C 568.5625 2059.484375 570.632812 2061.550781 573.199219 2061.550781 Z M 573.199219 1860.578125 L 2262.316406 1860.578125 C 2264.882812 1860.578125 2266.953125 1858.507812 2266.953125 1855.941406 C 2266.953125 1853.375 2264.882812 1851.308594 2262.316406 1851.308594 L 573.199219 1851.308594 C 570.632812 1851.308594 568.5625 1853.375 568.5625 1855.941406 C 568.5625 1858.507812 570.632812 1860.578125 573.199219 1860.578125 Z M 573.199219 1659.601562 L 2262.316406 1659.601562 C 2264.882812 1659.601562 2266.953125 1657.535156 2266.953125 1654.964844 C 2266.953125 1652.398438 2264.882812 1650.332031 2262.316406 1650.332031 L 573.199219 1650.332031 C 570.632812 1650.332031 568.5625 1652.398438 568.5625 1654.964844 C 568.5625 1657.535156 570.632812 1659.601562 573.199219 1659.601562 Z M 573.199219 1458.625 L 2262.316406 1458.625 C 2264.882812 1458.625 2266.953125 1456.558594 2266.953125 1453.992188 C 2266.953125 1451.425781 2264.882812 1449.355469 2262.316406 1449.355469 L 573.199219 1449.355469 C 570.632812 1449.355469 568.5625 1451.425781 568.5625 1453.992188 C 568.5625 1456.558594 570.632812 1458.625 573.199219 1458.625 Z M 573.199219 1257.652344 L 2262.316406 1257.652344 C 2264.882812 1257.652344 2266.953125 1255.582031 2266.953125 1253.015625 C 2266.953125 1250.449219 2264.882812 1248.382812 2262.316406 1248.382812 L 573.199219 1248.382812 C 570.632812 1248.382812 568.5625 1250.449219 568.5625 1253.015625 C 568.5625 1255.582031 570.632812 1257.652344 573.199219 1257.652344 Z M 573.199219 1056.675781 L 2262.316406 1056.675781 C 2264.882812 1056.675781 2266.953125 1054.609375 2266.953125 1052.039062 C 2266.953125 1049.472656 2264.882812 1047.40625 2262.316406 1047.40625 L 573.199219 1047.40625 C 570.632812 1047.40625 568.5625 1049.472656 568.5625 1052.039062 C 568.5625 1054.609375 570.632812 1056.675781 573.199219 1056.675781 Z M 573.199219 855.699219 L 2262.316406 855.699219 C 2264.882812 855.699219 2266.953125 853.632812 2266.953125 851.066406 C 2266.953125 848.5 2264.882812 846.429688 2262.316406 846.429688 L 573.199219 846.429688 C 570.632812 846.429688 568.5625 848.5 568.5625 851.066406 C 568.5625 853.632812 570.632812 855.699219 573.199219 855.699219 Z M 573.199219 855.699219 " fill-opacity="1" fill-rule="evenodd"/><path stroke-linecap="round" transform="matrix(2.377397, 0, 0, 2.376999, 224.958924, 120.970602)" fill-opacity="1" fill="#ffe534" fill-rule="evenodd" stroke-linejoin="round" d="M 888.4908 14.309546 C 946.279526 21.719428 987.190546 74.650211 979.78026 132.450251 C 972.369975 190.240432 919.439833 231.150081 861.639605 223.740199 C 803.849237 216.330317 762.93986 163.399534 770.350145 105.599493 C 777.760431 47.809313 830.700431 6.909523 888.4908 14.309546 Z M 888.4908 14.309546 " stroke="#ffffff" stroke-width="6.25" stroke-opacity="1" stroke-miterlimit="10"/><path fill="#f6851f" d="M 2129.300781 408.921875 L 2483.367188 472.835938 C 2483.367188 472.835938 2427.425781 625.894531 2270.066406 587.742188 C 2134.03125 554.773438 2129.300781 408.921875 2129.300781 408.921875 Z M 2129.300781 408.921875 " fill-opacity="1" fill-rule="evenodd"/><path fill="#161f4c" d="M 2241.253906 291.28125 C 2251.378906 292.589844 2257.847656 307.304688 2255.707031 324.132812 C 2253.542969 340.960938 2243.582031 353.558594 2233.453125 352.277344 C 2223.328125 350.96875 2216.859375 336.253906 2219 319.425781 C 2221.140625 302.597656 2231.101562 290 2241.253906 291.28125 Z M 2241.253906 291.28125 " fill-opacity="1" fill-rule="evenodd"/><path fill="#161f4c" d="M 2397.28125 311.296875 C 2407.410156 312.605469 2413.875 327.316406 2411.734375 344.148438 C 2409.574219 360.976562 2399.609375 373.574219 2389.484375 372.289062 C 2379.355469 370.984375 2372.890625 356.269531 2375.027344 339.441406 C 2377.167969 322.585938 2387.152344 309.988281 2397.28125 311.296875 Z M 2397.28125 311.296875 " fill-opacity="1" fill-rule="evenodd"/><g clip-path="url(#4ad4d61006)"><path fill="#c9afd4" d="M 320.625 2152.851562 L 781.53125 2542.492188 L 632.492188 2656.160156 L 255.128906 2314.964844 Z M 320.625 2152.851562 " fill-opacity="1" fill-rule="evenodd"/></g></svg>