<svg xmlns="http://www.w3.org/2000/svg" width="179" height="219" fill="none" viewBox="0 0 179 219">
<!-- SVG created with Arrow, by QuiverAI (https://quiver.ai) -->
  <path d="m91.49 0v33.57l-2.52 19.8 1.42 3.74 5.07 0.6 5.39-2.98 14.03-32.67v-22.06h-23.39z" fill="url(#paint0_linear_60_8618)"/>
  <path d="m93.6 0c0 15.36 1.63 23.78 2.77 32.2 0.97 7.81-1.34 20.51-4.56 21.68-2.64 0.93-2.84-2.74-2.84-2.74l0.89-7.89 1.55-11.49 0.24-31.76h1.95z" fill="url(#paint1_linear_60_8618)"/>
  <path d="m104.1 0-0.93 18.29c0 4.96 3.58 9.36 1.73 17.41l-6.74 20.14 4.14 1.87 12.59-31.59v-26.12h-10.79z" fill="url(#paint2_linear_60_8618)"/>
  <path d="m36.59 2.01 2.13 24.3-0.99 21.56-0.9 3.97 1.28 12.62 5.78 3.32 9.01-2.56-0.19-7.51-0.17-7 0.32-20.44 0.08-30.27h-16.73l0.38 2.01z" fill="url(#paint3_linear_60_8618)"/>
  <path d="m45.92 0 0.19 1.72 0.35 19.97-1.31 17.45-4.14 17.52c-0.31 6.22 3.11 8.56 6.1 8.56 3 0 7.8-1.16 7.8-5.2 0-2.21-2.43-7.15-2.43-13.93l0.31-20.08 0.15-26.01h-7.02z" fill="url(#paint4_linear_60_8618)"/>
  <path d="m12.33 4.71c7.46 6.2 13.87 11.54 17.56 18.06 4.52 7.94 6.29 17.15 7.3 25.37-1.12-5.83-3.82-10.48-7.95-12.52-5.47-2.66-8.52-12.56-10.56-19.51-1.15-4.05-3.76-8-6.35-11.4z" fill="url(#paint5_linear_60_8618)"/>
  <path d="m0 51.06c7.69-0.58 12.72-8.71 18.92-11.59 8.29-3.75 15.72 0.58 17.84 9.48-2.8-5.43-8.7-7.04-15-3.89-6.95 3.5-11.65 7.65-19.19 6.24-0.81-0.09-1.63-0.16-2.57-0.24z" fill="url(#paint6_linear_60_8618)"/>
  <path d="m126.8 32.66c3.08-6.75 5.53-14.65 12.3-19.28 5.77-3.95 11.16-6.42 17.17-10.97-4.14 6.75-9.3 14.87-15.71 18.81-5.31 3.23-10.39 7.05-13.76 11.44z" fill="url(#paint7_linear_60_8618)"/>
  <path d="m120 42.82c4.38-6.75 8.86-12.91 17.6-14.41 7.43-1.27 14.95-5.96 23.04-9.71-6.49 4.32-14.6 16.41-24.49 19.42-6.01 1.93-11.71 1.14-16.15 4.7z" fill="url(#paint8_linear_60_8618)"/>
  <path d="m120.7 0h17.75l-18.01 42.47-2.63 3.54-2.64 12.1 1.17 9.2c0 3.1-1.3 5.11-5.02 5.11h-8.21l-5.97-2.01-3.1-3.1 3.9-8.23 8.4-17.77 14.36-41.31z" fill="url(#paint9_linear_60_8618)"/>
  <path d="m133.7 0-12.59 28.95-8.97 20.8c-2.19 4.36-0.96 8.83-0.96 12.35 0 5.36-1.5 10.32-5.95 10.32h-3.82c-3.98 0-7.39-1.5-7.39-5.11 0-2.09 3.44-7.29 5.9-11.97 6.2-11.86 12.77-29.6 21.78-55.34h12z" fill="url(#paint10_linear_60_8618)"/>
  <path d="m62.79 0 1.85 18.78-1.53 26.34c-0.93 4.79 0.41 6.6 7.42 7.4l7.01-1.39 6.01-3.92 1.67-16.49 0.31-30.72h-22.74z" fill="url(#paint11_linear_60_8618)"/>
  <path d="m76.38 2.11-2.96 21.94c-0.54 6.22-5.79 12.97-6.96 17.82-1.11 4.9-2.15 8.94 1.91 9.93 3.76 0.91 10.77-0.18 14.83-4.5 1.56-1.67 0.35-11.29-0.12-18.04l1.73-29.26h-7.31l-1.12 2.11z" fill="url(#paint12_linear_60_8618)"/>
  <path d="m47.41 49.89c6.29-4.84 7.77-15.87 10.6-22.43 3.68-8.76 9.85-10.87 14.07-10.29 6.63 0.88 13.01 9.34 15.32 18.74 1.81 7.6 2.51 14.91 2.91 19.56 0.2 2.49-1.73 3.24-2.7 1.59-2.17-3.8-1.23-7.2-2.49-14.84-1.46-9.4-4.93-21.01-11.81-21.52-6.09-0.45-8.73 8.8-12.25 15.55-2.45 4.81-7.64 11-13.65 13.64z" fill="url(#paint13_linear_60_8618)"/>
  <path d="m37.07 72.06 1.85 12.13-0.39 18.9-0.97 43.81-1.84 11.22c0 5.84 3 9.36 6.68 9.36 3 0 4.81-2.4 7.77-3.52 3.99-0.85 4.92-2.86 4.92-6.8l-0.93-10.03-0.35-13.4 1.54-57.63c0.93-3.13 2.04-10.88-0.95-10.88-3.69 0-4.21 3.39-11.23 3.1-4.76-0.39-6.49 0.15-6.1 3.74z" fill="url(#paint14_linear_60_8618)"/>
  <path d="m46.61 88.72 2.13 14.74c1.85 4.67 1.37 14.03-1.21 26.16-2.13 10.03-7.52 18.26-8.12 24.09-0.89 7.95 4.8 9.22 7.08 9.22 3.27 0 6.22-1.51 6.22-6.52l-2.12-12.12 0.47-20.35-0.47-21.72-0.48-15.58 1.43-10.59 3.94-6.88-0.97-3.51-4.9 1.51-6.44 2.84-4.88 0.4-0.81 2.01 6.41 5.83 2.72 10.47z" fill="url(#paint15_linear_60_8618)"/>
  <path d="m8.48 80.01c5.03 9.97 14.26 18.94 14.85 31.06 0.48 9.62-0.16 15.05 2.56 24.67-2.44-6.75 0.86-17.83 3.23-25.02 1.3-4.33 0.95-6.26 0.99-10.69 3.22 6.98 4.57 17.19 2.26 24.38-2.26 7.4-5.33 10.2-4.16 16.9 0.89 5.2 5.96 12.7 8.1 26.85l1.11 9.56c-2.14-6.08-4.86-11.56-10.25-15.5-6.41-4.66-11.06-6.51-14.75-15.56 5.03 7.95 8.19 9.62 13.47 12.85 5.82 3.52 9.32 8.42 10.94 14.55-3.46-3.95-8.12-1.94-14.53-1.14-6.28 0.79-9.1 0-17.22-1.28 5.78 4.4 8.15 8.73 14.93 8.18 6.01-0.48 6.4-2.1 9.7-1.11 4.9 1.5 7.36 4.46 7.71 13.19 0.38 7.94 0.38 17.26-0.1 26.88h14.49l-0.59-13.27 1.26-15.49 2.43-20.01c0-3-1.65-4.55-4.65-3.59-2.8 0.94-4.85 3.54-8.74 3.54-3.72 0-4.41-1.8-5.31-5.33-1.56-6.37-4.03-14.36-7.38-20.19-4.66-7.94-11.67-17.43-13.94-28.82-2.44-11.46-1.66-22.41-6.41-35.61z" fill="url(#paint16_linear_60_8618)"/>
  <path d="m0 105.7c7.69 4.16 12.26 10.14 15.44 19 2.84 8.23 5.4 11.78 11.29 19.19-5.02-1.67-11.61-4.69-14.71-13.9-3.4-10.55-6.63-19.7-12.02-24.29z" fill="url(#paint17_linear_60_8618)"/>
  <path d="m37.32 218.8h7.31l0.19-6.75-0.35-9.06 0.93-6.88-1.51-5.48-5.43-11.27 0.26 13.36-0.61 14.38-0.79 11.7z" fill="url(#paint18_linear_60_8618)"/>
  <path d="m61.36 57.71 1.75 7.22 0.7 10.56-3.8 52.74-3.29 10.55c-0.68 5.36 2.32 7.37 5.04 7.37 4.14 0 6.57-1.86 8.42-3.87l4.38-3.5 6.3 0.96 4.9-3.03 1.85-54.2-0.2-18.79c0-3.51 0.93-5.01 4.5-5.01h7.86l-2.05-2.5c-3.69 0-5.58 2.5-8.3 1.5-2.46-0.94-2.34-4.02-3.66-7-1.64-3.86-6.7 1.45-12.71 2.66-4.14 0.84-5.99-1.21-7.84 0-2.6 1.21-4.49 1.97-3.85 4.34z" fill="url(#paint19_linear_60_8618)"/>
  <path d="m79.32 62.06c-4.21 6.75-6.85 12.58-4.61 21.34 2.24 8.75 4.12 14.37 1.96 23.77-1.3 5.99-2.45 10.49-5.23 9.39-2.27-0.9-1.79-6.85-3.93-4.84l-4.14 12.13c-0.81 5.56-0.66 10.11 4.1 14.29l0.2 5.27 3.46-2.4 5.15-1.51 4.34-1.16 0.43-28.33 1.16-38.07 2.43-16.82c0.79-4.89-1.77-6.17-4.23-5.21l-4.54 2.17 3.45 9.98z" fill="url(#paint20_linear_60_8618)"/>
  <path d="m101 174.4 1.85 22.33 0.08 22.09h14.94l-0.48-9.62c0.48-6.99 2.91-9.75 9.69-12.15 7.52-2.76 10.24-8.59 16.33-18.74-5.32 6.56-7.33 7.84-13.82 10.64-6.01 2.76-9.4 7.37-11.33 11.7 0.64-6.95 5.44-11.7 8.9-19.49 3.83-8.7 3.36-17.52 9.14-34.8-7.01 10.89-15.1 23.99-16.22 32.89-1.18 9.4-1.53 9.94-3.09 19.73l-0.31 2.31 1.75-27.24c0.47-3.95-1.34-4.6-3.57-4.05l-6.86 1.51c-4.3-2.36-7.4-2.36-7 2.89z" fill="url(#paint21_linear_60_8618)"/>
  <path d="m100.1 163.6 1.22-27.49 0.55-35.04 0.27-7.75 3.76-10.03 6.18-9.08 3.72 0.59c2.13 0.85 1.89 3.26 0.62 6.02l-1.55 5.25-1.16 21.04 0.39 31.67 1.41 15.33 2.14 7.95-4.34 2.57-8.71-1.6-4.5 0.57z" fill="url(#paint22_linear_60_8618)"/>
  <path d="m104.3 144.5 0.9-17.27 2.85-10.42 1.74-10.91 0.19-12.9 0.71-13 0.9-4.36 2.49-1.44 2.12 1.44 0.2 3.12-2.32 6.61-0.9 17.98-0.48 12.05 0.59 12.9-1.15 8.04 0.47 6.75-2.23 4.96-3.8-0.63-2.28-2.92z" fill="url(#paint23_linear_60_8618)"/>
  <path d="m84.72 218.8h13.59l-1.55-26.88 0.47-41.78-1.55-1.21h-2.96l-4.06 3.94-2.43 10.56-1.11 31.21-0.4 24.16z" fill="url(#paint24_linear_60_8618)"/>
  <path d="m55.32 218.8h28.78l-1.23-11.47 2.44-25.59 3.11-35.57-1.85-5.14-4.45-0.5-6.01-1.73-5.69-0.99-1.54 9.62-10.57 0.31-1.16 2.94 0.79 6.55-0.93 38.73-1.69 22.84z" fill="url(#paint25_linear_60_8618)"/>
  <path d="m61.87 218.8 1.98-12.72 3.06-58.84 0.56-0.35 2.12-0.55 1.54 2.76 2.56 8.52-1.61 30.02-1.9 19.19 0.04 5.59 2.46 3.8 3.65-8.08 2.58-10.71 0.81-30 0.35-13.99c0.35-4.51 2.61-5.7 5.75-5.7l1.71-2.71-0.81-3-2.86-1-5.35 0.71-6.3-3.58-2.78 1.28 0.67 4.84-1.22 1.89-1.85 0.96-4.01 0.11-3.2 0.5-1.51 2.4 0.61 7.09-0.71 27.2-0.94 22.2-1.95 12.17z" fill="url(#paint26_linear_60_8618)"/>
  <path d="m132.1 73.28c5.31-6.75 11.32-8.06 18.33-7.76 8.2 0.34 15.73-0.45 23.84-3.46-5.47 1.56-13.3 0.24-20.82-0.8-8.06-1.09-16.4 2.36-20.46 9.11-9.89 13.15-17.59 27.69-21.88 43.06-3.1 10.7 0.4 18.48 0.75 22.79-0.27-9.56-1.28-16.16 4.23-31.52 3.56-10.02 9-21.24 15.63-28.65 3.46-0.56 4.39 6.86 5.56 14.81 1.36 9.62 3.41 12.85 13.02 24.97-4.26-9.67-5.04-12.96-5.23-22.71-0.35-9.98-5.96-17.84-11.01-18.76 4.93-2.15 8.94 2.4 15.84 7.05 6.78 4.66 13.37 4.31 29 2.78-9.81-0.73-13.83-5.63-19.84-9.58-6.82-4.5-18.06-4.6-26.96-1.33z" fill="url(#paint27_linear_60_8618)"/>
  <path d="m83.38 197c3.4-19.49 7.08-34.64 13.53-44.95 5.13-7.95 9.97-9.2 17.12-9.78 9.56-0.8 13.31-3.59 19.85-7.82-6.27 10.45-13.87 14.45-22.94 16.56-9.73 2.49-13.87 6.44-19.88 19.8 4.95-3.81 7.56-3.01 11.05-1.61 5.32 2.11 13.73 0.3 21.84-6.1-6.74 2.11-6.94-0.08-12.73-2.01-7.01-2.49-12.2 0-16.11 5.83-6.1 9.06-9.68 19.98-11.73 30.08z" fill="url(#paint28_linear_60_8618)"/>
  <defs>
    <linearGradient id="paint0_linear_60_8618" x1="91.49" x2="114.9" y1="28.85" y2="28.85" gradientUnits="userSpaceOnUse">
      <stop stop-color="#457A50" offset="0"/>
      <stop stop-color="#18381B" offset="1"/>
    </linearGradient>
    <linearGradient id="paint1_linear_60_8618" x1="88.97" x2="97.16" y1="27.14" y2="27.14" gradientUnits="userSpaceOnUse">
      <stop stop-color="#457A50" offset="0"/>
      <stop stop-color="#214721" offset="1"/>
    </linearGradient>
    <linearGradient id="paint2_linear_60_8618" x1="103.2" x2="114.9" y1="28.85" y2="28.85" gradientUnits="userSpaceOnUse">
      <stop stop-color="#347048" offset="0"/>
      <stop stop-color="#0F3821" offset="1"/>
    </linearGradient>
    <linearGradient id="paint3_linear_60_8618" x1="36.21" x2="52.94" y1="33.89" y2="33.89" gradientUnits="userSpaceOnUse">
      <stop stop-color="#2B421E" offset="0"/>
      <stop stop-color="#507035" offset="1"/>
    </linearGradient>
    <linearGradient id="paint4_linear_60_8618" x1="40.97" x2="54.91" y1="32.61" y2="32.61" gradientUnits="userSpaceOnUse">
      <stop stop-color="#344924" offset="0"/>
      <stop stop-color="#5A7A41" offset="1"/>
    </linearGradient>
    <linearGradient id="paint5_linear_60_8618" x1="12.33" x2="37.19" y1="26.42" y2="26.42" gradientUnits="userSpaceOnUse">
      <stop stop-color="#446135" offset="0"/>
      <stop stop-color="#225429" offset="1"/>
    </linearGradient>
    <linearGradient id="paint6_linear_60_8618" x2="36.76" y1="45.7" y2="45.7" gradientUnits="userSpaceOnUse">
      <stop stop-color="#48703D" offset="0"/>
      <stop stop-color="#1B4926" offset="1"/>
    </linearGradient>
    <linearGradient id="paint7_linear_60_8618" x1="126.8" x2="156.2" y1="17.54" y2="17.54" gradientUnits="userSpaceOnUse">
      <stop stop-color="#195130" offset="0"/>
      <stop stop-color="#266B3A" offset="1"/>
    </linearGradient>
    <linearGradient id="paint8_linear_60_8618" x1="120" x2="160.6" y1="30.26" y2="30.26" gradientUnits="userSpaceOnUse">
      <stop stop-color="#286039" offset="0"/>
      <stop stop-color="#20723B" offset="1"/>
    </linearGradient>
    <linearGradient id="paint9_linear_60_8618" x1="94.01" x2="138.4" y1="36.21" y2="36.21" gradientUnits="userSpaceOnUse">
      <stop stop-color="#307747" offset="0"/>
      <stop stop-color="#023821" offset="1"/>
    </linearGradient>
    <linearGradient id="paint10_linear_60_8618" x1="94.01" x2="133.7" y1="36.21" y2="36.21" gradientUnits="userSpaceOnUse">
      <stop stop-color="#56B072" offset="0"/>
      <stop stop-color="#024927" offset="1"/>
    </linearGradient>
    <linearGradient id="paint11_linear_60_8618" x1="62.56" x2="85.53" y1="26.26" y2="26.26" gradientUnits="userSpaceOnUse">
      <stop stop-color="#093922" offset="0"/>
      <stop stop-color="#258046" offset="1"/>
    </linearGradient>
    <linearGradient id="paint12_linear_60_8618" x1="68.8" x2="84.09" y1="25.9" y2="25.9" gradientUnits="userSpaceOnUse">
      <stop stop-color="#216135" offset="0"/>
      <stop stop-color="#208751" offset="1"/>
    </linearGradient>
    <linearGradient id="paint13_linear_60_8618" x1="47.41" x2="90.43" y1="36.94" y2="36.94" gradientUnits="userSpaceOnUse">
      <stop stop-color="#024229" offset="0"/>
      <stop stop-color="#284928" offset="1"/>
    </linearGradient>
    <linearGradient id="paint14_linear_60_8618" x1="35.68" x2="56.03" y1="116.3" y2="116.3" gradientUnits="userSpaceOnUse">
      <stop stop-color="#19321A" offset="0"/>
      <stop stop-color="#51773B" offset="1"/>
    </linearGradient>
    <linearGradient id="paint15_linear_60_8618" x1="39.3" x2="54.91" y1="114.2" y2="114.2" gradientUnits="userSpaceOnUse">
      <stop stop-color="#304A22" offset="0"/>
      <stop stop-color="#50753B" offset="1"/>
    </linearGradient>
    <linearGradient id="paint16_linear_60_8618" x2="55.13" y1="149.4" y2="149.4" gradientUnits="userSpaceOnUse">
      <stop stop-color="#4D7039" offset="0"/>
      <stop stop-color="#20421D" offset=".5052"/>
      <stop stop-color="#506A35" offset="1"/>
    </linearGradient>
    <linearGradient id="paint17_linear_60_8618" x2="26.73" y1="124.8" y2="124.8" gradientUnits="userSpaceOnUse">
      <stop stop-color="#456937" offset="0"/>
      <stop stop-color="#214926" offset="1"/>
    </linearGradient>
    <linearGradient id="paint18_linear_60_8618" x1="37.32" x2="45.4" y1="200.1" y2="200.1" gradientUnits="userSpaceOnUse">
      <stop stop-color="#203019" offset="0"/>
      <stop stop-color="#28361B" offset="1"/>
    </linearGradient>
    <linearGradient id="paint19_linear_60_8618" x1="56.52" x2="99.77" y1="97.97" y2="97.97" gradientUnits="userSpaceOnUse">
      <stop stop-color="#113A28" offset="0"/>
      <stop stop-color="#2C603A" offset="1"/>
    </linearGradient>
    <linearGradient id="paint20_linear_60_8618" x1="62.75" x2="80.86" y1="93.64" y2="93.64" gradientUnits="userSpaceOnUse">
      <stop stop-color="#0C442A" offset="0"/>
      <stop stop-color="#30844B" offset="1"/>
    </linearGradient>
    <linearGradient id="paint21_linear_60_8618" x1="100.9" x2="143.4" y1="193.5" y2="193.5" gradientUnits="userSpaceOnUse">
      <stop stop-color="#00613A" offset="0"/>
      <stop stop-color="#40663A" offset="1"/>
    </linearGradient>
    <linearGradient id="paint22_linear_60_8618" x1="100.1" x2="117.7" y1="119.4" y2="119.4" gradientUnits="userSpaceOnUse">
      <stop stop-color="#0B502F" offset="0"/>
      <stop stop-color="#084126" offset="1"/>
    </linearGradient>
    <linearGradient id="paint23_linear_60_8618" x1="104.3" x2="116.4" y1="112.7" y2="112.7" gradientUnits="userSpaceOnUse">
      <stop stop-color="#0B502F" offset="0"/>
      <stop stop-color="#084126" offset="1"/>
    </linearGradient>
    <linearGradient id="paint24_linear_60_8618" x1="84.72" x2="98.31" y1="183.8" y2="183.8" gradientUnits="userSpaceOnUse">
      <stop stop-color="#437147" offset="0"/>
      <stop stop-color="#3B7A48" offset="1"/>
    </linearGradient>
    <linearGradient id="paint25_linear_60_8618" x1="55.32" x2="88.42" y1="178.3" y2="178.3" gradientUnits="userSpaceOnUse">
      <stop stop-color="#0D3328" offset="0"/>
      <stop stop-color="#185932" offset="1"/>
    </linearGradient>
    <linearGradient id="paint26_linear_60_8618" x1="58.21" x2="87.53" y1="178.6" y2="178.6" gradientUnits="userSpaceOnUse">
      <stop stop-color="#093922" offset="0"/>
      <stop stop-color="#1A6135" offset="1"/>
    </linearGradient>
    <linearGradient id="paint27_linear_60_8618" x1="83.38" x2="178.9" y1="98.6" y2="98.6" gradientUnits="userSpaceOnUse">
      <stop stop-color="#22663A" offset="0"/>
      <stop stop-color="#20723B" offset="1"/>
    </linearGradient>
    <linearGradient id="paint28_linear_60_8618" x1="83.38" x2="133.9" y1="165.3" y2="165.3" gradientUnits="userSpaceOnUse">
      <stop stop-color="#174828" offset="0"/>
      <stop stop-color="#094126" offset="1"/>
    </linearGradient>
  </defs>
</svg>