<svg xmlns="http://www.w3.org/2000/svg" width="200" height="200" fill="none" viewBox="0 0 200 200">
<!-- SVG created with Arrow, by QuiverAI (https://quiver.ai) -->
  <path d="m144.3 98.91c-1.12-2.07-0.72-2.69-0.72-2.69l-0.21-0.56c2.06-1.82 2.78-5.19 1.65-7.57-2.28-4.81-4.87-6.15-5.25-24.43-0.28-12.54 0.5-32.94 3.25-45.91 0.66-3.13 0.35-5.66-0.94-7.72-3.31-5.31-19.09-7.75-42.81-7.75h-0.15c-17.41 0-37.07 1.86-41.6 7.91-1.81 2.59-2.03 5.84-1.25 8.97 3.13 11.62 3.91 33.37 2.72 50.78-0.87 12.68-2.94 14.81-4.65 18.81-1.19 3.03 0.06 6.41 1.93 7.91-1.06 0.72-2.5 2.46-2.78 4.81-0.28 2.28 0.75 4.87 2.19 7.94 4.44 9.53 4.09 26.78 3.53 48.65-0.44 16.69-2.63 19.22-3.44 23.1-0.87 4.25 0.6 7.12 3.35 8.78 7.59 4.59 20.28 7.56 39.75 7.78h0.18c15.66 0 30.44-2.5 39.03-7.1 4.94-2.68 6.29-6.87 5.29-11.12-1.29-5.44-3-7.06-3.35-24.38-0.44-18.87 0.28-37.09 4.47-47.31 1.72-4.06 1.72-5.87-0.19-8.9z" fill="url(#paint0_linear_1_24959)"/>
  <path d="m98.25 107.3c-17.19 0-30.09-2.5-40.87-6.81-1.94-0.81-2.13-3.44 0.15-3.88 0 0 13.03 7.29 40.78 7.29 18.6 0 31.63-3.6 43.53-7.29 1.5-0.5 2.75 1.79 1.19 2.91-5.62 3.91-24.97 7.78-44.78 7.78z" fill="url(#paint1_linear_1_24959)" opacity=".5"/>
  <path d="m99.09 22.5c20.66 0 43.82-4.19 43.82-9.69 0-6.19-15.5-10.53-43.79-10.53h-0.15c-24.88 0-42.75 3.81-42.75 10 0 6.34 18 10.22 42.87 10.22z" fill="url(#paint2_linear_1_24959)"/>
  <path d="m99.22 17.44c17.69 0 33.75-2.69 33.75-6.38 0-4.12-14.78-6.75-33.75-6.75h-0.06c-16.91 0-32.38 2.81-32.38 6.75 0 4 15.53 6.38 32.44 6.38z" fill="url(#paint3_linear_1_24959)"/>
  <path d="m58.56 16.62c3.85 1.91 16.25 6.29 38.35 6.29 10.71 0 22.62-1.75 26.18-2.57 3.38-0.81 2.94 1.1 1.1 3.78-2.6 4-3.81 12.97-4.31 30.44-0.26 8.69 1.28 15.16 0.28 25.25-1.35 14.03-14.1 18.94-21.38 19.13-9.4 0.31-25.72-1.69-38.59-5.88-4.25-1.44-5.91-3.28-5.47-4.4 1.9-4.85 4.59-5.91 5.37-21.44 0.66-13.41-0.68-35.1-2.87-47.19-0.5-2.28-0.84-4.5 1.34-3.41z" fill="url(#paint4_radial_1_24959)" opacity=".3"/>
  <path d="m56.22 100.4c5.31 2.81 15.59 7.72 40.25 7.72 16.84 0 31.44-3.44 42.28-7.54 2.47-1 5.16-0.87 5.59 2.04 0.38 2.43-1 4.93-2.59 8.75-4.37 11-3.72 29.34-3.66 41 0.16 12.31 1.03 20.03 3.53 26.43 1.6 4.38-0.31 9.19-4.9 11.1-9.81 4.09-20.1 6.28-37.56 6.28-16.44 0-29.54-2.28-38.07-6.88-3.97-2.18-5.68-5.03-4.03-10.4 2.03-6.69 2.63-11.28 2.75-21.88 0.28-17.47 0.28-36.28-4.15-47.47-1.04-2.75-2.19-4.65-1.75-7.5 0.28-1.97 1.28-2.28 2.31-1.65z" fill="url(#paint5_radial_1_24959)" opacity=".3"/>
  <path d="m60.09 184.3c5.82 2.85 12.57 5.63 27.82 5.63 9.15 0 21-2.28 25.75-8.91 4.75-6.62 4.25-19.91 4.25-29.91 0-9.62 0-19.31-0.66-23.09-0.87-4.69-11.16-10.87-20.03-10.87-8.75 0-14.31-2.94-20.13-1.44-5.71 1.5-8.18 6.4-8.18 16.94 0 8.25 1.25 18.06 1.25 24.68 0 9.38-2 16.28-4.1 19.78-1.9 3.32-8.44 5.82-5.97 7.19z" fill="url(#paint6_radial_1_24959)" opacity=".3"/>
  <defs>
    <linearGradient id="paint0_linear_1_24959" x1="99.68" x2="99.68" y1="2.281" y2="197.7" gradientUnits="userSpaceOnUse">
      <stop stop-color="#F9D06E" offset="0"/>
      <stop stop-color="#F8D76D" offset=".4219"/>
      <stop stop-color="#C6E072" offset=".724"/>
      <stop stop-color="#99CC5A" offset="1"/>
    </linearGradient>
    <linearGradient id="paint1_linear_1_24959" x1="99.49" x2="99.49" y1="96.5" y2="107.3" gradientUnits="userSpaceOnUse">
      <stop stop-color="#829649" offset="0"/>
      <stop stop-color="#D4996E" offset="1"/>
    </linearGradient>
    <linearGradient id="paint2_linear_1_24959" x1="99.56" x2="99.56" y1="2.281" y2="22.5" gradientUnits="userSpaceOnUse">
      <stop stop-color="#F6CF73" offset="0"/>
      <stop stop-color="#FBE6B1" offset="1"/>
    </linearGradient>
    <linearGradient id="paint3_linear_1_24959" x1="66.78" x2="133" y1="10.88" y2="10.88" gradientUnits="userSpaceOnUse">
      <stop stop-color="#92C164" offset="0"/>
      <stop stop-color="#F0C063" offset="1"/>
    </linearGradient>
    <radialGradient id="paint4_radial_1_24959" cx="0" cy="0" r="1" gradientTransform="translate(85.9 51.09) rotate(89.07) scale(54.52 47.27)" gradientUnits="userSpaceOnUse">
      <stop stop-color="#FCE28A" offset="0"/>
      <stop stop-color="#FCE28A" stop-opacity=".28" offset="1"/>
    </radialGradient>
    <radialGradient id="paint5_radial_1_24959" cx="0" cy="0" r="1" gradientTransform="translate(78.74 144.8) rotate(89.8) scale(53.1 66.41)" gradientUnits="userSpaceOnUse">
      <stop stop-color="#D1F08D" offset="0"/>
      <stop stop-color="#D1F08D" stop-opacity=".23" offset="1"/>
    </radialGradient>
    <radialGradient id="paint6_radial_1_24959" cx="0" cy="0" r="1" gradientTransform="translate(79.71 151.7) rotate(90.4) scale(39.49 26.14)" gradientUnits="userSpaceOnUse">
      <stop stop-color="#D1F08D" offset="0"/>
      <stop stop-color="#D1F08D" stop-opacity=".31" offset="1"/>
    </radialGradient>
  </defs>
</svg>