<svg xmlns="http://www.w3.org/2000/svg" width="250" height="250" viewBox="0 0 250 250">
<!-- SVG created with Arrow, by QuiverAI (https://quiver.ai) -->
  <path d="m240.2 97.22c-1.9-12.01-11.13-23.54-24.21-27.19l-67.72 64.18 26.24-83.95c-8.38-9.53-18.5-10.92-30.22-9.07l-27.26 85.97-19.9-69.92c-11.07-1.45-20.01 0.92-27.11 9.15l12.25 45.34-44.86-59.09c-13.54-0.15-24.41 10.28-28.2 23.36l84.36 111.9-32.41 31.51h100.5l-21.46-27.02 99.98-95.18z" fill="#E8B569"/>
  <path d="m97.18 57.71c-11.07-1.46-20.01 0.92-27.11 9.15l27.11 96.26 27.88-6.96-27.88-98.45z" fill="#D2D57A"/>
  <path d="m37.46 52.64c-13.54-0.15-24.41 10.28-28.2 23.36l106.9 87.88 4.32-1.15 3.8-5.78-86.85-104.3z" fill="#D1D786"/>
  <path d="m216.1 70.03-67.76 64.18 26.24-83.95c-6.55-7.5-14.78-10.64-30.22-9.07l-27.74 85.97 1.12 4.12 2.26 8.15-2.31 23.31 22.08 28.32 100.5-93.84c-1.9-12.01-11.13-23.54-24.17-27.19z" fill="#E9B66A"/>
  <path d="m161.7 219.4-124.4-166.7c-13.49-0.15-24.3 10.19-28.05 23.27l107.1 143.4h45.34z" fill="#DACF7B"/>
</svg>